<?xml version="1.0" encoding="utf-8" standalone="no"?>
<!DOCTYPE svg PUBLIC "-//W3C//DTD SVG 1.1//EN"
  "http://www.w3.org/Graphics/SVG/1.1/DTD/svg11.dtd">
<svg xmlns:xlink="http://www.w3.org/1999/xlink" width="475.19941pt" height="331.2pt" viewBox="0 0 475.19941 331.2" xmlns="http://www.w3.org/2000/svg" version="1.1">
 <metadata>
  <rdf:RDF xmlns:dc="http://purl.org/dc/elements/1.1/" xmlns:cc="http://creativecommons.org/ns#" xmlns:rdf="http://www.w3.org/1999/02/22-rdf-syntax-ns#">
   <cc:Work>
    <dc:type rdf:resource="http://purl.org/dc/dcmitype/StillImage"/>
    <dc:date>2026-05-13T15:05:48.572675</dc:date>
    <dc:format>image/svg+xml</dc:format>
    <dc:creator>
     <cc:Agent>
      <dc:title>Matplotlib v3.8.4, https://matplotlib.org/</dc:title>
     </cc:Agent>
    </dc:creator>
   </cc:Work>
  </rdf:RDF>
 </metadata>
 <defs>
  <style type="text/css">*{stroke-linejoin: round; stroke-linecap: butt}</style>
 </defs>
 <g id="figure_1">
  <g id="patch_1">
   <path d="M 0 331.2 
L 475.19941 331.2 
L 475.19941 0 
L 0 0 
z
" style="fill: #ffffff"/>
  </g>
  <g id="axes_1">
   <g id="patch_2">
    <path d="M 40.7125 128.815 
L 219.458722 128.815 
L 219.458722 10.239375 
L 40.7125 10.239375 
z
" style="fill: #ffffff"/>
   </g>
   <g id="patch_3">
    <path d="M 209.031859 128.815 
L 212.010962 128.815 
L 212.010962 113.265449 
L 209.031859 113.265449 
z
" clip-path="url(#p9322f6545c)"/>
   </g>
   <g id="patch_4">
    <path d="M 197.115444 128.815 
L 200.094548 128.815 
L 200.094548 113.635105 
L 197.115444 113.635105 
z
" clip-path="url(#p9322f6545c)"/>
   </g>
   <g id="patch_5">
    <path d="M 185.199029 128.815 
L 188.178133 128.815 
L 188.178133 113.89697 
L 185.199029 113.89697 
z
" clip-path="url(#p9322f6545c)"/>
   </g>
   <g id="patch_6">
    <path d="M 173.282614 128.815 
L 176.261718 128.815 
L 176.261718 114.551105 
L 173.282614 114.551105 
z
" clip-path="url(#p9322f6545c)"/>
   </g>
   <g id="patch_7">
    <path d="M 161.3662 128.815 
L 164.345303 128.815 
L 164.345303 114.677908 
L 161.3662 114.677908 
z
" clip-path="url(#p9322f6545c)"/>
   </g>
   <g id="patch_8">
    <path d="M 149.449785 128.815 
L 152.428889 128.815 
L 152.428889 113.852661 
L 149.449785 113.852661 
z
" clip-path="url(#p9322f6545c)"/>
   </g>
   <g id="patch_9">
    <path d="M 137.53337 128.815 
L 140.512474 128.815 
L 140.512474 114.087681 
L 137.53337 114.087681 
z
" clip-path="url(#p9322f6545c)"/>
   </g>
   <g id="patch_10">
    <path d="M 125.616955 128.815 
L 128.596059 128.815 
L 128.596059 114.461755 
L 125.616955 114.461755 
z
" clip-path="url(#p9322f6545c)"/>
   </g>
   <g id="patch_11">
    <path d="M 113.700541 128.815 
L 116.679644 128.815 
L 116.679644 115.106578 
L 113.700541 115.106578 
z
" clip-path="url(#p9322f6545c)"/>
   </g>
   <g id="patch_12">
    <path d="M 101.784126 128.815 
L 104.763229 128.815 
L 104.763229 115.254708 
L 101.784126 115.254708 
z
" clip-path="url(#p9322f6545c)"/>
   </g>
   <g id="patch_13">
    <path d="M 89.867711 128.815 
L 92.846815 128.815 
L 92.846815 114.27163 
L 89.867711 114.27163 
z
" clip-path="url(#p9322f6545c)"/>
   </g>
   <g id="patch_14">
    <path d="M 77.951296 128.815 
L 80.9304 128.815 
L 80.9304 115.008156 
L 77.951296 115.008156 
z
" clip-path="url(#p9322f6545c)"/>
   </g>
   <g id="patch_15">
    <path d="M 66.034881 128.815 
L 69.013985 128.815 
L 69.013985 114.851461 
L 66.034881 114.851461 
z
" clip-path="url(#p9322f6545c)"/>
   </g>
   <g id="patch_16">
    <path d="M 54.118467 128.815 
L 57.09757 128.815 
L 57.09757 115.0752 
L 54.118467 115.0752 
z
" clip-path="url(#p9322f6545c)"/>
   </g>
   <g id="patch_17">
    <path d="M 42.202052 128.815 
L 45.181156 128.815 
L 45.181156 115.760464 
L 42.202052 115.760464 
z
" clip-path="url(#p9322f6545c)"/>
   </g>
   <g id="patch_18">
    <path d="M 212.010962 128.815 
L 214.990066 128.815 
L 214.990066 44.534871 
L 212.010962 44.534871 
z
" clip-path="url(#p9322f6545c)" style="fill: #2255a0; fill-opacity: 0.501961"/>
   </g>
   <g id="patch_19">
    <path d="M 200.094548 128.815 
L 203.073651 128.815 
L 203.073651 60.578635 
L 200.094548 60.578635 
z
" clip-path="url(#p9322f6545c)" style="fill: #2255a0; fill-opacity: 0.501961"/>
   </g>
   <g id="patch_20">
    <path d="M 188.178133 128.815 
L 191.157237 128.815 
L 191.157237 72.303624 
L 188.178133 72.303624 
z
" clip-path="url(#p9322f6545c)" style="fill: #2255a0; fill-opacity: 0.501961"/>
   </g>
   <g id="patch_21">
    <path d="M 176.261718 128.815 
L 179.240822 128.815 
L 179.240822 84.595639 
L 176.261718 84.595639 
z
" clip-path="url(#p9322f6545c)" style="fill: #2255a0; fill-opacity: 0.501961"/>
   </g>
   <g id="patch_22">
    <path d="M 164.345303 128.815 
L 167.324407 128.815 
L 167.324407 93.708525 
L 164.345303 93.708525 
z
" clip-path="url(#p9322f6545c)" style="fill: #2255a0; fill-opacity: 0.501961"/>
   </g>
   <g id="patch_23">
    <path d="M 152.428889 128.815 
L 155.407992 128.815 
L 155.407992 101.019262 
L 152.428889 101.019262 
z
" clip-path="url(#p9322f6545c)" style="fill: #2255a0; fill-opacity: 0.501961"/>
   </g>
   <g id="patch_24">
    <path d="M 140.512474 128.815 
L 143.491577 128.815 
L 143.491577 109.922758 
L 140.512474 109.922758 
z
" clip-path="url(#p9322f6545c)" style="fill: #2255a0; fill-opacity: 0.501961"/>
   </g>
   <g id="patch_25">
    <path d="M 128.596059 128.815 
L 131.575163 128.815 
L 131.575163 115.60575 
L 128.596059 115.60575 
z
" clip-path="url(#p9322f6545c)" style="fill: #2255a0; fill-opacity: 0.501961"/>
   </g>
   <g id="patch_26">
    <path d="M 116.679644 128.815 
L 119.658748 128.815 
L 119.658748 119.058288 
L 116.679644 119.058288 
z
" clip-path="url(#p9322f6545c)" style="fill: #2255a0; fill-opacity: 0.501961"/>
   </g>
   <g id="patch_27">
    <path d="M 104.763229 128.815 
L 107.742333 128.815 
L 107.742333 120.823605 
L 104.763229 120.823605 
z
" clip-path="url(#p9322f6545c)" style="fill: #2255a0; fill-opacity: 0.501961"/>
   </g>
   <g id="patch_28">
    <path d="M 92.846815 128.815 
L 95.825918 128.815 
L 95.825918 121.266419 
L 92.846815 121.266419 
z
" clip-path="url(#p9322f6545c)" style="fill: #2255a0; fill-opacity: 0.501961"/>
   </g>
   <g id="patch_29">
    <path d="M 80.9304 128.815 
L 83.909504 128.815 
L 83.909504 121.777205 
L 80.9304 121.777205 
z
" clip-path="url(#p9322f6545c)" style="fill: #2255a0; fill-opacity: 0.501961"/>
   </g>
   <g id="patch_30">
    <path d="M 69.013985 128.815 
L 71.993089 128.815 
L 71.993089 121.707025 
L 69.013985 121.707025 
z
" clip-path="url(#p9322f6545c)" style="fill: #2255a0; fill-opacity: 0.501961"/>
   </g>
   <g id="patch_31">
    <path d="M 57.09757 128.815 
L 60.076674 128.815 
L 60.076674 121.256008 
L 57.09757 121.256008 
z
" clip-path="url(#p9322f6545c)" style="fill: #2255a0; fill-opacity: 0.501961"/>
   </g>
   <g id="patch_32">
    <path d="M 45.181156 128.815 
L 48.160259 128.815 
L 48.160259 121.109682 
L 45.181156 121.109682 
z
" clip-path="url(#p9322f6545c)" style="fill: #2255a0; fill-opacity: 0.501961"/>
   </g>
   <g id="patch_33">
    <path d="M 214.990066 128.815 
L 217.96917 128.815 
L 217.96917 30.001979 
L 214.990066 30.001979 
z
" clip-path="url(#p9322f6545c)" style="fill: #8e8e8e"/>
   </g>
   <g id="patch_34">
    <path d="M 203.073651 128.815 
L 206.052755 128.815 
L 206.052755 46.207467 
L 203.073651 46.207467 
z
" clip-path="url(#p9322f6545c)" style="fill: #8e8e8e"/>
   </g>
   <g id="patch_35">
    <path d="M 191.157237 128.815 
L 194.13634 128.815 
L 194.13634 58.00141 
L 191.157237 58.00141 
z
" clip-path="url(#p9322f6545c)" style="fill: #8e8e8e"/>
   </g>
   <g id="patch_36">
    <path d="M 179.240822 128.815 
L 182.219925 128.815 
L 182.219925 70.789784 
L 179.240822 70.789784 
z
" clip-path="url(#p9322f6545c)" style="fill: #8e8e8e"/>
   </g>
   <g id="patch_37">
    <path d="M 167.324407 128.815 
L 170.303511 128.815 
L 170.303511 79.90883 
L 167.324407 79.90883 
z
" clip-path="url(#p9322f6545c)" style="fill: #8e8e8e"/>
   </g>
   <g id="patch_38">
    <path d="M 155.407992 128.815 
L 158.387096 128.815 
L 158.387096 86.299573 
L 155.407992 86.299573 
z
" clip-path="url(#p9322f6545c)" style="fill: #8e8e8e"/>
   </g>
   <g id="patch_39">
    <path d="M 143.491577 128.815 
L 146.470681 128.815 
L 146.470681 95.364316 
L 143.491577 95.364316 
z
" clip-path="url(#p9322f6545c)" style="fill: #8e8e8e"/>
   </g>
   <g id="patch_40">
    <path d="M 131.575163 128.815 
L 134.554266 128.815 
L 134.554266 101.377028 
L 131.575163 101.377028 
z
" clip-path="url(#p9322f6545c)" style="fill: #8e8e8e"/>
   </g>
   <g id="patch_41">
    <path d="M 119.658748 128.815 
L 122.637852 128.815 
L 122.637852 105.459894 
L 119.658748 105.459894 
z
" clip-path="url(#p9322f6545c)" style="fill: #8e8e8e"/>
   </g>
   <g id="patch_42">
    <path d="M 107.742333 128.815 
L 110.721437 128.815 
L 110.721437 107.35157 
L 107.742333 107.35157 
z
" clip-path="url(#p9322f6545c)" style="fill: #8e8e8e"/>
   </g>
   <g id="patch_43">
    <path d="M 95.825918 128.815 
L 98.805022 128.815 
L 98.805022 106.847895 
L 95.825918 106.847895 
z
" clip-path="url(#p9322f6545c)" style="fill: #8e8e8e"/>
   </g>
   <g id="patch_44">
    <path d="M 83.909504 128.815 
L 86.888607 128.815 
L 86.888607 108.101552 
L 83.909504 108.101552 
z
" clip-path="url(#p9322f6545c)" style="fill: #8e8e8e"/>
   </g>
   <g id="patch_45">
    <path d="M 71.993089 128.815 
L 74.972192 128.815 
L 74.972192 107.848701 
L 71.993089 107.848701 
z
" clip-path="url(#p9322f6545c)" style="fill: #8e8e8e"/>
   </g>
   <g id="patch_46">
    <path d="M 60.076674 128.815 
L 63.055778 128.815 
L 63.055778 107.6412 
L 60.076674 107.6412 
z
" clip-path="url(#p9322f6545c)" style="fill: #8e8e8e"/>
   </g>
   <g id="patch_47">
    <path d="M 48.160259 128.815 
L 51.139363 128.815 
L 51.139363 108.178477 
L 48.160259 108.178477 
z
" clip-path="url(#p9322f6545c)" style="fill: #8e8e8e"/>
   </g>
   <g id="matplotlib.axis_1">
    <g id="xtick_1">
     <g id="line2d_1">
      <defs>
       <path id="m6b3d8849a6" d="M 0 0 
L 0 3 
" style="stroke: #000000; stroke-width: 0.8"/>
      </defs>
      <g>
       <use xlink:href="#m6b3d8849a6" x="46.670707" y="128.815" style="stroke: #000000; stroke-width: 0.8"/>
      </g>
     </g>
     <g id="text_1">
      <!-- 2010 -->
      <g transform="translate(36.490707 141.39375) scale(0.08 -0.08)">
       <defs>
        <path id="DejaVuSans-32" d="M 1228 531 
L 3431 531 
L 3431 0 
L 469 0 
L 469 531 
Q 828 903 1448 1529 
Q 2069 2156 2228 2338 
Q 2531 2678 2651 2914 
Q 2772 3150 2772 3378 
Q 2772 3750 2511 3984 
Q 2250 4219 1831 4219 
Q 1534 4219 1204 4116 
Q 875 4013 500 3803 
L 500 4441 
Q 881 4594 1212 4672 
Q 1544 4750 1819 4750 
Q 2544 4750 2975 4387 
Q 3406 4025 3406 3419 
Q 3406 3131 3298 2873 
Q 3191 2616 2906 2266 
Q 2828 2175 2409 1742 
Q 1991 1309 1228 531 
z
" transform="scale(0.015625)"/>
        <path id="DejaVuSans-30" d="M 2034 4250 
Q 1547 4250 1301 3770 
Q 1056 3291 1056 2328 
Q 1056 1369 1301 889 
Q 1547 409 2034 409 
Q 2525 409 2770 889 
Q 3016 1369 3016 2328 
Q 3016 3291 2770 3770 
Q 2525 4250 2034 4250 
z
M 2034 4750 
Q 2819 4750 3233 4129 
Q 3647 3509 3647 2328 
Q 3647 1150 3233 529 
Q 2819 -91 2034 -91 
Q 1250 -91 836 529 
Q 422 1150 422 2328 
Q 422 3509 836 4129 
Q 1250 4750 2034 4750 
z
" transform="scale(0.015625)"/>
        <path id="DejaVuSans-31" d="M 794 531 
L 1825 531 
L 1825 4091 
L 703 3866 
L 703 4441 
L 1819 4666 
L 2450 4666 
L 2450 531 
L 3481 531 
L 3481 0 
L 794 0 
L 794 531 
z
" transform="scale(0.015625)"/>
       </defs>
       <use xlink:href="#DejaVuSans-32"/>
       <use xlink:href="#DejaVuSans-30" x="63.623047"/>
       <use xlink:href="#DejaVuSans-31" x="127.246094"/>
       <use xlink:href="#DejaVuSans-30" x="190.869141"/>
      </g>
     </g>
    </g>
    <g id="xtick_2">
     <g id="line2d_2">
      <g>
       <use xlink:href="#m6b3d8849a6" x="70.503537" y="128.815" style="stroke: #000000; stroke-width: 0.8"/>
      </g>
     </g>
     <g id="text_2">
      <!-- 2012 -->
      <g transform="translate(60.323537 141.39375) scale(0.08 -0.08)">
       <use xlink:href="#DejaVuSans-32"/>
       <use xlink:href="#DejaVuSans-30" x="63.623047"/>
       <use xlink:href="#DejaVuSans-31" x="127.246094"/>
       <use xlink:href="#DejaVuSans-32" x="190.869141"/>
      </g>
     </g>
    </g>
    <g id="xtick_3">
     <g id="line2d_3">
      <g>
       <use xlink:href="#m6b3d8849a6" x="94.336367" y="128.815" style="stroke: #000000; stroke-width: 0.8"/>
      </g>
     </g>
     <g id="text_3">
      <!-- 2014 -->
      <g transform="translate(84.156367 141.39375) scale(0.08 -0.08)">
       <defs>
        <path id="DejaVuSans-34" d="M 2419 4116 
L 825 1625 
L 2419 1625 
L 2419 4116 
z
M 2253 4666 
L 3047 4666 
L 3047 1625 
L 3713 1625 
L 3713 1100 
L 3047 1100 
L 3047 0 
L 2419 0 
L 2419 1100 
L 313 1100 
L 313 1709 
L 2253 4666 
z
" transform="scale(0.015625)"/>
       </defs>
       <use xlink:href="#DejaVuSans-32"/>
       <use xlink:href="#DejaVuSans-30" x="63.623047"/>
       <use xlink:href="#DejaVuSans-31" x="127.246094"/>
       <use xlink:href="#DejaVuSans-34" x="190.869141"/>
      </g>
     </g>
    </g>
    <g id="xtick_4">
     <g id="line2d_4">
      <g>
       <use xlink:href="#m6b3d8849a6" x="118.169196" y="128.815" style="stroke: #000000; stroke-width: 0.8"/>
      </g>
     </g>
     <g id="text_4">
      <!-- 2016 -->
      <g transform="translate(107.989196 141.39375) scale(0.08 -0.08)">
       <defs>
        <path id="DejaVuSans-36" d="M 2113 2584 
Q 1688 2584 1439 2293 
Q 1191 2003 1191 1497 
Q 1191 994 1439 701 
Q 1688 409 2113 409 
Q 2538 409 2786 701 
Q 3034 994 3034 1497 
Q 3034 2003 2786 2293 
Q 2538 2584 2113 2584 
z
M 3366 4563 
L 3366 3988 
Q 3128 4100 2886 4159 
Q 2644 4219 2406 4219 
Q 1781 4219 1451 3797 
Q 1122 3375 1075 2522 
Q 1259 2794 1537 2939 
Q 1816 3084 2150 3084 
Q 2853 3084 3261 2657 
Q 3669 2231 3669 1497 
Q 3669 778 3244 343 
Q 2819 -91 2113 -91 
Q 1303 -91 875 529 
Q 447 1150 447 2328 
Q 447 3434 972 4092 
Q 1497 4750 2381 4750 
Q 2619 4750 2861 4703 
Q 3103 4656 3366 4563 
z
" transform="scale(0.015625)"/>
       </defs>
       <use xlink:href="#DejaVuSans-32"/>
       <use xlink:href="#DejaVuSans-30" x="63.623047"/>
       <use xlink:href="#DejaVuSans-31" x="127.246094"/>
       <use xlink:href="#DejaVuSans-36" x="190.869141"/>
      </g>
     </g>
    </g>
    <g id="xtick_5">
     <g id="line2d_5">
      <g>
       <use xlink:href="#m6b3d8849a6" x="142.002026" y="128.815" style="stroke: #000000; stroke-width: 0.8"/>
      </g>
     </g>
     <g id="text_5">
      <!-- 2018 -->
      <g transform="translate(131.822026 141.39375) scale(0.08 -0.08)">
       <defs>
        <path id="DejaVuSans-38" d="M 2034 2216 
Q 1584 2216 1326 1975 
Q 1069 1734 1069 1313 
Q 1069 891 1326 650 
Q 1584 409 2034 409 
Q 2484 409 2743 651 
Q 3003 894 3003 1313 
Q 3003 1734 2745 1975 
Q 2488 2216 2034 2216 
z
M 1403 2484 
Q 997 2584 770 2862 
Q 544 3141 544 3541 
Q 544 4100 942 4425 
Q 1341 4750 2034 4750 
Q 2731 4750 3128 4425 
Q 3525 4100 3525 3541 
Q 3525 3141 3298 2862 
Q 3072 2584 2669 2484 
Q 3125 2378 3379 2068 
Q 3634 1759 3634 1313 
Q 3634 634 3220 271 
Q 2806 -91 2034 -91 
Q 1263 -91 848 271 
Q 434 634 434 1313 
Q 434 1759 690 2068 
Q 947 2378 1403 2484 
z
M 1172 3481 
Q 1172 3119 1398 2916 
Q 1625 2713 2034 2713 
Q 2441 2713 2670 2916 
Q 2900 3119 2900 3481 
Q 2900 3844 2670 4047 
Q 2441 4250 2034 4250 
Q 1625 4250 1398 4047 
Q 1172 3844 1172 3481 
z
" transform="scale(0.015625)"/>
       </defs>
       <use xlink:href="#DejaVuSans-32"/>
       <use xlink:href="#DejaVuSans-30" x="63.623047"/>
       <use xlink:href="#DejaVuSans-31" x="127.246094"/>
       <use xlink:href="#DejaVuSans-38" x="190.869141"/>
      </g>
     </g>
    </g>
    <g id="xtick_6">
     <g id="line2d_6">
      <g>
       <use xlink:href="#m6b3d8849a6" x="165.834855" y="128.815" style="stroke: #000000; stroke-width: 0.8"/>
      </g>
     </g>
     <g id="text_6">
      <!-- 2020 -->
      <g transform="translate(155.654855 141.39375) scale(0.08 -0.08)">
       <use xlink:href="#DejaVuSans-32"/>
       <use xlink:href="#DejaVuSans-30" x="63.623047"/>
       <use xlink:href="#DejaVuSans-32" x="127.246094"/>
       <use xlink:href="#DejaVuSans-30" x="190.869141"/>
      </g>
     </g>
    </g>
    <g id="xtick_7">
     <g id="line2d_7">
      <g>
       <use xlink:href="#m6b3d8849a6" x="189.667685" y="128.815" style="stroke: #000000; stroke-width: 0.8"/>
      </g>
     </g>
     <g id="text_7">
      <!-- 2022 -->
      <g transform="translate(179.487685 141.39375) scale(0.08 -0.08)">
       <use xlink:href="#DejaVuSans-32"/>
       <use xlink:href="#DejaVuSans-30" x="63.623047"/>
       <use xlink:href="#DejaVuSans-32" x="127.246094"/>
       <use xlink:href="#DejaVuSans-32" x="190.869141"/>
      </g>
     </g>
    </g>
    <g id="xtick_8">
     <g id="line2d_8">
      <g>
       <use xlink:href="#m6b3d8849a6" x="213.500514" y="128.815" style="stroke: #000000; stroke-width: 0.8"/>
      </g>
     </g>
     <g id="text_8">
      <!-- 2024 -->
      <g transform="translate(203.320514 141.39375) scale(0.08 -0.08)">
       <use xlink:href="#DejaVuSans-32"/>
       <use xlink:href="#DejaVuSans-30" x="63.623047"/>
       <use xlink:href="#DejaVuSans-32" x="127.246094"/>
       <use xlink:href="#DejaVuSans-34" x="190.869141"/>
      </g>
     </g>
    </g>
    <g id="text_9">
     <!-- Year -->
     <g transform="translate(121.615611 153.13625) scale(0.08 -0.08)">
      <defs>
       <path id="DejaVuSans-59" d="M -13 4666 
L 666 4666 
L 1959 2747 
L 3244 4666 
L 3922 4666 
L 2272 2222 
L 2272 0 
L 1638 0 
L 1638 2222 
L -13 4666 
z
" transform="scale(0.015625)"/>
       <path id="DejaVuSans-65" d="M 3597 1894 
L 3597 1613 
L 953 1613 
Q 991 1019 1311 708 
Q 1631 397 2203 397 
Q 2534 397 2845 478 
Q 3156 559 3463 722 
L 3463 178 
Q 3153 47 2828 -22 
Q 2503 -91 2169 -91 
Q 1331 -91 842 396 
Q 353 884 353 1716 
Q 353 2575 817 3079 
Q 1281 3584 2069 3584 
Q 2775 3584 3186 3129 
Q 3597 2675 3597 1894 
z
M 3022 2063 
Q 3016 2534 2758 2815 
Q 2500 3097 2075 3097 
Q 1594 3097 1305 2825 
Q 1016 2553 972 2059 
L 3022 2063 
z
" transform="scale(0.015625)"/>
       <path id="DejaVuSans-61" d="M 2194 1759 
Q 1497 1759 1228 1600 
Q 959 1441 959 1056 
Q 959 750 1161 570 
Q 1363 391 1709 391 
Q 2188 391 2477 730 
Q 2766 1069 2766 1631 
L 2766 1759 
L 2194 1759 
z
M 3341 1997 
L 3341 0 
L 2766 0 
L 2766 531 
Q 2569 213 2275 61 
Q 1981 -91 1556 -91 
Q 1019 -91 701 211 
Q 384 513 384 1019 
Q 384 1609 779 1909 
Q 1175 2209 1959 2209 
L 2766 2209 
L 2766 2266 
Q 2766 2663 2505 2880 
Q 2244 3097 1772 3097 
Q 1472 3097 1187 3025 
Q 903 2953 641 2809 
L 641 3341 
Q 956 3463 1253 3523 
Q 1550 3584 1831 3584 
Q 2591 3584 2966 3190 
Q 3341 2797 3341 1997 
z
" transform="scale(0.015625)"/>
       <path id="DejaVuSans-72" d="M 2631 2963 
Q 2534 3019 2420 3045 
Q 2306 3072 2169 3072 
Q 1681 3072 1420 2755 
Q 1159 2438 1159 1844 
L 1159 0 
L 581 0 
L 581 3500 
L 1159 3500 
L 1159 2956 
Q 1341 3275 1631 3429 
Q 1922 3584 2338 3584 
Q 2397 3584 2469 3576 
Q 2541 3569 2628 3553 
L 2631 2963 
z
" transform="scale(0.015625)"/>
      </defs>
      <use xlink:href="#DejaVuSans-59"/>
      <use xlink:href="#DejaVuSans-65" x="47.833984"/>
      <use xlink:href="#DejaVuSans-61" x="109.357422"/>
      <use xlink:href="#DejaVuSans-72" x="170.636719"/>
     </g>
    </g>
   </g>
   <g id="matplotlib.axis_2">
    <g id="ytick_1">
     <g id="line2d_9">
      <defs>
       <path id="mcef75ec673" d="M 0 0 
L -3 0 
" style="stroke: #000000; stroke-width: 0.8"/>
      </defs>
      <g>
       <use xlink:href="#mcef75ec673" x="40.7125" y="128.815" style="stroke: #000000; stroke-width: 0.8"/>
      </g>
     </g>
     <g id="text_10">
      <!-- 0.0 -->
      <g transform="translate(21.49 131.854375) scale(0.08 -0.08)">
       <defs>
        <path id="DejaVuSans-2e" d="M 684 794 
L 1344 794 
L 1344 0 
L 684 0 
L 684 794 
z
" transform="scale(0.015625)"/>
       </defs>
       <use xlink:href="#DejaVuSans-30"/>
       <use xlink:href="#DejaVuSans-2e" x="63.623047"/>
       <use xlink:href="#DejaVuSans-30" x="95.410156"/>
      </g>
     </g>
    </g>
    <g id="ytick_2">
     <g id="line2d_10">
      <g>
       <use xlink:href="#mcef75ec673" x="40.7125" y="99.500992" style="stroke: #000000; stroke-width: 0.8"/>
      </g>
     </g>
     <g id="text_11">
      <!-- 2.0 -->
      <g transform="translate(21.49 102.540367) scale(0.08 -0.08)">
       <use xlink:href="#DejaVuSans-32"/>
       <use xlink:href="#DejaVuSans-2e" x="63.623047"/>
       <use xlink:href="#DejaVuSans-30" x="95.410156"/>
      </g>
     </g>
    </g>
    <g id="ytick_3">
     <g id="line2d_11">
      <g>
       <use xlink:href="#mcef75ec673" x="40.7125" y="70.186984" style="stroke: #000000; stroke-width: 0.8"/>
      </g>
     </g>
     <g id="text_12">
      <!-- 4.0 -->
      <g transform="translate(21.49 73.226359) scale(0.08 -0.08)">
       <use xlink:href="#DejaVuSans-34"/>
       <use xlink:href="#DejaVuSans-2e" x="63.623047"/>
       <use xlink:href="#DejaVuSans-30" x="95.410156"/>
      </g>
     </g>
    </g>
    <g id="ytick_4">
     <g id="line2d_12">
      <g>
       <use xlink:href="#mcef75ec673" x="40.7125" y="40.872976" style="stroke: #000000; stroke-width: 0.8"/>
      </g>
     </g>
     <g id="text_13">
      <!-- 6.0 -->
      <g transform="translate(21.49 43.912351) scale(0.08 -0.08)">
       <use xlink:href="#DejaVuSans-36"/>
       <use xlink:href="#DejaVuSans-2e" x="63.623047"/>
       <use xlink:href="#DejaVuSans-30" x="95.410156"/>
      </g>
     </g>
    </g>
    <g id="ytick_5">
     <g id="line2d_13">
      <g>
       <use xlink:href="#mcef75ec673" x="40.7125" y="11.558967" style="stroke: #000000; stroke-width: 0.8"/>
      </g>
     </g>
     <g id="text_14">
      <!-- 8.0 -->
      <g transform="translate(21.49 14.598342) scale(0.08 -0.08)">
       <use xlink:href="#DejaVuSans-38"/>
       <use xlink:href="#DejaVuSans-2e" x="63.623047"/>
       <use xlink:href="#DejaVuSans-30" x="95.410156"/>
      </g>
     </g>
    </g>
    <g id="text_15">
     <!-- Publications fraction ($\times 10^{-2}$) -->
     <g transform="translate(15.82625 127.407187) rotate(-90) scale(0.08 -0.08)">
      <defs>
       <path id="DejaVuSans-50" d="M 1259 4147 
L 1259 2394 
L 2053 2394 
Q 2494 2394 2734 2622 
Q 2975 2850 2975 3272 
Q 2975 3691 2734 3919 
Q 2494 4147 2053 4147 
L 1259 4147 
z
M 628 4666 
L 2053 4666 
Q 2838 4666 3239 4311 
Q 3641 3956 3641 3272 
Q 3641 2581 3239 2228 
Q 2838 1875 2053 1875 
L 1259 1875 
L 1259 0 
L 628 0 
L 628 4666 
z
" transform="scale(0.015625)"/>
       <path id="DejaVuSans-75" d="M 544 1381 
L 544 3500 
L 1119 3500 
L 1119 1403 
Q 1119 906 1312 657 
Q 1506 409 1894 409 
Q 2359 409 2629 706 
Q 2900 1003 2900 1516 
L 2900 3500 
L 3475 3500 
L 3475 0 
L 2900 0 
L 2900 538 
Q 2691 219 2414 64 
Q 2138 -91 1772 -91 
Q 1169 -91 856 284 
Q 544 659 544 1381 
z
M 1991 3584 
L 1991 3584 
z
" transform="scale(0.015625)"/>
       <path id="DejaVuSans-62" d="M 3116 1747 
Q 3116 2381 2855 2742 
Q 2594 3103 2138 3103 
Q 1681 3103 1420 2742 
Q 1159 2381 1159 1747 
Q 1159 1113 1420 752 
Q 1681 391 2138 391 
Q 2594 391 2855 752 
Q 3116 1113 3116 1747 
z
M 1159 2969 
Q 1341 3281 1617 3432 
Q 1894 3584 2278 3584 
Q 2916 3584 3314 3078 
Q 3713 2572 3713 1747 
Q 3713 922 3314 415 
Q 2916 -91 2278 -91 
Q 1894 -91 1617 61 
Q 1341 213 1159 525 
L 1159 0 
L 581 0 
L 581 4863 
L 1159 4863 
L 1159 2969 
z
" transform="scale(0.015625)"/>
       <path id="DejaVuSans-6c" d="M 603 4863 
L 1178 4863 
L 1178 0 
L 603 0 
L 603 4863 
z
" transform="scale(0.015625)"/>
       <path id="DejaVuSans-69" d="M 603 3500 
L 1178 3500 
L 1178 0 
L 603 0 
L 603 3500 
z
M 603 4863 
L 1178 4863 
L 1178 4134 
L 603 4134 
L 603 4863 
z
" transform="scale(0.015625)"/>
       <path id="DejaVuSans-63" d="M 3122 3366 
L 3122 2828 
Q 2878 2963 2633 3030 
Q 2388 3097 2138 3097 
Q 1578 3097 1268 2742 
Q 959 2388 959 1747 
Q 959 1106 1268 751 
Q 1578 397 2138 397 
Q 2388 397 2633 464 
Q 2878 531 3122 666 
L 3122 134 
Q 2881 22 2623 -34 
Q 2366 -91 2075 -91 
Q 1284 -91 818 406 
Q 353 903 353 1747 
Q 353 2603 823 3093 
Q 1294 3584 2113 3584 
Q 2378 3584 2631 3529 
Q 2884 3475 3122 3366 
z
" transform="scale(0.015625)"/>
       <path id="DejaVuSans-74" d="M 1172 4494 
L 1172 3500 
L 2356 3500 
L 2356 3053 
L 1172 3053 
L 1172 1153 
Q 1172 725 1289 603 
Q 1406 481 1766 481 
L 2356 481 
L 2356 0 
L 1766 0 
Q 1100 0 847 248 
Q 594 497 594 1153 
L 594 3053 
L 172 3053 
L 172 3500 
L 594 3500 
L 594 4494 
L 1172 4494 
z
" transform="scale(0.015625)"/>
       <path id="DejaVuSans-6f" d="M 1959 3097 
Q 1497 3097 1228 2736 
Q 959 2375 959 1747 
Q 959 1119 1226 758 
Q 1494 397 1959 397 
Q 2419 397 2687 759 
Q 2956 1122 2956 1747 
Q 2956 2369 2687 2733 
Q 2419 3097 1959 3097 
z
M 1959 3584 
Q 2709 3584 3137 3096 
Q 3566 2609 3566 1747 
Q 3566 888 3137 398 
Q 2709 -91 1959 -91 
Q 1206 -91 779 398 
Q 353 888 353 1747 
Q 353 2609 779 3096 
Q 1206 3584 1959 3584 
z
" transform="scale(0.015625)"/>
       <path id="DejaVuSans-6e" d="M 3513 2113 
L 3513 0 
L 2938 0 
L 2938 2094 
Q 2938 2591 2744 2837 
Q 2550 3084 2163 3084 
Q 1697 3084 1428 2787 
Q 1159 2491 1159 1978 
L 1159 0 
L 581 0 
L 581 3500 
L 1159 3500 
L 1159 2956 
Q 1366 3272 1645 3428 
Q 1925 3584 2291 3584 
Q 2894 3584 3203 3211 
Q 3513 2838 3513 2113 
z
" transform="scale(0.015625)"/>
       <path id="DejaVuSans-73" d="M 2834 3397 
L 2834 2853 
Q 2591 2978 2328 3040 
Q 2066 3103 1784 3103 
Q 1356 3103 1142 2972 
Q 928 2841 928 2578 
Q 928 2378 1081 2264 
Q 1234 2150 1697 2047 
L 1894 2003 
Q 2506 1872 2764 1633 
Q 3022 1394 3022 966 
Q 3022 478 2636 193 
Q 2250 -91 1575 -91 
Q 1294 -91 989 -36 
Q 684 19 347 128 
L 347 722 
Q 666 556 975 473 
Q 1284 391 1588 391 
Q 1994 391 2212 530 
Q 2431 669 2431 922 
Q 2431 1156 2273 1281 
Q 2116 1406 1581 1522 
L 1381 1569 
Q 847 1681 609 1914 
Q 372 2147 372 2553 
Q 372 3047 722 3315 
Q 1072 3584 1716 3584 
Q 2034 3584 2315 3537 
Q 2597 3491 2834 3397 
z
" transform="scale(0.015625)"/>
       <path id="DejaVuSans-20" transform="scale(0.015625)"/>
       <path id="DejaVuSans-66" d="M 2375 4863 
L 2375 4384 
L 1825 4384 
Q 1516 4384 1395 4259 
Q 1275 4134 1275 3809 
L 1275 3500 
L 2222 3500 
L 2222 3053 
L 1275 3053 
L 1275 0 
L 697 0 
L 697 3053 
L 147 3053 
L 147 3500 
L 697 3500 
L 697 3744 
Q 697 4328 969 4595 
Q 1241 4863 1831 4863 
L 2375 4863 
z
" transform="scale(0.015625)"/>
       <path id="DejaVuSans-28" d="M 1984 4856 
Q 1566 4138 1362 3434 
Q 1159 2731 1159 2009 
Q 1159 1288 1364 580 
Q 1569 -128 1984 -844 
L 1484 -844 
Q 1016 -109 783 600 
Q 550 1309 550 2009 
Q 550 2706 781 3412 
Q 1013 4119 1484 4856 
L 1984 4856 
z
" transform="scale(0.015625)"/>
       <path id="DejaVuSans-d7" d="M 4488 3438 
L 3059 2003 
L 4488 575 
L 4116 197 
L 2681 1631 
L 1247 197 
L 878 575 
L 2303 2003 
L 878 3438 
L 1247 3816 
L 2681 2381 
L 4116 3816 
L 4488 3438 
z
" transform="scale(0.015625)"/>
       <path id="DejaVuSans-2212" d="M 678 2272 
L 4684 2272 
L 4684 1741 
L 678 1741 
L 678 2272 
z
" transform="scale(0.015625)"/>
       <path id="DejaVuSans-29" d="M 513 4856 
L 1013 4856 
Q 1481 4119 1714 3412 
Q 1947 2706 1947 2009 
Q 1947 1309 1714 600 
Q 1481 -109 1013 -844 
L 513 -844 
Q 928 -128 1133 580 
Q 1338 1288 1338 2009 
Q 1338 2731 1133 3434 
Q 928 4138 513 4856 
z
" transform="scale(0.015625)"/>
      </defs>
      <use xlink:href="#DejaVuSans-50" transform="translate(0 0.765625)"/>
      <use xlink:href="#DejaVuSans-75" transform="translate(60.302734 0.765625)"/>
      <use xlink:href="#DejaVuSans-62" transform="translate(123.681641 0.765625)"/>
      <use xlink:href="#DejaVuSans-6c" transform="translate(187.158203 0.765625)"/>
      <use xlink:href="#DejaVuSans-69" transform="translate(214.941406 0.765625)"/>
      <use xlink:href="#DejaVuSans-63" transform="translate(242.724609 0.765625)"/>
      <use xlink:href="#DejaVuSans-61" transform="translate(297.705078 0.765625)"/>
      <use xlink:href="#DejaVuSans-74" transform="translate(358.984375 0.765625)"/>
      <use xlink:href="#DejaVuSans-69" transform="translate(398.193359 0.765625)"/>
      <use xlink:href="#DejaVuSans-6f" transform="translate(425.976562 0.765625)"/>
      <use xlink:href="#DejaVuSans-6e" transform="translate(487.158203 0.765625)"/>
      <use xlink:href="#DejaVuSans-73" transform="translate(550.537109 0.765625)"/>
      <use xlink:href="#DejaVuSans-20" transform="translate(602.636719 0.765625)"/>
      <use xlink:href="#DejaVuSans-66" transform="translate(634.423828 0.765625)"/>
      <use xlink:href="#DejaVuSans-72" transform="translate(669.628906 0.765625)"/>
      <use xlink:href="#DejaVuSans-61" transform="translate(710.742188 0.765625)"/>
      <use xlink:href="#DejaVuSans-63" transform="translate(772.021484 0.765625)"/>
      <use xlink:href="#DejaVuSans-74" transform="translate(827.001953 0.765625)"/>
      <use xlink:href="#DejaVuSans-69" transform="translate(866.210938 0.765625)"/>
      <use xlink:href="#DejaVuSans-6f" transform="translate(893.994141 0.765625)"/>
      <use xlink:href="#DejaVuSans-6e" transform="translate(955.175781 0.765625)"/>
      <use xlink:href="#DejaVuSans-20" transform="translate(1018.554688 0.765625)"/>
      <use xlink:href="#DejaVuSans-28" transform="translate(1050.341797 0.765625)"/>
      <use xlink:href="#DejaVuSans-d7" transform="translate(1089.355469 0.765625)"/>
      <use xlink:href="#DejaVuSans-31" transform="translate(1173.144531 0.765625)"/>
      <use xlink:href="#DejaVuSans-30" transform="translate(1236.767578 0.765625)"/>
      <use xlink:href="#DejaVuSans-2212" transform="translate(1301.347656 39.046875) scale(0.7)"/>
      <use xlink:href="#DejaVuSans-32" transform="translate(1360 39.046875) scale(0.7)"/>
      <use xlink:href="#DejaVuSans-29" transform="translate(1407.270508 0.765625)"/>
     </g>
    </g>
   </g>
   <g id="patch_48">
    <path d="M 40.7125 128.815 
L 40.7125 10.239375 
" style="fill: none; stroke: #000000; stroke-width: 0.8; stroke-linejoin: miter; stroke-linecap: square"/>
   </g>
   <g id="patch_49">
    <path d="M 40.7125 128.815 
L 219.458722 128.815 
" style="fill: none; stroke: #000000; stroke-width: 0.8; stroke-linejoin: miter; stroke-linecap: square"/>
   </g>
   <g id="legend_1">
    <g id="patch_50">
     <path d="M 47.9125 23.518125 
L 63.9125 23.518125 
L 63.9125 17.918125 
L 47.9125 17.918125 
z
"/>
    </g>
    <g id="text_16">
     <!-- Standard numerical -->
     <g transform="translate(70.3125 23.518125) scale(0.08 -0.08)">
      <defs>
       <path id="DejaVuSans-53" d="M 3425 4513 
L 3425 3897 
Q 3066 4069 2747 4153 
Q 2428 4238 2131 4238 
Q 1616 4238 1336 4038 
Q 1056 3838 1056 3469 
Q 1056 3159 1242 3001 
Q 1428 2844 1947 2747 
L 2328 2669 
Q 3034 2534 3370 2195 
Q 3706 1856 3706 1288 
Q 3706 609 3251 259 
Q 2797 -91 1919 -91 
Q 1588 -91 1214 -16 
Q 841 59 441 206 
L 441 856 
Q 825 641 1194 531 
Q 1563 422 1919 422 
Q 2459 422 2753 634 
Q 3047 847 3047 1241 
Q 3047 1584 2836 1778 
Q 2625 1972 2144 2069 
L 1759 2144 
Q 1053 2284 737 2584 
Q 422 2884 422 3419 
Q 422 4038 858 4394 
Q 1294 4750 2059 4750 
Q 2388 4750 2728 4690 
Q 3069 4631 3425 4513 
z
" transform="scale(0.015625)"/>
       <path id="DejaVuSans-64" d="M 2906 2969 
L 2906 4863 
L 3481 4863 
L 3481 0 
L 2906 0 
L 2906 525 
Q 2725 213 2448 61 
Q 2172 -91 1784 -91 
Q 1150 -91 751 415 
Q 353 922 353 1747 
Q 353 2572 751 3078 
Q 1150 3584 1784 3584 
Q 2172 3584 2448 3432 
Q 2725 3281 2906 2969 
z
M 947 1747 
Q 947 1113 1208 752 
Q 1469 391 1925 391 
Q 2381 391 2643 752 
Q 2906 1113 2906 1747 
Q 2906 2381 2643 2742 
Q 2381 3103 1925 3103 
Q 1469 3103 1208 2742 
Q 947 2381 947 1747 
z
" transform="scale(0.015625)"/>
       <path id="DejaVuSans-6d" d="M 3328 2828 
Q 3544 3216 3844 3400 
Q 4144 3584 4550 3584 
Q 5097 3584 5394 3201 
Q 5691 2819 5691 2113 
L 5691 0 
L 5113 0 
L 5113 2094 
Q 5113 2597 4934 2840 
Q 4756 3084 4391 3084 
Q 3944 3084 3684 2787 
Q 3425 2491 3425 1978 
L 3425 0 
L 2847 0 
L 2847 2094 
Q 2847 2600 2669 2842 
Q 2491 3084 2119 3084 
Q 1678 3084 1418 2786 
Q 1159 2488 1159 1978 
L 1159 0 
L 581 0 
L 581 3500 
L 1159 3500 
L 1159 2956 
Q 1356 3278 1631 3431 
Q 1906 3584 2284 3584 
Q 2666 3584 2933 3390 
Q 3200 3197 3328 2828 
z
" transform="scale(0.015625)"/>
      </defs>
      <use xlink:href="#DejaVuSans-53"/>
      <use xlink:href="#DejaVuSans-74" x="63.476562"/>
      <use xlink:href="#DejaVuSans-61" x="102.685547"/>
      <use xlink:href="#DejaVuSans-6e" x="163.964844"/>
      <use xlink:href="#DejaVuSans-64" x="227.34375"/>
      <use xlink:href="#DejaVuSans-61" x="290.820312"/>
      <use xlink:href="#DejaVuSans-72" x="352.099609"/>
      <use xlink:href="#DejaVuSans-64" x="391.462891"/>
      <use xlink:href="#DejaVuSans-20" x="454.939453"/>
      <use xlink:href="#DejaVuSans-6e" x="486.726562"/>
      <use xlink:href="#DejaVuSans-75" x="550.105469"/>
      <use xlink:href="#DejaVuSans-6d" x="613.484375"/>
      <use xlink:href="#DejaVuSans-65" x="710.896484"/>
      <use xlink:href="#DejaVuSans-72" x="772.419922"/>
      <use xlink:href="#DejaVuSans-69" x="813.533203"/>
      <use xlink:href="#DejaVuSans-63" x="841.316406"/>
      <use xlink:href="#DejaVuSans-61" x="896.296875"/>
      <use xlink:href="#DejaVuSans-6c" x="957.576172"/>
     </g>
    </g>
    <g id="patch_51">
     <path d="M 47.9125 35.260625 
L 63.9125 35.260625 
L 63.9125 29.660625 
L 47.9125 29.660625 
z
" style="fill: #2255a0; fill-opacity: 0.501961"/>
    </g>
    <g id="text_17">
     <!-- Machine learning -->
     <g transform="translate(70.3125 35.260625) scale(0.08 -0.08)">
      <defs>
       <path id="DejaVuSans-4d" d="M 628 4666 
L 1569 4666 
L 2759 1491 
L 3956 4666 
L 4897 4666 
L 4897 0 
L 4281 0 
L 4281 4097 
L 3078 897 
L 2444 897 
L 1241 4097 
L 1241 0 
L 628 0 
L 628 4666 
z
" transform="scale(0.015625)"/>
       <path id="DejaVuSans-68" d="M 3513 2113 
L 3513 0 
L 2938 0 
L 2938 2094 
Q 2938 2591 2744 2837 
Q 2550 3084 2163 3084 
Q 1697 3084 1428 2787 
Q 1159 2491 1159 1978 
L 1159 0 
L 581 0 
L 581 4863 
L 1159 4863 
L 1159 2956 
Q 1366 3272 1645 3428 
Q 1925 3584 2291 3584 
Q 2894 3584 3203 3211 
Q 3513 2838 3513 2113 
z
" transform="scale(0.015625)"/>
       <path id="DejaVuSans-67" d="M 2906 1791 
Q 2906 2416 2648 2759 
Q 2391 3103 1925 3103 
Q 1463 3103 1205 2759 
Q 947 2416 947 1791 
Q 947 1169 1205 825 
Q 1463 481 1925 481 
Q 2391 481 2648 825 
Q 2906 1169 2906 1791 
z
M 3481 434 
Q 3481 -459 3084 -895 
Q 2688 -1331 1869 -1331 
Q 1566 -1331 1297 -1286 
Q 1028 -1241 775 -1147 
L 775 -588 
Q 1028 -725 1275 -790 
Q 1522 -856 1778 -856 
Q 2344 -856 2625 -561 
Q 2906 -266 2906 331 
L 2906 616 
Q 2728 306 2450 153 
Q 2172 0 1784 0 
Q 1141 0 747 490 
Q 353 981 353 1791 
Q 353 2603 747 3093 
Q 1141 3584 1784 3584 
Q 2172 3584 2450 3431 
Q 2728 3278 2906 2969 
L 2906 3500 
L 3481 3500 
L 3481 434 
z
" transform="scale(0.015625)"/>
      </defs>
      <use xlink:href="#DejaVuSans-4d"/>
      <use xlink:href="#DejaVuSans-61" x="86.279297"/>
      <use xlink:href="#DejaVuSans-63" x="147.558594"/>
      <use xlink:href="#DejaVuSans-68" x="202.539062"/>
      <use xlink:href="#DejaVuSans-69" x="265.917969"/>
      <use xlink:href="#DejaVuSans-6e" x="293.701172"/>
      <use xlink:href="#DejaVuSans-65" x="357.080078"/>
      <use xlink:href="#DejaVuSans-20" x="418.603516"/>
      <use xlink:href="#DejaVuSans-6c" x="450.390625"/>
      <use xlink:href="#DejaVuSans-65" x="478.173828"/>
      <use xlink:href="#DejaVuSans-61" x="539.697266"/>
      <use xlink:href="#DejaVuSans-72" x="600.976562"/>
      <use xlink:href="#DejaVuSans-6e" x="640.339844"/>
      <use xlink:href="#DejaVuSans-69" x="703.71875"/>
      <use xlink:href="#DejaVuSans-6e" x="731.501953"/>
      <use xlink:href="#DejaVuSans-67" x="794.880859"/>
     </g>
    </g>
    <g id="patch_52">
     <path d="M 47.9125 47.003125 
L 63.9125 47.003125 
L 63.9125 41.403125 
L 47.9125 41.403125 
z
" style="fill: #8e8e8e"/>
    </g>
    <g id="text_18">
     <!-- Either / Both -->
     <g transform="translate(70.3125 47.003125) scale(0.08 -0.08)">
      <defs>
       <path id="DejaVuSans-45" d="M 628 4666 
L 3578 4666 
L 3578 4134 
L 1259 4134 
L 1259 2753 
L 3481 2753 
L 3481 2222 
L 1259 2222 
L 1259 531 
L 3634 531 
L 3634 0 
L 628 0 
L 628 4666 
z
" transform="scale(0.015625)"/>
       <path id="DejaVuSans-2f" d="M 1625 4666 
L 2156 4666 
L 531 -594 
L 0 -594 
L 1625 4666 
z
" transform="scale(0.015625)"/>
       <path id="DejaVuSans-42" d="M 1259 2228 
L 1259 519 
L 2272 519 
Q 2781 519 3026 730 
Q 3272 941 3272 1375 
Q 3272 1813 3026 2020 
Q 2781 2228 2272 2228 
L 1259 2228 
z
M 1259 4147 
L 1259 2741 
L 2194 2741 
Q 2656 2741 2882 2914 
Q 3109 3088 3109 3444 
Q 3109 3797 2882 3972 
Q 2656 4147 2194 4147 
L 1259 4147 
z
M 628 4666 
L 2241 4666 
Q 2963 4666 3353 4366 
Q 3744 4066 3744 3513 
Q 3744 3084 3544 2831 
Q 3344 2578 2956 2516 
Q 3422 2416 3680 2098 
Q 3938 1781 3938 1306 
Q 3938 681 3513 340 
Q 3088 0 2303 0 
L 628 0 
L 628 4666 
z
" transform="scale(0.015625)"/>
      </defs>
      <use xlink:href="#DejaVuSans-45"/>
      <use xlink:href="#DejaVuSans-69" x="63.183594"/>
      <use xlink:href="#DejaVuSans-74" x="90.966797"/>
      <use xlink:href="#DejaVuSans-68" x="130.175781"/>
      <use xlink:href="#DejaVuSans-65" x="193.554688"/>
      <use xlink:href="#DejaVuSans-72" x="255.078125"/>
      <use xlink:href="#DejaVuSans-20" x="296.191406"/>
      <use xlink:href="#DejaVuSans-2f" x="327.978516"/>
      <use xlink:href="#DejaVuSans-20" x="361.669922"/>
      <use xlink:href="#DejaVuSans-42" x="393.457031"/>
      <use xlink:href="#DejaVuSans-6f" x="462.060547"/>
      <use xlink:href="#DejaVuSans-74" x="523.242188"/>
      <use xlink:href="#DejaVuSans-68" x="562.451172"/>
     </g>
    </g>
   </g>
  </g>
  <g id="axes_2">
   <g id="patch_53">
    <path d="M 281.914252 128.815 
L 460.660473 128.815 
L 460.660473 10.239375 
L 281.914252 10.239375 
z
" style="fill: #ffffff"/>
   </g>
   <g id="patch_54">
    <path d="M 451.127341 128.815 
L 458.27719 128.815 
L 458.27719 21.018977 
L 451.127341 21.018977 
z
" clip-path="url(#pa79f4d7c30)" style="fill: #8e8e8e"/>
   </g>
   <g id="patch_55">
    <path d="M 439.210927 128.815 
L 446.360776 128.815 
L 446.360776 36.826637 
L 439.210927 36.826637 
z
" clip-path="url(#pa79f4d7c30)" style="fill: #8e8e8e"/>
   </g>
   <g id="patch_56">
    <path d="M 427.294512 128.815 
L 434.444361 128.815 
L 434.444361 55.379674 
L 427.294512 55.379674 
z
" clip-path="url(#pa79f4d7c30)" style="fill: #8e8e8e"/>
   </g>
   <g id="patch_57">
    <path d="M 415.378097 128.815 
L 422.527946 128.815 
L 422.527946 69.111964 
L 415.378097 69.111964 
z
" clip-path="url(#pa79f4d7c30)" style="fill: #8e8e8e"/>
   </g>
   <g id="patch_58">
    <path d="M 403.461682 128.815 
L 410.611531 128.815 
L 410.611531 86.997002 
L 403.461682 86.997002 
z
" clip-path="url(#pa79f4d7c30)" style="fill: #8e8e8e"/>
   </g>
   <g id="patch_59">
    <path d="M 391.545268 128.815 
L 398.695116 128.815 
L 398.695116 94.926283 
L 391.545268 94.926283 
z
" clip-path="url(#pa79f4d7c30)" style="fill: #8e8e8e"/>
   </g>
   <g id="patch_60">
    <path d="M 379.628853 128.815 
L 386.778702 128.815 
L 386.778702 105.845533 
L 379.628853 105.845533 
z
" clip-path="url(#pa79f4d7c30)" style="fill: #8e8e8e"/>
   </g>
   <g id="patch_61">
    <path d="M 367.712438 128.815 
L 374.862287 128.815 
L 374.862287 112.456019 
L 367.712438 112.456019 
z
" clip-path="url(#pa79f4d7c30)" style="fill: #8e8e8e"/>
   </g>
   <g id="patch_62">
    <path d="M 355.796023 128.815 
L 362.945872 128.815 
L 362.945872 118.701293 
L 355.796023 118.701293 
z
" clip-path="url(#pa79f4d7c30)" style="fill: #8e8e8e"/>
   </g>
   <g id="patch_63">
    <path d="M 343.879608 128.815 
L 351.029457 128.815 
L 351.029457 118.926553 
L 343.879608 118.926553 
z
" clip-path="url(#pa79f4d7c30)" style="fill: #8e8e8e"/>
   </g>
   <g id="patch_64">
    <path d="M 331.963194 128.815 
L 339.113043 128.815 
L 339.113043 117.920976 
L 331.963194 117.920976 
z
" clip-path="url(#pa79f4d7c30)" style="fill: #8e8e8e"/>
   </g>
   <g id="patch_65">
    <path d="M 320.046779 128.815 
L 327.196628 128.815 
L 327.196628 121.601033 
L 320.046779 121.601033 
z
" clip-path="url(#pa79f4d7c30)" style="fill: #8e8e8e"/>
   </g>
   <g id="patch_66">
    <path d="M 308.130364 128.815 
L 315.280213 128.815 
L 315.280213 124.49779 
L 308.130364 124.49779 
z
" clip-path="url(#pa79f4d7c30)" style="fill: #8e8e8e"/>
   </g>
   <g id="patch_67">
    <path d="M 296.213949 128.815 
L 303.363798 128.815 
L 303.363798 118.67305 
L 296.213949 118.67305 
z
" clip-path="url(#pa79f4d7c30)" style="fill: #8e8e8e"/>
   </g>
   <g id="patch_68">
    <path d="M 284.297535 128.815 
L 291.447383 128.815 
L 291.447383 118.750774 
L 284.297535 118.750774 
z
" clip-path="url(#pa79f4d7c30)" style="fill: #8e8e8e"/>
   </g>
   <g id="matplotlib.axis_3">
    <g id="xtick_9">
     <g id="line2d_14">
      <g>
       <use xlink:href="#m6b3d8849a6" x="287.872459" y="128.815" style="stroke: #000000; stroke-width: 0.8"/>
      </g>
     </g>
     <g id="text_19">
      <!-- 2010 -->
      <g transform="translate(277.692459 141.39375) scale(0.08 -0.08)">
       <use xlink:href="#DejaVuSans-32"/>
       <use xlink:href="#DejaVuSans-30" x="63.623047"/>
       <use xlink:href="#DejaVuSans-31" x="127.246094"/>
       <use xlink:href="#DejaVuSans-30" x="190.869141"/>
      </g>
     </g>
    </g>
    <g id="xtick_10">
     <g id="line2d_15">
      <g>
       <use xlink:href="#m6b3d8849a6" x="311.705289" y="128.815" style="stroke: #000000; stroke-width: 0.8"/>
      </g>
     </g>
     <g id="text_20">
      <!-- 2012 -->
      <g transform="translate(301.525289 141.39375) scale(0.08 -0.08)">
       <use xlink:href="#DejaVuSans-32"/>
       <use xlink:href="#DejaVuSans-30" x="63.623047"/>
       <use xlink:href="#DejaVuSans-31" x="127.246094"/>
       <use xlink:href="#DejaVuSans-32" x="190.869141"/>
      </g>
     </g>
    </g>
    <g id="xtick_11">
     <g id="line2d_16">
      <g>
       <use xlink:href="#m6b3d8849a6" x="335.538118" y="128.815" style="stroke: #000000; stroke-width: 0.8"/>
      </g>
     </g>
     <g id="text_21">
      <!-- 2014 -->
      <g transform="translate(325.358118 141.39375) scale(0.08 -0.08)">
       <use xlink:href="#DejaVuSans-32"/>
       <use xlink:href="#DejaVuSans-30" x="63.623047"/>
       <use xlink:href="#DejaVuSans-31" x="127.246094"/>
       <use xlink:href="#DejaVuSans-34" x="190.869141"/>
      </g>
     </g>
    </g>
    <g id="xtick_12">
     <g id="line2d_17">
      <g>
       <use xlink:href="#m6b3d8849a6" x="359.370948" y="128.815" style="stroke: #000000; stroke-width: 0.8"/>
      </g>
     </g>
     <g id="text_22">
      <!-- 2016 -->
      <g transform="translate(349.190948 141.39375) scale(0.08 -0.08)">
       <use xlink:href="#DejaVuSans-32"/>
       <use xlink:href="#DejaVuSans-30" x="63.623047"/>
       <use xlink:href="#DejaVuSans-31" x="127.246094"/>
       <use xlink:href="#DejaVuSans-36" x="190.869141"/>
      </g>
     </g>
    </g>
    <g id="xtick_13">
     <g id="line2d_18">
      <g>
       <use xlink:href="#m6b3d8849a6" x="383.203777" y="128.815" style="stroke: #000000; stroke-width: 0.8"/>
      </g>
     </g>
     <g id="text_23">
      <!-- 2018 -->
      <g transform="translate(373.023777 141.39375) scale(0.08 -0.08)">
       <use xlink:href="#DejaVuSans-32"/>
       <use xlink:href="#DejaVuSans-30" x="63.623047"/>
       <use xlink:href="#DejaVuSans-31" x="127.246094"/>
       <use xlink:href="#DejaVuSans-38" x="190.869141"/>
      </g>
     </g>
    </g>
    <g id="xtick_14">
     <g id="line2d_19">
      <g>
       <use xlink:href="#m6b3d8849a6" x="407.036607" y="128.815" style="stroke: #000000; stroke-width: 0.8"/>
      </g>
     </g>
     <g id="text_24">
      <!-- 2020 -->
      <g transform="translate(396.856607 141.39375) scale(0.08 -0.08)">
       <use xlink:href="#DejaVuSans-32"/>
       <use xlink:href="#DejaVuSans-30" x="63.623047"/>
       <use xlink:href="#DejaVuSans-32" x="127.246094"/>
       <use xlink:href="#DejaVuSans-30" x="190.869141"/>
      </g>
     </g>
    </g>
    <g id="xtick_15">
     <g id="line2d_20">
      <g>
       <use xlink:href="#m6b3d8849a6" x="430.869436" y="128.815" style="stroke: #000000; stroke-width: 0.8"/>
      </g>
     </g>
     <g id="text_25">
      <!-- 2022 -->
      <g transform="translate(420.689436 141.39375) scale(0.08 -0.08)">
       <use xlink:href="#DejaVuSans-32"/>
       <use xlink:href="#DejaVuSans-30" x="63.623047"/>
       <use xlink:href="#DejaVuSans-32" x="127.246094"/>
       <use xlink:href="#DejaVuSans-32" x="190.869141"/>
      </g>
     </g>
    </g>
    <g id="xtick_16">
     <g id="line2d_21">
      <g>
       <use xlink:href="#m6b3d8849a6" x="454.702266" y="128.815" style="stroke: #000000; stroke-width: 0.8"/>
      </g>
     </g>
     <g id="text_26">
      <!-- 2024 -->
      <g transform="translate(444.522266 141.39375) scale(0.08 -0.08)">
       <use xlink:href="#DejaVuSans-32"/>
       <use xlink:href="#DejaVuSans-30" x="63.623047"/>
       <use xlink:href="#DejaVuSans-32" x="127.246094"/>
       <use xlink:href="#DejaVuSans-34" x="190.869141"/>
      </g>
     </g>
    </g>
    <g id="text_27">
     <!-- Year -->
     <g transform="translate(362.817362 153.13625) scale(0.08 -0.08)">
      <use xlink:href="#DejaVuSans-59"/>
      <use xlink:href="#DejaVuSans-65" x="47.833984"/>
      <use xlink:href="#DejaVuSans-61" x="109.357422"/>
      <use xlink:href="#DejaVuSans-72" x="170.636719"/>
     </g>
    </g>
   </g>
   <g id="matplotlib.axis_4">
    <g id="ytick_6">
     <g id="line2d_22">
      <g>
       <use xlink:href="#mcef75ec673" x="281.914252" y="128.815" style="stroke: #000000; stroke-width: 0.8"/>
      </g>
     </g>
     <g id="text_28">
      <!-- 0.00 -->
      <g transform="translate(257.601752 131.854375) scale(0.08 -0.08)">
       <use xlink:href="#DejaVuSans-30"/>
       <use xlink:href="#DejaVuSans-2e" x="63.623047"/>
       <use xlink:href="#DejaVuSans-30" x="95.410156"/>
       <use xlink:href="#DejaVuSans-30" x="159.033203"/>
      </g>
     </g>
    </g>
    <g id="ytick_7">
     <g id="line2d_23">
      <g>
       <use xlink:href="#mcef75ec673" x="281.914252" y="99.171094" style="stroke: #000000; stroke-width: 0.8"/>
      </g>
     </g>
     <g id="text_29">
      <!-- 0.32 -->
      <g transform="translate(257.601752 102.210469) scale(0.08 -0.08)">
       <defs>
        <path id="DejaVuSans-33" d="M 2597 2516 
Q 3050 2419 3304 2112 
Q 3559 1806 3559 1356 
Q 3559 666 3084 287 
Q 2609 -91 1734 -91 
Q 1441 -91 1130 -33 
Q 819 25 488 141 
L 488 750 
Q 750 597 1062 519 
Q 1375 441 1716 441 
Q 2309 441 2620 675 
Q 2931 909 2931 1356 
Q 2931 1769 2642 2001 
Q 2353 2234 1838 2234 
L 1294 2234 
L 1294 2753 
L 1863 2753 
Q 2328 2753 2575 2939 
Q 2822 3125 2822 3475 
Q 2822 3834 2567 4026 
Q 2313 4219 1838 4219 
Q 1578 4219 1281 4162 
Q 984 4106 628 3988 
L 628 4550 
Q 988 4650 1302 4700 
Q 1616 4750 1894 4750 
Q 2613 4750 3031 4423 
Q 3450 4097 3450 3541 
Q 3450 3153 3228 2886 
Q 3006 2619 2597 2516 
z
" transform="scale(0.015625)"/>
       </defs>
       <use xlink:href="#DejaVuSans-30"/>
       <use xlink:href="#DejaVuSans-2e" x="63.623047"/>
       <use xlink:href="#DejaVuSans-33" x="95.410156"/>
       <use xlink:href="#DejaVuSans-32" x="159.033203"/>
      </g>
     </g>
    </g>
    <g id="ytick_8">
     <g id="line2d_24">
      <g>
       <use xlink:href="#mcef75ec673" x="281.914252" y="69.527187" style="stroke: #000000; stroke-width: 0.8"/>
      </g>
     </g>
     <g id="text_30">
      <!-- 0.63 -->
      <g transform="translate(257.601752 72.566562) scale(0.08 -0.08)">
       <use xlink:href="#DejaVuSans-30"/>
       <use xlink:href="#DejaVuSans-2e" x="63.623047"/>
       <use xlink:href="#DejaVuSans-36" x="95.410156"/>
       <use xlink:href="#DejaVuSans-33" x="159.033203"/>
      </g>
     </g>
    </g>
    <g id="ytick_9">
     <g id="line2d_25">
      <g>
       <use xlink:href="#mcef75ec673" x="281.914252" y="39.883281" style="stroke: #000000; stroke-width: 0.8"/>
      </g>
     </g>
     <g id="text_31">
      <!-- 0.95 -->
      <g transform="translate(257.601752 42.922656) scale(0.08 -0.08)">
       <defs>
        <path id="DejaVuSans-39" d="M 703 97 
L 703 672 
Q 941 559 1184 500 
Q 1428 441 1663 441 
Q 2288 441 2617 861 
Q 2947 1281 2994 2138 
Q 2813 1869 2534 1725 
Q 2256 1581 1919 1581 
Q 1219 1581 811 2004 
Q 403 2428 403 3163 
Q 403 3881 828 4315 
Q 1253 4750 1959 4750 
Q 2769 4750 3195 4129 
Q 3622 3509 3622 2328 
Q 3622 1225 3098 567 
Q 2575 -91 1691 -91 
Q 1453 -91 1209 -44 
Q 966 3 703 97 
z
M 1959 2075 
Q 2384 2075 2632 2365 
Q 2881 2656 2881 3163 
Q 2881 3666 2632 3958 
Q 2384 4250 1959 4250 
Q 1534 4250 1286 3958 
Q 1038 3666 1038 3163 
Q 1038 2656 1286 2365 
Q 1534 2075 1959 2075 
z
" transform="scale(0.015625)"/>
        <path id="DejaVuSans-35" d="M 691 4666 
L 3169 4666 
L 3169 4134 
L 1269 4134 
L 1269 2991 
Q 1406 3038 1543 3061 
Q 1681 3084 1819 3084 
Q 2600 3084 3056 2656 
Q 3513 2228 3513 1497 
Q 3513 744 3044 326 
Q 2575 -91 1722 -91 
Q 1428 -91 1123 -41 
Q 819 9 494 109 
L 494 744 
Q 775 591 1075 516 
Q 1375 441 1709 441 
Q 2250 441 2565 725 
Q 2881 1009 2881 1497 
Q 2881 1984 2565 2268 
Q 2250 2553 1709 2553 
Q 1456 2553 1204 2497 
Q 953 2441 691 2322 
L 691 4666 
z
" transform="scale(0.015625)"/>
       </defs>
       <use xlink:href="#DejaVuSans-30"/>
       <use xlink:href="#DejaVuSans-2e" x="63.623047"/>
       <use xlink:href="#DejaVuSans-39" x="95.410156"/>
       <use xlink:href="#DejaVuSans-35" x="159.033203"/>
      </g>
     </g>
    </g>
    <g id="ytick_10">
     <g id="line2d_26">
      <g>
       <use xlink:href="#mcef75ec673" x="281.914252" y="10.239375" style="stroke: #000000; stroke-width: 0.8"/>
      </g>
     </g>
     <g id="text_32">
      <!-- 1.26 -->
      <g transform="translate(257.601752 13.27875) scale(0.08 -0.08)">
       <use xlink:href="#DejaVuSans-31"/>
       <use xlink:href="#DejaVuSans-2e" x="63.623047"/>
       <use xlink:href="#DejaVuSans-32" x="95.410156"/>
       <use xlink:href="#DejaVuSans-36" x="159.033203"/>
      </g>
     </g>
    </g>
    <g id="text_33">
     <!-- Publications fraction ($\times 10^{-4}$) -->
     <g transform="translate(251.938002 127.407187) rotate(-90) scale(0.08 -0.08)">
      <use xlink:href="#DejaVuSans-50" transform="translate(0 0.684375)"/>
      <use xlink:href="#DejaVuSans-75" transform="translate(60.302734 0.684375)"/>
      <use xlink:href="#DejaVuSans-62" transform="translate(123.681641 0.684375)"/>
      <use xlink:href="#DejaVuSans-6c" transform="translate(187.158203 0.684375)"/>
      <use xlink:href="#DejaVuSans-69" transform="translate(214.941406 0.684375)"/>
      <use xlink:href="#DejaVuSans-63" transform="translate(242.724609 0.684375)"/>
      <use xlink:href="#DejaVuSans-61" transform="translate(297.705078 0.684375)"/>
      <use xlink:href="#DejaVuSans-74" transform="translate(358.984375 0.684375)"/>
      <use xlink:href="#DejaVuSans-69" transform="translate(398.193359 0.684375)"/>
      <use xlink:href="#DejaVuSans-6f" transform="translate(425.976562 0.684375)"/>
      <use xlink:href="#DejaVuSans-6e" transform="translate(487.158203 0.684375)"/>
      <use xlink:href="#DejaVuSans-73" transform="translate(550.537109 0.684375)"/>
      <use xlink:href="#DejaVuSans-20" transform="translate(602.636719 0.684375)"/>
      <use xlink:href="#DejaVuSans-66" transform="translate(634.423828 0.684375)"/>
      <use xlink:href="#DejaVuSans-72" transform="translate(669.628906 0.684375)"/>
      <use xlink:href="#DejaVuSans-61" transform="translate(710.742188 0.684375)"/>
      <use xlink:href="#DejaVuSans-63" transform="translate(772.021484 0.684375)"/>
      <use xlink:href="#DejaVuSans-74" transform="translate(827.001953 0.684375)"/>
      <use xlink:href="#DejaVuSans-69" transform="translate(866.210938 0.684375)"/>
      <use xlink:href="#DejaVuSans-6f" transform="translate(893.994141 0.684375)"/>
      <use xlink:href="#DejaVuSans-6e" transform="translate(955.175781 0.684375)"/>
      <use xlink:href="#DejaVuSans-20" transform="translate(1018.554688 0.684375)"/>
      <use xlink:href="#DejaVuSans-28" transform="translate(1050.341797 0.684375)"/>
      <use xlink:href="#DejaVuSans-d7" transform="translate(1089.355469 0.684375)"/>
      <use xlink:href="#DejaVuSans-31" transform="translate(1173.144531 0.684375)"/>
      <use xlink:href="#DejaVuSans-30" transform="translate(1236.767578 0.684375)"/>
      <use xlink:href="#DejaVuSans-2212" transform="translate(1301.347656 38.965625) scale(0.7)"/>
      <use xlink:href="#DejaVuSans-34" transform="translate(1360 38.965625) scale(0.7)"/>
      <use xlink:href="#DejaVuSans-29" transform="translate(1407.270508 0.684375)"/>
     </g>
    </g>
   </g>
   <g id="patch_69">
    <path d="M 281.914252 128.815 
L 281.914252 10.239375 
" style="fill: none; stroke: #000000; stroke-width: 0.8; stroke-linejoin: miter; stroke-linecap: square"/>
   </g>
   <g id="patch_70">
    <path d="M 281.914252 128.815 
L 460.660473 128.815 
" style="fill: none; stroke: #000000; stroke-width: 0.8; stroke-linejoin: miter; stroke-linecap: square"/>
   </g>
   <g id="legend_2">
    <g id="patch_71">
     <path d="M 289.114252 23.518125 
L 305.114252 23.518125 
L 305.114252 17.918125 
L 289.114252 17.918125 
z
" style="fill: #8e8e8e"/>
    </g>
    <g id="text_34">
     <!-- Wave propagation -->
     <g transform="translate(311.514252 23.518125) scale(0.08 -0.08)">
      <defs>
       <path id="DejaVuSans-57" d="M 213 4666 
L 850 4666 
L 1831 722 
L 2809 4666 
L 3519 4666 
L 4500 722 
L 5478 4666 
L 6119 4666 
L 4947 0 
L 4153 0 
L 3169 4050 
L 2175 0 
L 1381 0 
L 213 4666 
z
" transform="scale(0.015625)"/>
       <path id="DejaVuSans-76" d="M 191 3500 
L 800 3500 
L 1894 563 
L 2988 3500 
L 3597 3500 
L 2284 0 
L 1503 0 
L 191 3500 
z
" transform="scale(0.015625)"/>
       <path id="DejaVuSans-70" d="M 1159 525 
L 1159 -1331 
L 581 -1331 
L 581 3500 
L 1159 3500 
L 1159 2969 
Q 1341 3281 1617 3432 
Q 1894 3584 2278 3584 
Q 2916 3584 3314 3078 
Q 3713 2572 3713 1747 
Q 3713 922 3314 415 
Q 2916 -91 2278 -91 
Q 1894 -91 1617 61 
Q 1341 213 1159 525 
z
M 3116 1747 
Q 3116 2381 2855 2742 
Q 2594 3103 2138 3103 
Q 1681 3103 1420 2742 
Q 1159 2381 1159 1747 
Q 1159 1113 1420 752 
Q 1681 391 2138 391 
Q 2594 391 2855 752 
Q 3116 1113 3116 1747 
z
" transform="scale(0.015625)"/>
      </defs>
      <use xlink:href="#DejaVuSans-57"/>
      <use xlink:href="#DejaVuSans-61" x="92.501953"/>
      <use xlink:href="#DejaVuSans-76" x="153.78125"/>
      <use xlink:href="#DejaVuSans-65" x="212.960938"/>
      <use xlink:href="#DejaVuSans-20" x="274.484375"/>
      <use xlink:href="#DejaVuSans-70" x="306.271484"/>
      <use xlink:href="#DejaVuSans-72" x="369.748047"/>
      <use xlink:href="#DejaVuSans-6f" x="408.611328"/>
      <use xlink:href="#DejaVuSans-70" x="469.792969"/>
      <use xlink:href="#DejaVuSans-61" x="533.269531"/>
      <use xlink:href="#DejaVuSans-67" x="594.548828"/>
      <use xlink:href="#DejaVuSans-61" x="658.025391"/>
      <use xlink:href="#DejaVuSans-74" x="719.304688"/>
      <use xlink:href="#DejaVuSans-69" x="758.513672"/>
      <use xlink:href="#DejaVuSans-6f" x="786.296875"/>
      <use xlink:href="#DejaVuSans-6e" x="847.478516"/>
     </g>
    </g>
   </g>
  </g>
  <g id="axes_3">
   <g id="patch_72">
    <path d="M 40.7125 298.015 
L 219.458722 298.015 
L 219.458722 179.439375 
L 40.7125 179.439375 
z
" style="fill: #ffffff"/>
   </g>
   <g id="patch_73">
    <path d="M 48.837328 298.015 
L 95.264918 298.015 
L 95.264918 247.620359 
L 48.837328 247.620359 
z
" clip-path="url(#p8f45c7777f)"/>
   </g>
   <g id="patch_74">
    <path d="M 106.871816 298.015 
L 153.299406 298.015 
L 153.299406 258.303906 
L 106.871816 258.303906 
z
" clip-path="url(#p8f45c7777f)" style="fill: #2255a0; fill-opacity: 0.501961"/>
   </g>
   <g id="patch_75">
    <path d="M 164.906303 298.015 
L 211.333893 298.015 
L 211.333893 297.447559 
L 164.906303 297.447559 
z
" clip-path="url(#p8f45c7777f)" style="fill: #8e8e8e"/>
   </g>
   <g id="matplotlib.axis_5">
    <g id="xtick_17">
     <g id="line2d_27">
      <g>
       <use xlink:href="#m6b3d8849a6" x="72.051123" y="298.015" style="stroke: #000000; stroke-width: 0.8"/>
      </g>
     </g>
     <g id="text_35">
      <!-- TensorFlow -->
      <g transform="translate(49.985498 310.59375) scale(0.08 -0.08)">
       <defs>
        <path id="DejaVuSans-54" d="M -19 4666 
L 3928 4666 
L 3928 4134 
L 2272 4134 
L 2272 0 
L 1638 0 
L 1638 4134 
L -19 4134 
L -19 4666 
z
" transform="scale(0.015625)"/>
        <path id="DejaVuSans-46" d="M 628 4666 
L 3309 4666 
L 3309 4134 
L 1259 4134 
L 1259 2759 
L 3109 2759 
L 3109 2228 
L 1259 2228 
L 1259 0 
L 628 0 
L 628 4666 
z
" transform="scale(0.015625)"/>
        <path id="DejaVuSans-77" d="M 269 3500 
L 844 3500 
L 1563 769 
L 2278 3500 
L 2956 3500 
L 3675 769 
L 4391 3500 
L 4966 3500 
L 4050 0 
L 3372 0 
L 2619 2869 
L 1863 0 
L 1184 0 
L 269 3500 
z
" transform="scale(0.015625)"/>
       </defs>
       <use xlink:href="#DejaVuSans-54"/>
       <use xlink:href="#DejaVuSans-65" x="44.083984"/>
       <use xlink:href="#DejaVuSans-6e" x="105.607422"/>
       <use xlink:href="#DejaVuSans-73" x="168.986328"/>
       <use xlink:href="#DejaVuSans-6f" x="221.085938"/>
       <use xlink:href="#DejaVuSans-72" x="282.267578"/>
       <use xlink:href="#DejaVuSans-46" x="323.380859"/>
       <use xlink:href="#DejaVuSans-6c" x="380.900391"/>
       <use xlink:href="#DejaVuSans-6f" x="408.683594"/>
       <use xlink:href="#DejaVuSans-77" x="469.865234"/>
      </g>
     </g>
    </g>
    <g id="xtick_18">
     <g id="line2d_28">
      <g>
       <use xlink:href="#m6b3d8849a6" x="130.085611" y="298.015" style="stroke: #000000; stroke-width: 0.8"/>
      </g>
     </g>
     <g id="text_36">
      <!-- PyTorch -->
      <g transform="translate(114.806861 310.59375) scale(0.08 -0.08)">
       <defs>
        <path id="DejaVuSans-79" d="M 2059 -325 
Q 1816 -950 1584 -1140 
Q 1353 -1331 966 -1331 
L 506 -1331 
L 506 -850 
L 844 -850 
Q 1081 -850 1212 -737 
Q 1344 -625 1503 -206 
L 1606 56 
L 191 3500 
L 800 3500 
L 1894 763 
L 2988 3500 
L 3597 3500 
L 2059 -325 
z
" transform="scale(0.015625)"/>
       </defs>
       <use xlink:href="#DejaVuSans-50"/>
       <use xlink:href="#DejaVuSans-79" x="60.302734"/>
       <use xlink:href="#DejaVuSans-54" x="119.482422"/>
       <use xlink:href="#DejaVuSans-6f" x="163.566406"/>
       <use xlink:href="#DejaVuSans-72" x="224.748047"/>
       <use xlink:href="#DejaVuSans-63" x="263.611328"/>
       <use xlink:href="#DejaVuSans-68" x="318.591797"/>
      </g>
     </g>
    </g>
    <g id="xtick_19">
     <g id="line2d_29">
      <g>
       <use xlink:href="#m6b3d8849a6" x="188.120098" y="298.015" style="stroke: #000000; stroke-width: 0.8"/>
      </g>
     </g>
     <g id="text_37">
      <!-- JAX -->
      <g transform="translate(181.533848 310.59375) scale(0.08 -0.08)">
       <defs>
        <path id="DejaVuSans-4a" d="M 628 4666 
L 1259 4666 
L 1259 325 
Q 1259 -519 939 -900 
Q 619 -1281 -91 -1281 
L -331 -1281 
L -331 -750 
L -134 -750 
Q 284 -750 456 -515 
Q 628 -281 628 325 
L 628 4666 
z
" transform="scale(0.015625)"/>
        <path id="DejaVuSans-41" d="M 2188 4044 
L 1331 1722 
L 3047 1722 
L 2188 4044 
z
M 1831 4666 
L 2547 4666 
L 4325 0 
L 3669 0 
L 3244 1197 
L 1141 1197 
L 716 0 
L 50 0 
L 1831 4666 
z
" transform="scale(0.015625)"/>
        <path id="DejaVuSans-58" d="M 403 4666 
L 1081 4666 
L 2241 2931 
L 3406 4666 
L 4084 4666 
L 2584 2425 
L 4184 0 
L 3506 0 
L 2194 1984 
L 872 0 
L 191 0 
L 1856 2491 
L 403 4666 
z
" transform="scale(0.015625)"/>
       </defs>
       <use xlink:href="#DejaVuSans-4a"/>
       <use xlink:href="#DejaVuSans-41" x="27.742188"/>
       <use xlink:href="#DejaVuSans-58" x="96.150391"/>
      </g>
     </g>
    </g>
    <g id="text_38">
     <!-- Python frameworks -->
     <g transform="translate(91.324986 322.33625) scale(0.08 -0.08)">
      <defs>
       <path id="DejaVuSans-6b" d="M 581 4863 
L 1159 4863 
L 1159 1991 
L 2875 3500 
L 3609 3500 
L 1753 1863 
L 3688 0 
L 2938 0 
L 1159 1709 
L 1159 0 
L 581 0 
L 581 4863 
z
" transform="scale(0.015625)"/>
      </defs>
      <use xlink:href="#DejaVuSans-50"/>
      <use xlink:href="#DejaVuSans-79" x="60.302734"/>
      <use xlink:href="#DejaVuSans-74" x="119.482422"/>
      <use xlink:href="#DejaVuSans-68" x="158.691406"/>
      <use xlink:href="#DejaVuSans-6f" x="222.070312"/>
      <use xlink:href="#DejaVuSans-6e" x="283.251953"/>
      <use xlink:href="#DejaVuSans-20" x="346.630859"/>
      <use xlink:href="#DejaVuSans-66" x="378.417969"/>
      <use xlink:href="#DejaVuSans-72" x="413.623047"/>
      <use xlink:href="#DejaVuSans-61" x="454.736328"/>
      <use xlink:href="#DejaVuSans-6d" x="516.015625"/>
      <use xlink:href="#DejaVuSans-65" x="613.427734"/>
      <use xlink:href="#DejaVuSans-77" x="674.951172"/>
      <use xlink:href="#DejaVuSans-6f" x="756.738281"/>
      <use xlink:href="#DejaVuSans-72" x="817.919922"/>
      <use xlink:href="#DejaVuSans-6b" x="859.033203"/>
      <use xlink:href="#DejaVuSans-73" x="916.943359"/>
     </g>
    </g>
   </g>
   <g id="matplotlib.axis_6">
    <g id="ytick_11">
     <g id="line2d_30">
      <g>
       <use xlink:href="#mcef75ec673" x="40.7125" y="298.015" style="stroke: #000000; stroke-width: 0.8"/>
      </g>
     </g>
     <g id="text_39">
      <!-- 0 -->
      <g transform="translate(29.1225 301.054375) scale(0.08 -0.08)">
       <use xlink:href="#DejaVuSans-30"/>
      </g>
     </g>
    </g>
    <g id="ytick_12">
     <g id="line2d_31">
      <g>
       <use xlink:href="#mcef75ec673" x="40.7125" y="274.534678" style="stroke: #000000; stroke-width: 0.8"/>
      </g>
     </g>
     <g id="text_40">
      <!-- 20 -->
      <g transform="translate(24.0325 277.574053) scale(0.08 -0.08)">
       <use xlink:href="#DejaVuSans-32"/>
       <use xlink:href="#DejaVuSans-30" x="63.623047"/>
      </g>
     </g>
    </g>
    <g id="ytick_13">
     <g id="line2d_32">
      <g>
       <use xlink:href="#mcef75ec673" x="40.7125" y="251.054356" style="stroke: #000000; stroke-width: 0.8"/>
      </g>
     </g>
     <g id="text_41">
      <!-- 40 -->
      <g transform="translate(24.0325 254.093731) scale(0.08 -0.08)">
       <use xlink:href="#DejaVuSans-34"/>
       <use xlink:href="#DejaVuSans-30" x="63.623047"/>
      </g>
     </g>
    </g>
    <g id="ytick_14">
     <g id="line2d_33">
      <g>
       <use xlink:href="#mcef75ec673" x="40.7125" y="227.574035" style="stroke: #000000; stroke-width: 0.8"/>
      </g>
     </g>
     <g id="text_42">
      <!-- 60 -->
      <g transform="translate(24.0325 230.61341) scale(0.08 -0.08)">
       <use xlink:href="#DejaVuSans-36"/>
       <use xlink:href="#DejaVuSans-30" x="63.623047"/>
      </g>
     </g>
    </g>
    <g id="ytick_15">
     <g id="line2d_34">
      <g>
       <use xlink:href="#mcef75ec673" x="40.7125" y="204.093713" style="stroke: #000000; stroke-width: 0.8"/>
      </g>
     </g>
     <g id="text_43">
      <!-- 80 -->
      <g transform="translate(24.0325 207.133088) scale(0.08 -0.08)">
       <use xlink:href="#DejaVuSans-38"/>
       <use xlink:href="#DejaVuSans-30" x="63.623047"/>
      </g>
     </g>
    </g>
    <g id="ytick_16">
     <g id="line2d_35">
      <g>
       <use xlink:href="#mcef75ec673" x="40.7125" y="180.613391" style="stroke: #000000; stroke-width: 0.8"/>
      </g>
     </g>
     <g id="text_44">
      <!-- 100 -->
      <g transform="translate(18.9425 183.652766) scale(0.08 -0.08)">
       <use xlink:href="#DejaVuSans-31"/>
       <use xlink:href="#DejaVuSans-30" x="63.623047"/>
       <use xlink:href="#DejaVuSans-30" x="127.246094"/>
      </g>
     </g>
    </g>
    <g id="text_45">
     <!-- Average interest (%) -->
     <g transform="translate(13.27875 279.960938) rotate(-90) scale(0.08 -0.08)">
      <defs>
       <path id="DejaVuSans-25" d="M 4653 2053 
Q 4381 2053 4226 1822 
Q 4072 1591 4072 1178 
Q 4072 772 4226 539 
Q 4381 306 4653 306 
Q 4919 306 5073 539 
Q 5228 772 5228 1178 
Q 5228 1588 5073 1820 
Q 4919 2053 4653 2053 
z
M 4653 2450 
Q 5147 2450 5437 2106 
Q 5728 1763 5728 1178 
Q 5728 594 5436 251 
Q 5144 -91 4653 -91 
Q 4153 -91 3862 251 
Q 3572 594 3572 1178 
Q 3572 1766 3864 2108 
Q 4156 2450 4653 2450 
z
M 1428 4353 
Q 1159 4353 1004 4120 
Q 850 3888 850 3481 
Q 850 3069 1003 2837 
Q 1156 2606 1428 2606 
Q 1700 2606 1854 2837 
Q 2009 3069 2009 3481 
Q 2009 3884 1853 4118 
Q 1697 4353 1428 4353 
z
M 4250 4750 
L 4750 4750 
L 1831 -91 
L 1331 -91 
L 4250 4750 
z
M 1428 4750 
Q 1922 4750 2215 4408 
Q 2509 4066 2509 3481 
Q 2509 2891 2217 2550 
Q 1925 2209 1428 2209 
Q 931 2209 642 2551 
Q 353 2894 353 3481 
Q 353 4063 643 4406 
Q 934 4750 1428 4750 
z
" transform="scale(0.015625)"/>
      </defs>
      <use xlink:href="#DejaVuSans-41"/>
      <use xlink:href="#DejaVuSans-76" x="62.533203"/>
      <use xlink:href="#DejaVuSans-65" x="121.712891"/>
      <use xlink:href="#DejaVuSans-72" x="183.236328"/>
      <use xlink:href="#DejaVuSans-61" x="224.349609"/>
      <use xlink:href="#DejaVuSans-67" x="285.628906"/>
      <use xlink:href="#DejaVuSans-65" x="349.105469"/>
      <use xlink:href="#DejaVuSans-20" x="410.628906"/>
      <use xlink:href="#DejaVuSans-69" x="442.416016"/>
      <use xlink:href="#DejaVuSans-6e" x="470.199219"/>
      <use xlink:href="#DejaVuSans-74" x="533.578125"/>
      <use xlink:href="#DejaVuSans-65" x="572.787109"/>
      <use xlink:href="#DejaVuSans-72" x="634.310547"/>
      <use xlink:href="#DejaVuSans-65" x="673.173828"/>
      <use xlink:href="#DejaVuSans-73" x="734.697266"/>
      <use xlink:href="#DejaVuSans-74" x="786.796875"/>
      <use xlink:href="#DejaVuSans-20" x="826.005859"/>
      <use xlink:href="#DejaVuSans-28" x="857.792969"/>
      <use xlink:href="#DejaVuSans-25" x="896.806641"/>
      <use xlink:href="#DejaVuSans-29" x="991.826172"/>
     </g>
    </g>
   </g>
   <g id="patch_76">
    <path d="M 40.7125 298.015 
L 40.7125 179.439375 
" style="fill: none; stroke: #000000; stroke-width: 0.8; stroke-linejoin: miter; stroke-linecap: square"/>
   </g>
   <g id="patch_77">
    <path d="M 40.7125 298.015 
L 219.458722 298.015 
" style="fill: none; stroke: #000000; stroke-width: 0.8; stroke-linejoin: miter; stroke-linecap: square"/>
   </g>
   <g id="text_46">
    <!-- 42.9% -->
    <g transform="translate(59.344248 245.933129) scale(0.08 -0.08)">
     <use xlink:href="#DejaVuSans-34"/>
     <use xlink:href="#DejaVuSans-32" x="63.623047"/>
     <use xlink:href="#DejaVuSans-2e" x="127.246094"/>
     <use xlink:href="#DejaVuSans-39" x="159.033203"/>
     <use xlink:href="#DejaVuSans-25" x="222.65625"/>
    </g>
   </g>
   <g id="text_47">
    <!-- 33.8% -->
    <g transform="translate(117.378736 256.616675) scale(0.08 -0.08)">
     <use xlink:href="#DejaVuSans-33"/>
     <use xlink:href="#DejaVuSans-33" x="63.623047"/>
     <use xlink:href="#DejaVuSans-2e" x="127.246094"/>
     <use xlink:href="#DejaVuSans-38" x="159.033203"/>
     <use xlink:href="#DejaVuSans-25" x="222.65625"/>
    </g>
   </g>
   <g id="text_48">
    <!-- 0.5% -->
    <g transform="translate(177.958223 295.760329) scale(0.08 -0.08)">
     <use xlink:href="#DejaVuSans-30"/>
     <use xlink:href="#DejaVuSans-2e" x="63.623047"/>
     <use xlink:href="#DejaVuSans-35" x="95.410156"/>
     <use xlink:href="#DejaVuSans-25" x="159.033203"/>
    </g>
   </g>
  </g>
  <g id="axes_4">
   <g id="patch_78">
    <path d="M 281.914252 298.015 
L 460.660473 298.015 
L 460.660473 179.439375 
L 281.914252 179.439375 
z
" style="fill: #ffffff"/>
   </g>
   <g id="matplotlib.axis_7">
    <g id="xtick_20">
     <g id="line2d_36">
      <g>
       <use xlink:href="#m6b3d8849a6" x="281.914252" y="298.015" style="stroke: #000000; stroke-width: 0.8"/>
      </g>
     </g>
     <g id="text_49">
      <!-- 2015 -->
      <g transform="translate(271.734252 310.59375) scale(0.08 -0.08)">
       <use xlink:href="#DejaVuSans-32"/>
       <use xlink:href="#DejaVuSans-30" x="63.623047"/>
       <use xlink:href="#DejaVuSans-31" x="127.246094"/>
       <use xlink:href="#DejaVuSans-35" x="190.869141"/>
      </g>
     </g>
    </g>
    <g id="xtick_21">
     <g id="line2d_37">
      <g>
       <use xlink:href="#m6b3d8849a6" x="317.114545" y="298.015" style="stroke: #000000; stroke-width: 0.8"/>
      </g>
     </g>
     <g id="text_50">
      <!-- 2017 -->
      <g transform="translate(306.934545 310.59375) scale(0.08 -0.08)">
       <defs>
        <path id="DejaVuSans-37" d="M 525 4666 
L 3525 4666 
L 3525 4397 
L 1831 0 
L 1172 0 
L 2766 4134 
L 525 4134 
L 525 4666 
z
" transform="scale(0.015625)"/>
       </defs>
       <use xlink:href="#DejaVuSans-32"/>
       <use xlink:href="#DejaVuSans-30" x="63.623047"/>
       <use xlink:href="#DejaVuSans-31" x="127.246094"/>
       <use xlink:href="#DejaVuSans-37" x="190.869141"/>
      </g>
     </g>
    </g>
    <g id="xtick_22">
     <g id="line2d_38">
      <g>
       <use xlink:href="#m6b3d8849a6" x="352.266684" y="298.015" style="stroke: #000000; stroke-width: 0.8"/>
      </g>
     </g>
     <g id="text_51">
      <!-- 2019 -->
      <g transform="translate(342.086684 310.59375) scale(0.08 -0.08)">
       <use xlink:href="#DejaVuSans-32"/>
       <use xlink:href="#DejaVuSans-30" x="63.623047"/>
       <use xlink:href="#DejaVuSans-31" x="127.246094"/>
       <use xlink:href="#DejaVuSans-39" x="190.869141"/>
      </g>
     </g>
    </g>
    <g id="xtick_23">
     <g id="line2d_39">
      <g>
       <use xlink:href="#m6b3d8849a6" x="387.466977" y="298.015" style="stroke: #000000; stroke-width: 0.8"/>
      </g>
     </g>
     <g id="text_52">
      <!-- 2021 -->
      <g transform="translate(377.286977 310.59375) scale(0.08 -0.08)">
       <use xlink:href="#DejaVuSans-32"/>
       <use xlink:href="#DejaVuSans-30" x="63.623047"/>
       <use xlink:href="#DejaVuSans-32" x="127.246094"/>
       <use xlink:href="#DejaVuSans-31" x="190.869141"/>
      </g>
     </g>
    </g>
    <g id="xtick_24">
     <g id="line2d_40">
      <g>
       <use xlink:href="#m6b3d8849a6" x="422.619117" y="298.015" style="stroke: #000000; stroke-width: 0.8"/>
      </g>
     </g>
     <g id="text_53">
      <!-- 2023 -->
      <g transform="translate(412.439117 310.59375) scale(0.08 -0.08)">
       <use xlink:href="#DejaVuSans-32"/>
       <use xlink:href="#DejaVuSans-30" x="63.623047"/>
       <use xlink:href="#DejaVuSans-32" x="127.246094"/>
       <use xlink:href="#DejaVuSans-33" x="190.869141"/>
      </g>
     </g>
    </g>
    <g id="xtick_25">
     <g id="line2d_41">
      <g>
       <use xlink:href="#m6b3d8849a6" x="457.81941" y="298.015" style="stroke: #000000; stroke-width: 0.8"/>
      </g>
     </g>
     <g id="text_54">
      <!-- 2025 -->
      <g transform="translate(447.63941 310.59375) scale(0.08 -0.08)">
       <use xlink:href="#DejaVuSans-32"/>
       <use xlink:href="#DejaVuSans-30" x="63.623047"/>
       <use xlink:href="#DejaVuSans-32" x="127.246094"/>
       <use xlink:href="#DejaVuSans-35" x="190.869141"/>
      </g>
     </g>
    </g>
    <g id="text_55">
     <!-- Year -->
     <g transform="translate(362.817362 322.33625) scale(0.08 -0.08)">
      <use xlink:href="#DejaVuSans-59"/>
      <use xlink:href="#DejaVuSans-65" x="47.833984"/>
      <use xlink:href="#DejaVuSans-61" x="109.357422"/>
      <use xlink:href="#DejaVuSans-72" x="170.636719"/>
     </g>
    </g>
   </g>
   <g id="matplotlib.axis_8">
    <g id="ytick_17">
     <g id="line2d_42">
      <g>
       <use xlink:href="#mcef75ec673" x="281.914252" y="292.368542" style="stroke: #000000; stroke-width: 0.8"/>
      </g>
     </g>
     <g id="text_56">
      <!-- 0 -->
      <g transform="translate(270.324252 295.407917) scale(0.08 -0.08)">
       <use xlink:href="#DejaVuSans-30"/>
      </g>
     </g>
    </g>
    <g id="ytick_18">
     <g id="line2d_43">
      <g>
       <use xlink:href="#mcef75ec673" x="281.914252" y="269.782708" style="stroke: #000000; stroke-width: 0.8"/>
      </g>
     </g>
     <g id="text_57">
      <!-- 20 -->
      <g transform="translate(265.234252 272.822083) scale(0.08 -0.08)">
       <use xlink:href="#DejaVuSans-32"/>
       <use xlink:href="#DejaVuSans-30" x="63.623047"/>
      </g>
     </g>
    </g>
    <g id="ytick_19">
     <g id="line2d_44">
      <g>
       <use xlink:href="#mcef75ec673" x="281.914252" y="247.196875" style="stroke: #000000; stroke-width: 0.8"/>
      </g>
     </g>
     <g id="text_58">
      <!-- 40 -->
      <g transform="translate(265.234252 250.23625) scale(0.08 -0.08)">
       <use xlink:href="#DejaVuSans-34"/>
       <use xlink:href="#DejaVuSans-30" x="63.623047"/>
      </g>
     </g>
    </g>
    <g id="ytick_20">
     <g id="line2d_45">
      <g>
       <use xlink:href="#mcef75ec673" x="281.914252" y="224.611042" style="stroke: #000000; stroke-width: 0.8"/>
      </g>
     </g>
     <g id="text_59">
      <!-- 60 -->
      <g transform="translate(265.234252 227.650417) scale(0.08 -0.08)">
       <use xlink:href="#DejaVuSans-36"/>
       <use xlink:href="#DejaVuSans-30" x="63.623047"/>
      </g>
     </g>
    </g>
    <g id="ytick_21">
     <g id="line2d_46">
      <g>
       <use xlink:href="#mcef75ec673" x="281.914252" y="202.025208" style="stroke: #000000; stroke-width: 0.8"/>
      </g>
     </g>
     <g id="text_60">
      <!-- 80 -->
      <g transform="translate(265.234252 205.064583) scale(0.08 -0.08)">
       <use xlink:href="#DejaVuSans-38"/>
       <use xlink:href="#DejaVuSans-30" x="63.623047"/>
      </g>
     </g>
    </g>
    <g id="ytick_22">
     <g id="line2d_47">
      <g>
       <use xlink:href="#mcef75ec673" x="281.914252" y="179.439375" style="stroke: #000000; stroke-width: 0.8"/>
      </g>
     </g>
     <g id="text_61">
      <!-- 100 -->
      <g transform="translate(260.144252 182.47875) scale(0.08 -0.08)">
       <use xlink:href="#DejaVuSans-31"/>
       <use xlink:href="#DejaVuSans-30" x="63.623047"/>
       <use xlink:href="#DejaVuSans-30" x="127.246094"/>
      </g>
     </g>
    </g>
    <g id="text_62">
     <!-- Interest over time (%) -->
     <g transform="translate(254.480502 282.832188) rotate(-90) scale(0.08 -0.08)">
      <defs>
       <path id="DejaVuSans-49" d="M 628 4666 
L 1259 4666 
L 1259 0 
L 628 0 
L 628 4666 
z
" transform="scale(0.015625)"/>
      </defs>
      <use xlink:href="#DejaVuSans-49"/>
      <use xlink:href="#DejaVuSans-6e" x="29.492188"/>
      <use xlink:href="#DejaVuSans-74" x="92.871094"/>
      <use xlink:href="#DejaVuSans-65" x="132.080078"/>
      <use xlink:href="#DejaVuSans-72" x="193.603516"/>
      <use xlink:href="#DejaVuSans-65" x="232.466797"/>
      <use xlink:href="#DejaVuSans-73" x="293.990234"/>
      <use xlink:href="#DejaVuSans-74" x="346.089844"/>
      <use xlink:href="#DejaVuSans-20" x="385.298828"/>
      <use xlink:href="#DejaVuSans-6f" x="417.085938"/>
      <use xlink:href="#DejaVuSans-76" x="478.267578"/>
      <use xlink:href="#DejaVuSans-65" x="537.447266"/>
      <use xlink:href="#DejaVuSans-72" x="598.970703"/>
      <use xlink:href="#DejaVuSans-20" x="640.083984"/>
      <use xlink:href="#DejaVuSans-74" x="671.871094"/>
      <use xlink:href="#DejaVuSans-69" x="711.080078"/>
      <use xlink:href="#DejaVuSans-6d" x="738.863281"/>
      <use xlink:href="#DejaVuSans-65" x="836.275391"/>
      <use xlink:href="#DejaVuSans-20" x="897.798828"/>
      <use xlink:href="#DejaVuSans-28" x="929.585938"/>
      <use xlink:href="#DejaVuSans-25" x="968.599609"/>
      <use xlink:href="#DejaVuSans-29" x="1063.619141"/>
     </g>
    </g>
   </g>
   <g id="line2d_48">
    <path d="M 281.914252 292.368542 
L 283.407014 292.368542 
L 284.755315 292.368542 
L 286.248077 292.368542 
L 287.692686 292.368542 
L 289.185448 292.368542 
L 290.630056 292.368542 
L 292.122818 292.368542 
L 293.61558 292.368542 
L 295.060189 292.368542 
L 296.552951 274.299875 
L 297.997559 285.592792 
L 299.490321 285.592792 
L 300.983083 284.4635 
L 302.379538 282.204917 
L 303.8723 281.075625 
L 305.316909 275.429167 
L 306.809671 275.429167 
L 308.254279 276.558458 
L 309.747042 276.558458 
L 311.239804 272.041292 
L 312.684412 267.524125 
L 314.177174 261.877667 
L 315.621783 258.489792 
L 317.114545 256.231208 
L 318.607307 240.421125 
L 319.955608 234.774667 
L 321.44837 232.516083 
L 322.892979 230.2575 
L 324.385741 225.740333 
L 325.830349 229.128208 
L 327.323111 231.386792 
L 328.815873 229.128208 
L 330.260482 223.48175 
L 331.753244 220.093875 
L 333.197852 221.223167 
L 334.690615 221.223167 
L 336.183377 221.223167 
L 337.531678 209.93025 
L 339.02444 212.188833 
L 340.469048 211.059542 
L 341.96181 217.835292 
L 343.406419 218.964583 
L 344.899181 218.964583 
L 346.391943 220.093875 
L 347.836552 214.447417 
L 349.329314 215.576708 
L 350.773922 227.998917 
L 352.266684 225.740333 
L 353.759446 222.352458 
L 355.107748 215.576708 
L 356.60051 216.706 
L 358.045118 223.48175 
L 359.53788 223.48175 
L 360.982489 220.093875 
L 362.475251 229.128208 
L 363.968013 225.740333 
L 365.412621 222.352458 
L 366.905383 224.611042 
L 368.349992 232.516083 
L 369.842754 234.774667 
L 371.335516 227.998917 
L 372.731971 231.386792 
L 374.224733 230.2575 
L 375.669342 229.128208 
L 377.162104 229.128208 
L 378.606712 225.740333 
L 380.099474 235.903958 
L 381.592236 237.03325 
L 383.036845 246.067583 
L 384.529607 247.196875 
L 385.974215 248.326167 
L 387.466977 251.714042 
L 388.959739 250.58475 
L 390.308041 249.455458 
L 391.800803 249.455458 
L 393.245411 249.455458 
L 394.738173 249.455458 
L 396.182782 251.714042 
L 397.675544 255.101917 
L 399.168306 252.843333 
L 400.612914 251.714042 
L 402.105677 249.455458 
L 403.550285 251.714042 
L 405.043047 241.550417 
L 406.535809 231.386792 
L 407.88411 216.706 
L 409.376873 220.093875 
L 410.821481 221.223167 
L 412.314243 224.611042 
L 413.758852 235.903958 
L 415.251614 238.162542 
L 416.744376 234.774667 
L 418.188984 234.774667 
L 419.681746 232.516083 
L 421.126355 238.162542 
L 422.619117 238.162542 
L 424.111879 229.128208 
L 425.46018 230.2575 
L 426.952942 231.386792 
L 428.397551 232.516083 
L 429.890313 237.03325 
L 431.334921 240.421125 
L 432.827683 242.679708 
L 434.320446 244.938292 
L 435.765054 242.679708 
L 437.257816 239.291833 
L 438.702425 246.067583 
L 440.195187 246.067583 
L 441.687949 241.550417 
L 443.084404 234.774667 
L 444.577166 239.291833 
L 446.021774 238.162542 
L 447.514536 247.196875 
L 448.959145 249.455458 
L 450.451907 252.843333 
L 451.944669 253.972625 
L 453.389277 251.714042 
L 454.882039 250.58475 
L 456.326648 255.101917 
" clip-path="url(#p6986ad655d)" style="fill: none; stroke: #000000; stroke-width: 2; stroke-linecap: square"/>
   </g>
   <g id="line2d_49">
    <path d="M 281.914252 292.368542 
L 283.407014 292.368542 
L 284.755315 292.368542 
L 286.248077 292.368542 
L 287.692686 292.368542 
L 289.185448 292.368542 
L 290.630056 292.368542 
L 292.122818 292.368542 
L 293.61558 292.368542 
L 295.060189 292.368542 
L 296.552951 292.368542 
L 297.997559 292.368542 
L 299.490321 292.368542 
L 300.983083 292.368542 
L 302.379538 292.368542 
L 303.8723 292.368542 
L 305.316909 292.368542 
L 306.809671 292.368542 
L 308.254279 292.368542 
L 309.747042 292.368542 
L 311.239804 292.368542 
L 312.684412 292.368542 
L 314.177174 292.368542 
L 315.621783 292.368542 
L 317.114545 292.368542 
L 318.607307 292.368542 
L 319.955608 292.368542 
L 321.44837 292.368542 
L 322.892979 292.368542 
L 324.385741 292.368542 
L 325.830349 292.368542 
L 327.323111 292.368542 
L 328.815873 292.368542 
L 330.260482 292.368542 
L 331.753244 290.109958 
L 333.197852 283.334208 
L 334.690615 279.946333 
L 336.183377 278.817042 
L 337.531678 275.429167 
L 339.02444 274.299875 
L 340.469048 272.041292 
L 341.96181 273.170583 
L 343.406419 272.041292 
L 344.899181 270.912 
L 346.391943 270.912 
L 347.836552 265.265542 
L 349.329314 263.006958 
L 350.773922 265.265542 
L 352.266684 266.394833 
L 353.759446 263.006958 
L 355.107748 259.619083 
L 356.60051 257.3605 
L 358.045118 260.748375 
L 359.53788 258.489792 
L 360.982489 255.101917 
L 362.475251 256.231208 
L 363.968013 257.3605 
L 365.412621 255.101917 
L 366.905383 249.455458 
L 368.349992 255.101917 
L 369.842754 258.489792 
L 371.335516 250.58475 
L 372.731971 250.58475 
L 374.224733 248.326167 
L 375.669342 247.196875 
L 377.162104 246.067583 
L 378.606712 242.679708 
L 380.099474 246.067583 
L 381.592236 249.455458 
L 383.036845 257.3605 
L 384.529607 252.843333 
L 385.974215 257.3605 
L 387.466977 259.619083 
L 388.959739 258.489792 
L 390.308041 252.843333 
L 391.800803 249.455458 
L 393.245411 251.714042 
L 394.738173 252.843333 
L 396.182782 253.972625 
L 397.675544 256.231208 
L 399.168306 253.972625 
L 400.612914 249.455458 
L 402.105677 244.938292 
L 403.550285 248.326167 
L 405.043047 239.291833 
L 406.535809 227.998917 
L 407.88411 218.964583 
L 409.376873 213.318125 
L 410.821481 223.48175 
L 412.314243 225.740333 
L 413.758852 230.2575 
L 415.251614 233.645375 
L 416.744376 232.516083 
L 418.188984 229.128208 
L 419.681746 227.998917 
L 421.126355 229.128208 
L 422.619117 231.386792 
L 424.111879 217.835292 
L 425.46018 212.188833 
L 426.952942 216.706 
L 428.397551 221.223167 
L 429.890313 217.835292 
L 431.334921 203.1545 
L 432.827683 192.990875 
L 434.320446 199.766625 
L 435.765054 190.732292 
L 437.257816 188.473708 
L 438.702425 203.1545 
L 440.195187 200.895917 
L 441.687949 191.861583 
L 443.084404 186.215125 
L 444.577166 179.439375 
L 446.021774 190.732292 
L 447.514536 202.025208 
L 448.959145 196.37875 
L 450.451907 205.413083 
L 451.944669 206.542375 
L 453.389277 203.1545 
L 454.882039 197.508042 
L 456.326648 205.413083 
" clip-path="url(#p6986ad655d)" style="fill: none; stroke: #2255a0; stroke-opacity: 0.501961; stroke-width: 2; stroke-linecap: square"/>
   </g>
   <g id="line2d_50">
    <path d="M 281.914252 292.368542 
L 283.407014 292.368542 
L 284.755315 292.368542 
L 286.248077 292.368542 
L 287.692686 292.368542 
L 289.185448 292.368542 
L 290.630056 292.368542 
L 292.122818 292.368542 
L 293.61558 292.368542 
L 295.060189 292.368542 
L 296.552951 292.368542 
L 297.997559 292.368542 
L 299.490321 292.368542 
L 300.983083 292.368542 
L 302.379538 292.368542 
L 303.8723 292.368542 
L 305.316909 292.368542 
L 306.809671 292.368542 
L 308.254279 292.368542 
L 309.747042 292.368542 
L 311.239804 292.368542 
L 312.684412 292.368542 
L 314.177174 292.368542 
L 315.621783 292.368542 
L 317.114545 292.368542 
L 318.607307 292.368542 
L 319.955608 292.368542 
L 321.44837 292.368542 
L 322.892979 292.368542 
L 324.385741 292.368542 
L 325.830349 292.368542 
L 327.323111 292.368542 
L 328.815873 292.368542 
L 330.260482 292.368542 
L 331.753244 292.368542 
L 333.197852 292.368542 
L 334.690615 292.368542 
L 336.183377 292.368542 
L 337.531678 292.368542 
L 339.02444 292.368542 
L 340.469048 292.368542 
L 341.96181 292.368542 
L 343.406419 292.368542 
L 344.899181 292.368542 
L 346.391943 292.368542 
L 347.836552 292.368542 
L 349.329314 292.368542 
L 350.773922 292.368542 
L 352.266684 292.368542 
L 353.759446 292.368542 
L 355.107748 292.368542 
L 356.60051 292.368542 
L 358.045118 292.368542 
L 359.53788 292.368542 
L 360.982489 292.368542 
L 362.475251 292.368542 
L 363.968013 292.368542 
L 365.412621 292.368542 
L 366.905383 292.368542 
L 368.349992 292.368542 
L 369.842754 292.368542 
L 371.335516 292.368542 
L 372.731971 292.368542 
L 374.224733 292.368542 
L 375.669342 292.368542 
L 377.162104 292.368542 
L 378.606712 292.368542 
L 380.099474 292.368542 
L 381.592236 292.368542 
L 383.036845 292.368542 
L 384.529607 292.368542 
L 385.974215 292.368542 
L 387.466977 292.368542 
L 388.959739 292.368542 
L 390.308041 292.368542 
L 391.800803 292.368542 
L 393.245411 292.368542 
L 394.738173 292.368542 
L 396.182782 292.368542 
L 397.675544 292.368542 
L 399.168306 292.368542 
L 400.612914 292.368542 
L 402.105677 292.368542 
L 403.550285 292.368542 
L 405.043047 292.368542 
L 406.535809 292.368542 
L 407.88411 292.368542 
L 409.376873 292.368542 
L 410.821481 292.368542 
L 412.314243 292.368542 
L 413.758852 292.368542 
L 415.251614 292.368542 
L 416.744376 292.368542 
L 418.188984 291.23925 
L 419.681746 291.23925 
L 421.126355 291.23925 
L 422.619117 291.23925 
L 424.111879 291.23925 
L 425.46018 291.23925 
L 426.952942 292.368542 
L 428.397551 292.368542 
L 429.890313 292.368542 
L 431.334921 292.368542 
L 432.827683 292.368542 
L 434.320446 292.368542 
L 435.765054 292.368542 
L 437.257816 292.368542 
L 438.702425 291.23925 
L 440.195187 291.23925 
L 441.687949 290.109958 
L 443.084404 286.722083 
L 444.577166 286.722083 
L 446.021774 287.851375 
L 447.514536 286.722083 
L 448.959145 287.851375 
L 450.451907 286.722083 
L 451.944669 286.722083 
L 453.389277 285.592792 
L 454.882039 286.722083 
L 456.326648 287.851375 
" clip-path="url(#p6986ad655d)" style="fill: none; stroke: #8e8e8e; stroke-width: 2; stroke-linecap: square"/>
   </g>
   <g id="patch_79">
    <path d="M 281.914252 298.015 
L 281.914252 179.439375 
" style="fill: none; stroke: #000000; stroke-width: 0.8; stroke-linejoin: miter; stroke-linecap: square"/>
   </g>
   <g id="patch_80">
    <path d="M 281.914252 298.015 
L 460.660473 298.015 
" style="fill: none; stroke: #000000; stroke-width: 0.8; stroke-linejoin: miter; stroke-linecap: square"/>
   </g>
   <g id="legend_3">
    <g id="line2d_51">
     <path d="M 289.114252 189.918125 
L 297.114252 189.918125 
L 305.114252 189.918125 
" style="fill: none; stroke: #000000; stroke-width: 2; stroke-linecap: square"/>
    </g>
    <g id="text_63">
     <!-- TensorFlow -->
     <g transform="translate(311.514252 192.718125) scale(0.08 -0.08)">
      <use xlink:href="#DejaVuSans-54"/>
      <use xlink:href="#DejaVuSans-65" x="44.083984"/>
      <use xlink:href="#DejaVuSans-6e" x="105.607422"/>
      <use xlink:href="#DejaVuSans-73" x="168.986328"/>
      <use xlink:href="#DejaVuSans-6f" x="221.085938"/>
      <use xlink:href="#DejaVuSans-72" x="282.267578"/>
      <use xlink:href="#DejaVuSans-46" x="323.380859"/>
      <use xlink:href="#DejaVuSans-6c" x="380.900391"/>
      <use xlink:href="#DejaVuSans-6f" x="408.683594"/>
      <use xlink:href="#DejaVuSans-77" x="469.865234"/>
     </g>
    </g>
    <g id="line2d_52">
     <path d="M 289.114252 201.660625 
L 297.114252 201.660625 
L 305.114252 201.660625 
" style="fill: none; stroke: #2255a0; stroke-opacity: 0.501961; stroke-width: 2; stroke-linecap: square"/>
    </g>
    <g id="text_64">
     <!-- PyTorch -->
     <g transform="translate(311.514252 204.460625) scale(0.08 -0.08)">
      <use xlink:href="#DejaVuSans-50"/>
      <use xlink:href="#DejaVuSans-79" x="60.302734"/>
      <use xlink:href="#DejaVuSans-54" x="119.482422"/>
      <use xlink:href="#DejaVuSans-6f" x="163.566406"/>
      <use xlink:href="#DejaVuSans-72" x="224.748047"/>
      <use xlink:href="#DejaVuSans-63" x="263.611328"/>
      <use xlink:href="#DejaVuSans-68" x="318.591797"/>
     </g>
    </g>
    <g id="line2d_53">
     <path d="M 289.114252 213.403125 
L 297.114252 213.403125 
L 305.114252 213.403125 
" style="fill: none; stroke: #8e8e8e; stroke-width: 2; stroke-linecap: square"/>
    </g>
    <g id="text_65">
     <!-- JAX -->
     <g transform="translate(311.514252 216.203125) scale(0.08 -0.08)">
      <use xlink:href="#DejaVuSans-4a"/>
      <use xlink:href="#DejaVuSans-41" x="27.742188"/>
      <use xlink:href="#DejaVuSans-58" x="96.150391"/>
     </g>
    </g>
   </g>
  </g>
 </g>
 <defs>
  <clipPath id="p9322f6545c">
   <rect x="40.7125" y="10.239375" width="178.746222" height="118.575625"/>
  </clipPath>
  <clipPath id="pa79f4d7c30">
   <rect x="281.914252" y="10.239375" width="178.746222" height="118.575625"/>
  </clipPath>
  <clipPath id="p8f45c7777f">
   <rect x="40.7125" y="179.439375" width="178.746222" height="118.575625"/>
  </clipPath>
  <clipPath id="p6986ad655d">
   <rect x="281.914252" y="179.439375" width="178.746222" height="118.575625"/>
  </clipPath>
 </defs>
</svg>
