<?xml version="1.0" encoding="utf-8" standalone="no"?>
<!DOCTYPE svg PUBLIC "-//W3C//DTD SVG 1.1//EN"
  "http://www.w3.org/Graphics/SVG/1.1/DTD/svg11.dtd">
<svg xmlns:xlink="http://www.w3.org/1999/xlink" width="467.999301pt" height="316.8pt" viewBox="0 0 467.999301 316.8" xmlns="http://www.w3.org/2000/svg" version="1.1">
 <metadata>
  <rdf:RDF xmlns:dc="http://purl.org/dc/elements/1.1/" xmlns:cc="http://creativecommons.org/ns#" xmlns:rdf="http://www.w3.org/1999/02/22-rdf-syntax-ns#">
   <cc:Work>
    <dc:type rdf:resource="http://purl.org/dc/dcmitype/StillImage"/>
    <dc:date>2026-05-13T15:05:49.385665</dc:date>
    <dc:format>image/svg+xml</dc:format>
    <dc:creator>
     <cc:Agent>
      <dc:title>Matplotlib v3.8.4, https://matplotlib.org/</dc:title>
     </cc:Agent>
    </dc:creator>
   </cc:Work>
  </rdf:RDF>
 </metadata>
 <defs>
  <style type="text/css">*{stroke-linejoin: round; stroke-linecap: butt}</style>
 </defs>
 <g id="figure_1">
  <g id="patch_1">
   <path d="M 0 316.8 
L 467.999301 316.8 
L 467.999301 0 
L 0 0 
z
" style="fill: #ffffff"/>
  </g>
  <g id="axes_1">
   <g id="patch_2">
    <path d="M 41.0325 125.20625 
L 219.327445 125.20625 
L 219.327445 10.239375 
L 41.0325 10.239375 
z
" style="fill: #ffffff"/>
   </g>
   <g id="patch_3">
    <path d="M 208.926906 125.20625 
L 211.898489 125.20625 
L 211.898489 110.129937 
L 208.926906 110.129937 
z
" clip-path="url(#p9b678e3ca2)"/>
   </g>
   <g id="patch_4">
    <path d="M 197.040577 125.20625 
L 200.012159 125.20625 
L 200.012159 110.488343 
L 197.040577 110.488343 
z
" clip-path="url(#p9b678e3ca2)"/>
   </g>
   <g id="patch_5">
    <path d="M 185.154247 125.20625 
L 188.125829 125.20625 
L 188.125829 110.742238 
L 185.154247 110.742238 
z
" clip-path="url(#p9b678e3ca2)"/>
   </g>
   <g id="patch_6">
    <path d="M 173.267917 125.20625 
L 176.2395 125.20625 
L 176.2395 111.376464 
L 173.267917 111.376464 
z
" clip-path="url(#p9b678e3ca2)"/>
   </g>
   <g id="patch_7">
    <path d="M 161.381588 125.20625 
L 164.35317 125.20625 
L 164.35317 111.499409 
L 161.381588 111.499409 
z
" clip-path="url(#p9b678e3ca2)"/>
   </g>
   <g id="patch_8">
    <path d="M 149.495258 125.20625 
L 152.46684 125.20625 
L 152.46684 110.699277 
L 149.495258 110.699277 
z
" clip-path="url(#p9b678e3ca2)"/>
   </g>
   <g id="patch_9">
    <path d="M 137.608928 125.20625 
L 140.580511 125.20625 
L 140.580511 110.927144 
L 137.608928 110.927144 
z
" clip-path="url(#p9b678e3ca2)"/>
   </g>
   <g id="patch_10">
    <path d="M 125.722599 125.20625 
L 128.694181 125.20625 
L 128.694181 111.289834 
L 125.722599 111.289834 
z
" clip-path="url(#p9b678e3ca2)"/>
   </g>
   <g id="patch_11">
    <path d="M 113.836269 125.20625 
L 116.807851 125.20625 
L 116.807851 111.915032 
L 113.836269 111.915032 
z
" clip-path="url(#p9b678e3ca2)"/>
   </g>
   <g id="patch_12">
    <path d="M 101.949939 125.20625 
L 104.921522 125.20625 
L 104.921522 112.058654 
L 101.949939 112.058654 
z
" clip-path="url(#p9b678e3ca2)"/>
   </g>
   <g id="patch_13">
    <path d="M 90.06361 125.20625 
L 93.035192 125.20625 
L 93.035192 111.105496 
L 90.06361 111.105496 
z
" clip-path="url(#p9b678e3ca2)"/>
   </g>
   <g id="patch_14">
    <path d="M 78.17728 125.20625 
L 81.148863 125.20625 
L 81.148863 111.819606 
L 78.17728 111.819606 
z
" clip-path="url(#p9b678e3ca2)"/>
   </g>
   <g id="patch_15">
    <path d="M 66.29095 125.20625 
L 69.262533 125.20625 
L 69.262533 111.66768 
L 66.29095 111.66768 
z
" clip-path="url(#p9b678e3ca2)"/>
   </g>
   <g id="patch_16">
    <path d="M 54.404621 125.20625 
L 57.376203 125.20625 
L 57.376203 111.884609 
L 54.404621 111.884609 
z
" clip-path="url(#p9b678e3ca2)"/>
   </g>
   <g id="patch_17">
    <path d="M 42.518291 125.20625 
L 45.489874 125.20625 
L 45.489874 112.549017 
L 42.518291 112.549017 
z
" clip-path="url(#p9b678e3ca2)"/>
   </g>
   <g id="patch_18">
    <path d="M 211.898489 125.20625 
L 214.870071 125.20625 
L 214.870071 43.491117 
L 211.898489 43.491117 
z
" clip-path="url(#p9b678e3ca2)" style="fill: #2255a0; fill-opacity: 0.501961"/>
   </g>
   <g id="patch_19">
    <path d="M 200.012159 125.20625 
L 202.983741 125.20625 
L 202.983741 59.046601 
L 200.012159 59.046601 
z
" clip-path="url(#p9b678e3ca2)" style="fill: #2255a0; fill-opacity: 0.501961"/>
   </g>
   <g id="patch_20">
    <path d="M 188.125829 125.20625 
L 191.097412 125.20625 
L 191.097412 70.414751 
L 188.125829 70.414751 
z
" clip-path="url(#p9b678e3ca2)" style="fill: #2255a0; fill-opacity: 0.501961"/>
   </g>
   <g id="patch_21">
    <path d="M 176.2395 125.20625 
L 179.211082 125.20625 
L 179.211082 82.332668 
L 176.2395 82.332668 
z
" clip-path="url(#p9b678e3ca2)" style="fill: #2255a0; fill-opacity: 0.501961"/>
   </g>
   <g id="patch_22">
    <path d="M 164.35317 125.20625 
L 167.324752 125.20625 
L 167.324752 91.168211 
L 164.35317 91.168211 
z
" clip-path="url(#p9b678e3ca2)" style="fill: #2255a0; fill-opacity: 0.501961"/>
   </g>
   <g id="patch_23">
    <path d="M 152.46684 125.20625 
L 155.438423 125.20625 
L 155.438423 98.256452 
L 152.46684 98.256452 
z
" clip-path="url(#p9b678e3ca2)" style="fill: #2255a0; fill-opacity: 0.501961"/>
   </g>
   <g id="patch_24">
    <path d="M 140.580511 125.20625 
L 143.552093 125.20625 
L 143.552093 106.888977 
L 140.580511 106.888977 
z
" clip-path="url(#p9b678e3ca2)" style="fill: #2255a0; fill-opacity: 0.501961"/>
   </g>
   <g id="patch_25">
    <path d="M 128.694181 125.20625 
L 131.665763 125.20625 
L 131.665763 112.399013 
L 128.694181 112.399013 
z
" clip-path="url(#p9b678e3ca2)" style="fill: #2255a0; fill-opacity: 0.501961"/>
   </g>
   <g id="patch_26">
    <path d="M 116.807851 125.20625 
L 119.779434 125.20625 
L 119.779434 115.746475 
L 116.807851 115.746475 
z
" clip-path="url(#p9b678e3ca2)" style="fill: #2255a0; fill-opacity: 0.501961"/>
   </g>
   <g id="patch_27">
    <path d="M 104.921522 125.20625 
L 107.893104 125.20625 
L 107.893104 117.458067 
L 104.921522 117.458067 
z
" clip-path="url(#p9b678e3ca2)" style="fill: #2255a0; fill-opacity: 0.501961"/>
   </g>
   <g id="patch_28">
    <path d="M 93.035192 125.20625 
L 96.006775 125.20625 
L 96.006775 117.887404 
L 93.035192 117.887404 
z
" clip-path="url(#p9b678e3ca2)" style="fill: #2255a0; fill-opacity: 0.501961"/>
   </g>
   <g id="patch_29">
    <path d="M 81.148863 125.20625 
L 84.120445 125.20625 
L 84.120445 118.382645 
L 81.148863 118.382645 
z
" clip-path="url(#p9b678e3ca2)" style="fill: #2255a0; fill-opacity: 0.501961"/>
   </g>
   <g id="patch_30">
    <path d="M 69.262533 125.20625 
L 72.234115 125.20625 
L 72.234115 118.3146 
L 69.262533 118.3146 
z
" clip-path="url(#p9b678e3ca2)" style="fill: #2255a0; fill-opacity: 0.501961"/>
   </g>
   <g id="patch_31">
    <path d="M 57.376203 125.20625 
L 60.347786 125.20625 
L 60.347786 117.87731 
L 57.376203 117.87731 
z
" clip-path="url(#p9b678e3ca2)" style="fill: #2255a0; fill-opacity: 0.501961"/>
   </g>
   <g id="patch_32">
    <path d="M 45.489874 125.20625 
L 48.461456 125.20625 
L 48.461456 117.735437 
L 45.489874 117.735437 
z
" clip-path="url(#p9b678e3ca2)" style="fill: #2255a0; fill-opacity: 0.501961"/>
   </g>
   <g id="patch_33">
    <path d="M 214.870071 125.20625 
L 217.841653 125.20625 
L 217.841653 29.400521 
L 214.870071 29.400521 
z
" clip-path="url(#p9b678e3ca2)" style="fill: #8e8e8e"/>
   </g>
   <g id="patch_34">
    <path d="M 202.983741 125.20625 
L 205.955324 125.20625 
L 205.955324 45.112808 
L 202.983741 45.112808 
z
" clip-path="url(#p9b678e3ca2)" style="fill: #8e8e8e"/>
   </g>
   <g id="patch_35">
    <path d="M 191.097412 125.20625 
L 194.068994 125.20625 
L 194.068994 56.547813 
L 191.097412 56.547813 
z
" clip-path="url(#p9b678e3ca2)" style="fill: #8e8e8e"/>
   </g>
   <g id="patch_36">
    <path d="M 179.211082 125.20625 
L 182.182664 125.20625 
L 182.182664 68.946983 
L 179.211082 68.946983 
z
" clip-path="url(#p9b678e3ca2)" style="fill: #8e8e8e"/>
   </g>
   <g id="patch_37">
    <path d="M 167.324752 125.20625 
L 170.296335 125.20625 
L 170.296335 77.788498 
L 167.324752 77.788498 
z
" clip-path="url(#p9b678e3ca2)" style="fill: #8e8e8e"/>
   </g>
   <g id="patch_38">
    <path d="M 155.438423 125.20625 
L 158.410005 125.20625 
L 158.410005 83.984744 
L 155.438423 83.984744 
z
" clip-path="url(#p9b678e3ca2)" style="fill: #8e8e8e"/>
   </g>
   <g id="patch_39">
    <path d="M 143.552093 125.20625 
L 146.523676 125.20625 
L 146.523676 92.77361 
L 143.552093 92.77361 
z
" clip-path="url(#p9b678e3ca2)" style="fill: #8e8e8e"/>
   </g>
   <g id="patch_40">
    <path d="M 131.665763 125.20625 
L 134.637346 125.20625 
L 134.637346 98.60333 
L 131.665763 98.60333 
z
" clip-path="url(#p9b678e3ca2)" style="fill: #8e8e8e"/>
   </g>
   <g id="patch_41">
    <path d="M 119.779434 125.20625 
L 122.751016 125.20625 
L 122.751016 102.561937 
L 119.779434 102.561937 
z
" clip-path="url(#p9b678e3ca2)" style="fill: #8e8e8e"/>
   </g>
   <g id="patch_42">
    <path d="M 107.893104 125.20625 
L 110.864687 125.20625 
L 110.864687 104.396042 
L 107.893104 104.396042 
z
" clip-path="url(#p9b678e3ca2)" style="fill: #8e8e8e"/>
   </g>
   <g id="patch_43">
    <path d="M 96.006775 125.20625 
L 98.978357 125.20625 
L 98.978357 103.907696 
L 96.006775 103.907696 
z
" clip-path="url(#p9b678e3ca2)" style="fill: #8e8e8e"/>
   </g>
   <g id="patch_44">
    <path d="M 84.120445 125.20625 
L 87.092027 125.20625 
L 87.092027 105.123198 
L 84.120445 105.123198 
z
" clip-path="url(#p9b678e3ca2)" style="fill: #8e8e8e"/>
   </g>
   <g id="patch_45">
    <path d="M 72.234115 125.20625 
L 75.205698 125.20625 
L 75.205698 104.878043 
L 72.234115 104.878043 
z
" clip-path="url(#p9b678e3ca2)" style="fill: #8e8e8e"/>
   </g>
   <g id="patch_46">
    <path d="M 60.347786 125.20625 
L 63.319368 125.20625 
L 63.319368 104.676857 
L 60.347786 104.676857 
z
" clip-path="url(#p9b678e3ca2)" style="fill: #8e8e8e"/>
   </g>
   <g id="patch_47">
    <path d="M 48.461456 125.20625 
L 51.433038 125.20625 
L 51.433038 105.197783 
L 48.461456 105.197783 
z
" clip-path="url(#p9b678e3ca2)" style="fill: #8e8e8e"/>
   </g>
   <g id="matplotlib.axis_1">
    <g id="xtick_1">
     <g id="line2d_1">
      <defs>
       <path id="me109a2466c" d="M 0 0 
L 0 3 
" style="stroke: #000000; stroke-width: 0.8"/>
      </defs>
      <g>
       <use xlink:href="#me109a2466c" x="46.975665" y="125.20625" style="stroke: #000000; stroke-width: 0.8"/>
      </g>
     </g>
     <g id="text_1">
      <!-- 2010 -->
      <g transform="translate(36.795665 137.785) scale(0.08 -0.08)">
       <defs>
        <path id="DejaVuSans-32" d="M 1228 531 
L 3431 531 
L 3431 0 
L 469 0 
L 469 531 
Q 828 903 1448 1529 
Q 2069 2156 2228 2338 
Q 2531 2678 2651 2914 
Q 2772 3150 2772 3378 
Q 2772 3750 2511 3984 
Q 2250 4219 1831 4219 
Q 1534 4219 1204 4116 
Q 875 4013 500 3803 
L 500 4441 
Q 881 4594 1212 4672 
Q 1544 4750 1819 4750 
Q 2544 4750 2975 4387 
Q 3406 4025 3406 3419 
Q 3406 3131 3298 2873 
Q 3191 2616 2906 2266 
Q 2828 2175 2409 1742 
Q 1991 1309 1228 531 
z
" transform="scale(0.015625)"/>
        <path id="DejaVuSans-30" d="M 2034 4250 
Q 1547 4250 1301 3770 
Q 1056 3291 1056 2328 
Q 1056 1369 1301 889 
Q 1547 409 2034 409 
Q 2525 409 2770 889 
Q 3016 1369 3016 2328 
Q 3016 3291 2770 3770 
Q 2525 4250 2034 4250 
z
M 2034 4750 
Q 2819 4750 3233 4129 
Q 3647 3509 3647 2328 
Q 3647 1150 3233 529 
Q 2819 -91 2034 -91 
Q 1250 -91 836 529 
Q 422 1150 422 2328 
Q 422 3509 836 4129 
Q 1250 4750 2034 4750 
z
" transform="scale(0.015625)"/>
        <path id="DejaVuSans-31" d="M 794 531 
L 1825 531 
L 1825 4091 
L 703 3866 
L 703 4441 
L 1819 4666 
L 2450 4666 
L 2450 531 
L 3481 531 
L 3481 0 
L 794 0 
L 794 531 
z
" transform="scale(0.015625)"/>
       </defs>
       <use xlink:href="#DejaVuSans-32"/>
       <use xlink:href="#DejaVuSans-30" x="63.623047"/>
       <use xlink:href="#DejaVuSans-31" x="127.246094"/>
       <use xlink:href="#DejaVuSans-30" x="190.869141"/>
      </g>
     </g>
    </g>
    <g id="xtick_2">
     <g id="line2d_2">
      <g>
       <use xlink:href="#me109a2466c" x="70.748324" y="125.20625" style="stroke: #000000; stroke-width: 0.8"/>
      </g>
     </g>
     <g id="text_2">
      <!-- 2012 -->
      <g transform="translate(60.568324 137.785) scale(0.08 -0.08)">
       <use xlink:href="#DejaVuSans-32"/>
       <use xlink:href="#DejaVuSans-30" x="63.623047"/>
       <use xlink:href="#DejaVuSans-31" x="127.246094"/>
       <use xlink:href="#DejaVuSans-32" x="190.869141"/>
      </g>
     </g>
    </g>
    <g id="xtick_3">
     <g id="line2d_3">
      <g>
       <use xlink:href="#me109a2466c" x="94.520983" y="125.20625" style="stroke: #000000; stroke-width: 0.8"/>
      </g>
     </g>
     <g id="text_3">
      <!-- 2014 -->
      <g transform="translate(84.340983 137.785) scale(0.08 -0.08)">
       <defs>
        <path id="DejaVuSans-34" d="M 2419 4116 
L 825 1625 
L 2419 1625 
L 2419 4116 
z
M 2253 4666 
L 3047 4666 
L 3047 1625 
L 3713 1625 
L 3713 1100 
L 3047 1100 
L 3047 0 
L 2419 0 
L 2419 1100 
L 313 1100 
L 313 1709 
L 2253 4666 
z
" transform="scale(0.015625)"/>
       </defs>
       <use xlink:href="#DejaVuSans-32"/>
       <use xlink:href="#DejaVuSans-30" x="63.623047"/>
       <use xlink:href="#DejaVuSans-31" x="127.246094"/>
       <use xlink:href="#DejaVuSans-34" x="190.869141"/>
      </g>
     </g>
    </g>
    <g id="xtick_4">
     <g id="line2d_4">
      <g>
       <use xlink:href="#me109a2466c" x="118.293643" y="125.20625" style="stroke: #000000; stroke-width: 0.8"/>
      </g>
     </g>
     <g id="text_4">
      <!-- 2016 -->
      <g transform="translate(108.113643 137.785) scale(0.08 -0.08)">
       <defs>
        <path id="DejaVuSans-36" d="M 2113 2584 
Q 1688 2584 1439 2293 
Q 1191 2003 1191 1497 
Q 1191 994 1439 701 
Q 1688 409 2113 409 
Q 2538 409 2786 701 
Q 3034 994 3034 1497 
Q 3034 2003 2786 2293 
Q 2538 2584 2113 2584 
z
M 3366 4563 
L 3366 3988 
Q 3128 4100 2886 4159 
Q 2644 4219 2406 4219 
Q 1781 4219 1451 3797 
Q 1122 3375 1075 2522 
Q 1259 2794 1537 2939 
Q 1816 3084 2150 3084 
Q 2853 3084 3261 2657 
Q 3669 2231 3669 1497 
Q 3669 778 3244 343 
Q 2819 -91 2113 -91 
Q 1303 -91 875 529 
Q 447 1150 447 2328 
Q 447 3434 972 4092 
Q 1497 4750 2381 4750 
Q 2619 4750 2861 4703 
Q 3103 4656 3366 4563 
z
" transform="scale(0.015625)"/>
       </defs>
       <use xlink:href="#DejaVuSans-32"/>
       <use xlink:href="#DejaVuSans-30" x="63.623047"/>
       <use xlink:href="#DejaVuSans-31" x="127.246094"/>
       <use xlink:href="#DejaVuSans-36" x="190.869141"/>
      </g>
     </g>
    </g>
    <g id="xtick_5">
     <g id="line2d_5">
      <g>
       <use xlink:href="#me109a2466c" x="142.066302" y="125.20625" style="stroke: #000000; stroke-width: 0.8"/>
      </g>
     </g>
     <g id="text_5">
      <!-- 2018 -->
      <g transform="translate(131.886302 137.785) scale(0.08 -0.08)">
       <defs>
        <path id="DejaVuSans-38" d="M 2034 2216 
Q 1584 2216 1326 1975 
Q 1069 1734 1069 1313 
Q 1069 891 1326 650 
Q 1584 409 2034 409 
Q 2484 409 2743 651 
Q 3003 894 3003 1313 
Q 3003 1734 2745 1975 
Q 2488 2216 2034 2216 
z
M 1403 2484 
Q 997 2584 770 2862 
Q 544 3141 544 3541 
Q 544 4100 942 4425 
Q 1341 4750 2034 4750 
Q 2731 4750 3128 4425 
Q 3525 4100 3525 3541 
Q 3525 3141 3298 2862 
Q 3072 2584 2669 2484 
Q 3125 2378 3379 2068 
Q 3634 1759 3634 1313 
Q 3634 634 3220 271 
Q 2806 -91 2034 -91 
Q 1263 -91 848 271 
Q 434 634 434 1313 
Q 434 1759 690 2068 
Q 947 2378 1403 2484 
z
M 1172 3481 
Q 1172 3119 1398 2916 
Q 1625 2713 2034 2713 
Q 2441 2713 2670 2916 
Q 2900 3119 2900 3481 
Q 2900 3844 2670 4047 
Q 2441 4250 2034 4250 
Q 1625 4250 1398 4047 
Q 1172 3844 1172 3481 
z
" transform="scale(0.015625)"/>
       </defs>
       <use xlink:href="#DejaVuSans-32"/>
       <use xlink:href="#DejaVuSans-30" x="63.623047"/>
       <use xlink:href="#DejaVuSans-31" x="127.246094"/>
       <use xlink:href="#DejaVuSans-38" x="190.869141"/>
      </g>
     </g>
    </g>
    <g id="xtick_6">
     <g id="line2d_6">
      <g>
       <use xlink:href="#me109a2466c" x="165.838961" y="125.20625" style="stroke: #000000; stroke-width: 0.8"/>
      </g>
     </g>
     <g id="text_6">
      <!-- 2020 -->
      <g transform="translate(155.658961 137.785) scale(0.08 -0.08)">
       <use xlink:href="#DejaVuSans-32"/>
       <use xlink:href="#DejaVuSans-30" x="63.623047"/>
       <use xlink:href="#DejaVuSans-32" x="127.246094"/>
       <use xlink:href="#DejaVuSans-30" x="190.869141"/>
      </g>
     </g>
    </g>
    <g id="xtick_7">
     <g id="line2d_7">
      <g>
       <use xlink:href="#me109a2466c" x="189.61162" y="125.20625" style="stroke: #000000; stroke-width: 0.8"/>
      </g>
     </g>
     <g id="text_7">
      <!-- 2022 -->
      <g transform="translate(179.43162 137.785) scale(0.08 -0.08)">
       <use xlink:href="#DejaVuSans-32"/>
       <use xlink:href="#DejaVuSans-30" x="63.623047"/>
       <use xlink:href="#DejaVuSans-32" x="127.246094"/>
       <use xlink:href="#DejaVuSans-32" x="190.869141"/>
      </g>
     </g>
    </g>
    <g id="xtick_8">
     <g id="line2d_8">
      <g>
       <use xlink:href="#me109a2466c" x="213.38428" y="125.20625" style="stroke: #000000; stroke-width: 0.8"/>
      </g>
     </g>
     <g id="text_8">
      <!-- 2024 -->
      <g transform="translate(203.20428 137.785) scale(0.08 -0.08)">
       <use xlink:href="#DejaVuSans-32"/>
       <use xlink:href="#DejaVuSans-30" x="63.623047"/>
       <use xlink:href="#DejaVuSans-32" x="127.246094"/>
       <use xlink:href="#DejaVuSans-34" x="190.869141"/>
      </g>
     </g>
    </g>
    <g id="text_9">
     <!-- Año -->
     <g transform="translate(122.461222 149.5275) scale(0.08 -0.08)">
      <defs>
       <path id="DejaVuSans-41" d="M 2188 4044 
L 1331 1722 
L 3047 1722 
L 2188 4044 
z
M 1831 4666 
L 2547 4666 
L 4325 0 
L 3669 0 
L 3244 1197 
L 1141 1197 
L 716 0 
L 50 0 
L 1831 4666 
z
" transform="scale(0.015625)"/>
       <path id="DejaVuSans-f1" d="M 3513 2113 
L 3513 0 
L 2938 0 
L 2938 2094 
Q 2938 2591 2744 2837 
Q 2550 3084 2163 3084 
Q 1697 3084 1428 2787 
Q 1159 2491 1159 1978 
L 1159 0 
L 581 0 
L 581 3500 
L 1159 3500 
L 1159 2956 
Q 1366 3272 1645 3428 
Q 1925 3584 2291 3584 
Q 2894 3584 3203 3211 
Q 3513 2838 3513 2113 
z
M 2063 4281 
L 1884 4453 
Q 1816 4516 1764 4545 
Q 1713 4575 1672 4575 
Q 1553 4575 1497 4461 
Q 1441 4347 1434 4091 
L 1044 4091 
Q 1050 4513 1209 4742 
Q 1369 4972 1653 4972 
Q 1772 4972 1872 4928 
Q 1972 4884 2088 4781 
L 2266 4609 
Q 2334 4547 2386 4517 
Q 2438 4488 2478 4488 
Q 2597 4488 2653 4602 
Q 2709 4716 2716 4972 
L 3106 4972 
Q 3100 4550 2940 4320 
Q 2781 4091 2497 4091 
Q 2378 4091 2278 4134 
Q 2178 4178 2063 4281 
z
" transform="scale(0.015625)"/>
       <path id="DejaVuSans-6f" d="M 1959 3097 
Q 1497 3097 1228 2736 
Q 959 2375 959 1747 
Q 959 1119 1226 758 
Q 1494 397 1959 397 
Q 2419 397 2687 759 
Q 2956 1122 2956 1747 
Q 2956 2369 2687 2733 
Q 2419 3097 1959 3097 
z
M 1959 3584 
Q 2709 3584 3137 3096 
Q 3566 2609 3566 1747 
Q 3566 888 3137 398 
Q 2709 -91 1959 -91 
Q 1206 -91 779 398 
Q 353 888 353 1747 
Q 353 2609 779 3096 
Q 1206 3584 1959 3584 
z
" transform="scale(0.015625)"/>
      </defs>
      <use xlink:href="#DejaVuSans-41"/>
      <use xlink:href="#DejaVuSans-f1" x="68.408203"/>
      <use xlink:href="#DejaVuSans-6f" x="131.787109"/>
     </g>
    </g>
   </g>
   <g id="matplotlib.axis_2">
    <g id="ytick_1">
     <g id="line2d_9">
      <defs>
       <path id="m6a01a4095c" d="M 0 0 
L -3 0 
" style="stroke: #000000; stroke-width: 0.8"/>
      </defs>
      <g>
       <use xlink:href="#m6a01a4095c" x="41.0325" y="125.20625" style="stroke: #000000; stroke-width: 0.8"/>
      </g>
     </g>
     <g id="text_10">
      <!-- 0.0 -->
      <g transform="translate(21.81 128.245625) scale(0.08 -0.08)">
       <defs>
        <path id="DejaVuSans-2e" d="M 684 794 
L 1344 794 
L 1344 0 
L 684 0 
L 684 794 
z
" transform="scale(0.015625)"/>
       </defs>
       <use xlink:href="#DejaVuSans-30"/>
       <use xlink:href="#DejaVuSans-2e" x="63.623047"/>
       <use xlink:href="#DejaVuSans-30" x="95.410156"/>
      </g>
     </g>
    </g>
    <g id="ytick_2">
     <g id="line2d_10">
      <g>
       <use xlink:href="#m6a01a4095c" x="41.0325" y="96.784389" style="stroke: #000000; stroke-width: 0.8"/>
      </g>
     </g>
     <g id="text_11">
      <!-- 2.0 -->
      <g transform="translate(21.81 99.823764) scale(0.08 -0.08)">
       <use xlink:href="#DejaVuSans-32"/>
       <use xlink:href="#DejaVuSans-2e" x="63.623047"/>
       <use xlink:href="#DejaVuSans-30" x="95.410156"/>
      </g>
     </g>
    </g>
    <g id="ytick_3">
     <g id="line2d_11">
      <g>
       <use xlink:href="#m6a01a4095c" x="41.0325" y="68.362528" style="stroke: #000000; stroke-width: 0.8"/>
      </g>
     </g>
     <g id="text_12">
      <!-- 4.0 -->
      <g transform="translate(21.81 71.401903) scale(0.08 -0.08)">
       <use xlink:href="#DejaVuSans-34"/>
       <use xlink:href="#DejaVuSans-2e" x="63.623047"/>
       <use xlink:href="#DejaVuSans-30" x="95.410156"/>
      </g>
     </g>
    </g>
    <g id="ytick_4">
     <g id="line2d_12">
      <g>
       <use xlink:href="#m6a01a4095c" x="41.0325" y="39.940668" style="stroke: #000000; stroke-width: 0.8"/>
      </g>
     </g>
     <g id="text_13">
      <!-- 6.0 -->
      <g transform="translate(21.81 42.980043) scale(0.08 -0.08)">
       <use xlink:href="#DejaVuSans-36"/>
       <use xlink:href="#DejaVuSans-2e" x="63.623047"/>
       <use xlink:href="#DejaVuSans-30" x="95.410156"/>
      </g>
     </g>
    </g>
    <g id="ytick_5">
     <g id="line2d_13">
      <g>
       <use xlink:href="#m6a01a4095c" x="41.0325" y="11.518807" style="stroke: #000000; stroke-width: 0.8"/>
      </g>
     </g>
     <g id="text_14">
      <!-- 8.0 -->
      <g transform="translate(21.81 14.558182) scale(0.08 -0.08)">
       <use xlink:href="#DejaVuSans-38"/>
       <use xlink:href="#DejaVuSans-2e" x="63.623047"/>
       <use xlink:href="#DejaVuSans-30" x="95.410156"/>
      </g>
     </g>
    </g>
    <g id="text_15">
     <!-- Fracción de publicaciones ($\times 10^{-2}$) -->
     <g transform="translate(16.13 136.602812) rotate(-90) scale(0.08 -0.08)">
      <defs>
       <path id="DejaVuSans-46" d="M 628 4666 
L 3309 4666 
L 3309 4134 
L 1259 4134 
L 1259 2759 
L 3109 2759 
L 3109 2228 
L 1259 2228 
L 1259 0 
L 628 0 
L 628 4666 
z
" transform="scale(0.015625)"/>
       <path id="DejaVuSans-72" d="M 2631 2963 
Q 2534 3019 2420 3045 
Q 2306 3072 2169 3072 
Q 1681 3072 1420 2755 
Q 1159 2438 1159 1844 
L 1159 0 
L 581 0 
L 581 3500 
L 1159 3500 
L 1159 2956 
Q 1341 3275 1631 3429 
Q 1922 3584 2338 3584 
Q 2397 3584 2469 3576 
Q 2541 3569 2628 3553 
L 2631 2963 
z
" transform="scale(0.015625)"/>
       <path id="DejaVuSans-61" d="M 2194 1759 
Q 1497 1759 1228 1600 
Q 959 1441 959 1056 
Q 959 750 1161 570 
Q 1363 391 1709 391 
Q 2188 391 2477 730 
Q 2766 1069 2766 1631 
L 2766 1759 
L 2194 1759 
z
M 3341 1997 
L 3341 0 
L 2766 0 
L 2766 531 
Q 2569 213 2275 61 
Q 1981 -91 1556 -91 
Q 1019 -91 701 211 
Q 384 513 384 1019 
Q 384 1609 779 1909 
Q 1175 2209 1959 2209 
L 2766 2209 
L 2766 2266 
Q 2766 2663 2505 2880 
Q 2244 3097 1772 3097 
Q 1472 3097 1187 3025 
Q 903 2953 641 2809 
L 641 3341 
Q 956 3463 1253 3523 
Q 1550 3584 1831 3584 
Q 2591 3584 2966 3190 
Q 3341 2797 3341 1997 
z
" transform="scale(0.015625)"/>
       <path id="DejaVuSans-63" d="M 3122 3366 
L 3122 2828 
Q 2878 2963 2633 3030 
Q 2388 3097 2138 3097 
Q 1578 3097 1268 2742 
Q 959 2388 959 1747 
Q 959 1106 1268 751 
Q 1578 397 2138 397 
Q 2388 397 2633 464 
Q 2878 531 3122 666 
L 3122 134 
Q 2881 22 2623 -34 
Q 2366 -91 2075 -91 
Q 1284 -91 818 406 
Q 353 903 353 1747 
Q 353 2603 823 3093 
Q 1294 3584 2113 3584 
Q 2378 3584 2631 3529 
Q 2884 3475 3122 3366 
z
" transform="scale(0.015625)"/>
       <path id="DejaVuSans-69" d="M 603 3500 
L 1178 3500 
L 1178 0 
L 603 0 
L 603 3500 
z
M 603 4863 
L 1178 4863 
L 1178 4134 
L 603 4134 
L 603 4863 
z
" transform="scale(0.015625)"/>
       <path id="DejaVuSans-f3" d="M 1959 3097 
Q 1497 3097 1228 2736 
Q 959 2375 959 1747 
Q 959 1119 1226 758 
Q 1494 397 1959 397 
Q 2419 397 2687 759 
Q 2956 1122 2956 1747 
Q 2956 2369 2687 2733 
Q 2419 3097 1959 3097 
z
M 1959 3584 
Q 2709 3584 3137 3096 
Q 3566 2609 3566 1747 
Q 3566 888 3137 398 
Q 2709 -91 1959 -91 
Q 1206 -91 779 398 
Q 353 888 353 1747 
Q 353 2609 779 3096 
Q 1206 3584 1959 3584 
z
M 2394 5119 
L 3016 5119 
L 1997 3944 
L 1519 3944 
L 2394 5119 
z
" transform="scale(0.015625)"/>
       <path id="DejaVuSans-6e" d="M 3513 2113 
L 3513 0 
L 2938 0 
L 2938 2094 
Q 2938 2591 2744 2837 
Q 2550 3084 2163 3084 
Q 1697 3084 1428 2787 
Q 1159 2491 1159 1978 
L 1159 0 
L 581 0 
L 581 3500 
L 1159 3500 
L 1159 2956 
Q 1366 3272 1645 3428 
Q 1925 3584 2291 3584 
Q 2894 3584 3203 3211 
Q 3513 2838 3513 2113 
z
" transform="scale(0.015625)"/>
       <path id="DejaVuSans-20" transform="scale(0.015625)"/>
       <path id="DejaVuSans-64" d="M 2906 2969 
L 2906 4863 
L 3481 4863 
L 3481 0 
L 2906 0 
L 2906 525 
Q 2725 213 2448 61 
Q 2172 -91 1784 -91 
Q 1150 -91 751 415 
Q 353 922 353 1747 
Q 353 2572 751 3078 
Q 1150 3584 1784 3584 
Q 2172 3584 2448 3432 
Q 2725 3281 2906 2969 
z
M 947 1747 
Q 947 1113 1208 752 
Q 1469 391 1925 391 
Q 2381 391 2643 752 
Q 2906 1113 2906 1747 
Q 2906 2381 2643 2742 
Q 2381 3103 1925 3103 
Q 1469 3103 1208 2742 
Q 947 2381 947 1747 
z
" transform="scale(0.015625)"/>
       <path id="DejaVuSans-65" d="M 3597 1894 
L 3597 1613 
L 953 1613 
Q 991 1019 1311 708 
Q 1631 397 2203 397 
Q 2534 397 2845 478 
Q 3156 559 3463 722 
L 3463 178 
Q 3153 47 2828 -22 
Q 2503 -91 2169 -91 
Q 1331 -91 842 396 
Q 353 884 353 1716 
Q 353 2575 817 3079 
Q 1281 3584 2069 3584 
Q 2775 3584 3186 3129 
Q 3597 2675 3597 1894 
z
M 3022 2063 
Q 3016 2534 2758 2815 
Q 2500 3097 2075 3097 
Q 1594 3097 1305 2825 
Q 1016 2553 972 2059 
L 3022 2063 
z
" transform="scale(0.015625)"/>
       <path id="DejaVuSans-70" d="M 1159 525 
L 1159 -1331 
L 581 -1331 
L 581 3500 
L 1159 3500 
L 1159 2969 
Q 1341 3281 1617 3432 
Q 1894 3584 2278 3584 
Q 2916 3584 3314 3078 
Q 3713 2572 3713 1747 
Q 3713 922 3314 415 
Q 2916 -91 2278 -91 
Q 1894 -91 1617 61 
Q 1341 213 1159 525 
z
M 3116 1747 
Q 3116 2381 2855 2742 
Q 2594 3103 2138 3103 
Q 1681 3103 1420 2742 
Q 1159 2381 1159 1747 
Q 1159 1113 1420 752 
Q 1681 391 2138 391 
Q 2594 391 2855 752 
Q 3116 1113 3116 1747 
z
" transform="scale(0.015625)"/>
       <path id="DejaVuSans-75" d="M 544 1381 
L 544 3500 
L 1119 3500 
L 1119 1403 
Q 1119 906 1312 657 
Q 1506 409 1894 409 
Q 2359 409 2629 706 
Q 2900 1003 2900 1516 
L 2900 3500 
L 3475 3500 
L 3475 0 
L 2900 0 
L 2900 538 
Q 2691 219 2414 64 
Q 2138 -91 1772 -91 
Q 1169 -91 856 284 
Q 544 659 544 1381 
z
M 1991 3584 
L 1991 3584 
z
" transform="scale(0.015625)"/>
       <path id="DejaVuSans-62" d="M 3116 1747 
Q 3116 2381 2855 2742 
Q 2594 3103 2138 3103 
Q 1681 3103 1420 2742 
Q 1159 2381 1159 1747 
Q 1159 1113 1420 752 
Q 1681 391 2138 391 
Q 2594 391 2855 752 
Q 3116 1113 3116 1747 
z
M 1159 2969 
Q 1341 3281 1617 3432 
Q 1894 3584 2278 3584 
Q 2916 3584 3314 3078 
Q 3713 2572 3713 1747 
Q 3713 922 3314 415 
Q 2916 -91 2278 -91 
Q 1894 -91 1617 61 
Q 1341 213 1159 525 
L 1159 0 
L 581 0 
L 581 4863 
L 1159 4863 
L 1159 2969 
z
" transform="scale(0.015625)"/>
       <path id="DejaVuSans-6c" d="M 603 4863 
L 1178 4863 
L 1178 0 
L 603 0 
L 603 4863 
z
" transform="scale(0.015625)"/>
       <path id="DejaVuSans-73" d="M 2834 3397 
L 2834 2853 
Q 2591 2978 2328 3040 
Q 2066 3103 1784 3103 
Q 1356 3103 1142 2972 
Q 928 2841 928 2578 
Q 928 2378 1081 2264 
Q 1234 2150 1697 2047 
L 1894 2003 
Q 2506 1872 2764 1633 
Q 3022 1394 3022 966 
Q 3022 478 2636 193 
Q 2250 -91 1575 -91 
Q 1294 -91 989 -36 
Q 684 19 347 128 
L 347 722 
Q 666 556 975 473 
Q 1284 391 1588 391 
Q 1994 391 2212 530 
Q 2431 669 2431 922 
Q 2431 1156 2273 1281 
Q 2116 1406 1581 1522 
L 1381 1569 
Q 847 1681 609 1914 
Q 372 2147 372 2553 
Q 372 3047 722 3315 
Q 1072 3584 1716 3584 
Q 2034 3584 2315 3537 
Q 2597 3491 2834 3397 
z
" transform="scale(0.015625)"/>
       <path id="DejaVuSans-28" d="M 1984 4856 
Q 1566 4138 1362 3434 
Q 1159 2731 1159 2009 
Q 1159 1288 1364 580 
Q 1569 -128 1984 -844 
L 1484 -844 
Q 1016 -109 783 600 
Q 550 1309 550 2009 
Q 550 2706 781 3412 
Q 1013 4119 1484 4856 
L 1984 4856 
z
" transform="scale(0.015625)"/>
       <path id="DejaVuSans-d7" d="M 4488 3438 
L 3059 2003 
L 4488 575 
L 4116 197 
L 2681 1631 
L 1247 197 
L 878 575 
L 2303 2003 
L 878 3438 
L 1247 3816 
L 2681 2381 
L 4116 3816 
L 4488 3438 
z
" transform="scale(0.015625)"/>
       <path id="DejaVuSans-2212" d="M 678 2272 
L 4684 2272 
L 4684 1741 
L 678 1741 
L 678 2272 
z
" transform="scale(0.015625)"/>
       <path id="DejaVuSans-29" d="M 513 4856 
L 1013 4856 
Q 1481 4119 1714 3412 
Q 1947 2706 1947 2009 
Q 1947 1309 1714 600 
Q 1481 -109 1013 -844 
L 513 -844 
Q 928 -128 1133 580 
Q 1338 1288 1338 2009 
Q 1338 2731 1133 3434 
Q 928 4138 513 4856 
z
" transform="scale(0.015625)"/>
      </defs>
      <use xlink:href="#DejaVuSans-46" transform="translate(0 0.765625)"/>
      <use xlink:href="#DejaVuSans-72" transform="translate(57.519531 0.765625)"/>
      <use xlink:href="#DejaVuSans-61" transform="translate(98.632812 0.765625)"/>
      <use xlink:href="#DejaVuSans-63" transform="translate(159.912109 0.765625)"/>
      <use xlink:href="#DejaVuSans-63" transform="translate(214.892578 0.765625)"/>
      <use xlink:href="#DejaVuSans-69" transform="translate(269.873047 0.765625)"/>
      <use xlink:href="#DejaVuSans-f3" transform="translate(297.65625 0.765625)"/>
      <use xlink:href="#DejaVuSans-6e" transform="translate(358.837891 0.765625)"/>
      <use xlink:href="#DejaVuSans-20" transform="translate(422.216797 0.765625)"/>
      <use xlink:href="#DejaVuSans-64" transform="translate(454.003906 0.765625)"/>
      <use xlink:href="#DejaVuSans-65" transform="translate(517.480469 0.765625)"/>
      <use xlink:href="#DejaVuSans-20" transform="translate(579.003906 0.765625)"/>
      <use xlink:href="#DejaVuSans-70" transform="translate(610.791016 0.765625)"/>
      <use xlink:href="#DejaVuSans-75" transform="translate(674.267578 0.765625)"/>
      <use xlink:href="#DejaVuSans-62" transform="translate(737.646484 0.765625)"/>
      <use xlink:href="#DejaVuSans-6c" transform="translate(801.123047 0.765625)"/>
      <use xlink:href="#DejaVuSans-69" transform="translate(828.90625 0.765625)"/>
      <use xlink:href="#DejaVuSans-63" transform="translate(856.689453 0.765625)"/>
      <use xlink:href="#DejaVuSans-61" transform="translate(911.669922 0.765625)"/>
      <use xlink:href="#DejaVuSans-63" transform="translate(972.949219 0.765625)"/>
      <use xlink:href="#DejaVuSans-69" transform="translate(1027.929688 0.765625)"/>
      <use xlink:href="#DejaVuSans-6f" transform="translate(1055.712891 0.765625)"/>
      <use xlink:href="#DejaVuSans-6e" transform="translate(1116.894531 0.765625)"/>
      <use xlink:href="#DejaVuSans-65" transform="translate(1180.273438 0.765625)"/>
      <use xlink:href="#DejaVuSans-73" transform="translate(1241.796875 0.765625)"/>
      <use xlink:href="#DejaVuSans-20" transform="translate(1293.896484 0.765625)"/>
      <use xlink:href="#DejaVuSans-28" transform="translate(1325.683594 0.765625)"/>
      <use xlink:href="#DejaVuSans-d7" transform="translate(1364.697266 0.765625)"/>
      <use xlink:href="#DejaVuSans-31" transform="translate(1448.486328 0.765625)"/>
      <use xlink:href="#DejaVuSans-30" transform="translate(1512.109375 0.765625)"/>
      <use xlink:href="#DejaVuSans-2212" transform="translate(1576.689453 39.046875) scale(0.7)"/>
      <use xlink:href="#DejaVuSans-32" transform="translate(1635.341797 39.046875) scale(0.7)"/>
      <use xlink:href="#DejaVuSans-29" transform="translate(1682.612305 0.765625)"/>
     </g>
    </g>
   </g>
   <g id="patch_48">
    <path d="M 41.0325 125.20625 
L 41.0325 10.239375 
" style="fill: none; stroke: #000000; stroke-width: 0.8; stroke-linejoin: miter; stroke-linecap: square"/>
   </g>
   <g id="patch_49">
    <path d="M 41.0325 125.20625 
L 219.327445 125.20625 
" style="fill: none; stroke: #000000; stroke-width: 0.8; stroke-linejoin: miter; stroke-linecap: square"/>
   </g>
   <g id="legend_1">
    <g id="patch_50">
     <path d="M 48.2325 23.518125 
L 64.2325 23.518125 
L 64.2325 17.918125 
L 48.2325 17.918125 
z
"/>
    </g>
    <g id="text_16">
     <!-- Métodos numéricos estándar -->
     <g transform="translate(70.6325 23.518125) scale(0.08 -0.08)">
      <defs>
       <path id="DejaVuSans-4d" d="M 628 4666 
L 1569 4666 
L 2759 1491 
L 3956 4666 
L 4897 4666 
L 4897 0 
L 4281 0 
L 4281 4097 
L 3078 897 
L 2444 897 
L 1241 4097 
L 1241 0 
L 628 0 
L 628 4666 
z
" transform="scale(0.015625)"/>
       <path id="DejaVuSans-e9" d="M 3597 1894 
L 3597 1613 
L 953 1613 
Q 991 1019 1311 708 
Q 1631 397 2203 397 
Q 2534 397 2845 478 
Q 3156 559 3463 722 
L 3463 178 
Q 3153 47 2828 -22 
Q 2503 -91 2169 -91 
Q 1331 -91 842 396 
Q 353 884 353 1716 
Q 353 2575 817 3079 
Q 1281 3584 2069 3584 
Q 2775 3584 3186 3129 
Q 3597 2675 3597 1894 
z
M 3022 2063 
Q 3016 2534 2758 2815 
Q 2500 3097 2075 3097 
Q 1594 3097 1305 2825 
Q 1016 2553 972 2059 
L 3022 2063 
z
M 2469 5119 
L 3091 5119 
L 2072 3944 
L 1594 3944 
L 2469 5119 
z
" transform="scale(0.015625)"/>
       <path id="DejaVuSans-74" d="M 1172 4494 
L 1172 3500 
L 2356 3500 
L 2356 3053 
L 1172 3053 
L 1172 1153 
Q 1172 725 1289 603 
Q 1406 481 1766 481 
L 2356 481 
L 2356 0 
L 1766 0 
Q 1100 0 847 248 
Q 594 497 594 1153 
L 594 3053 
L 172 3053 
L 172 3500 
L 594 3500 
L 594 4494 
L 1172 4494 
z
" transform="scale(0.015625)"/>
       <path id="DejaVuSans-6d" d="M 3328 2828 
Q 3544 3216 3844 3400 
Q 4144 3584 4550 3584 
Q 5097 3584 5394 3201 
Q 5691 2819 5691 2113 
L 5691 0 
L 5113 0 
L 5113 2094 
Q 5113 2597 4934 2840 
Q 4756 3084 4391 3084 
Q 3944 3084 3684 2787 
Q 3425 2491 3425 1978 
L 3425 0 
L 2847 0 
L 2847 2094 
Q 2847 2600 2669 2842 
Q 2491 3084 2119 3084 
Q 1678 3084 1418 2786 
Q 1159 2488 1159 1978 
L 1159 0 
L 581 0 
L 581 3500 
L 1159 3500 
L 1159 2956 
Q 1356 3278 1631 3431 
Q 1906 3584 2284 3584 
Q 2666 3584 2933 3390 
Q 3200 3197 3328 2828 
z
" transform="scale(0.015625)"/>
       <path id="DejaVuSans-e1" d="M 2194 1759 
Q 1497 1759 1228 1600 
Q 959 1441 959 1056 
Q 959 750 1161 570 
Q 1363 391 1709 391 
Q 2188 391 2477 730 
Q 2766 1069 2766 1631 
L 2766 1759 
L 2194 1759 
z
M 3341 1997 
L 3341 0 
L 2766 0 
L 2766 531 
Q 2569 213 2275 61 
Q 1981 -91 1556 -91 
Q 1019 -91 701 211 
Q 384 513 384 1019 
Q 384 1609 779 1909 
Q 1175 2209 1959 2209 
L 2766 2209 
L 2766 2266 
Q 2766 2663 2505 2880 
Q 2244 3097 1772 3097 
Q 1472 3097 1187 3025 
Q 903 2953 641 2809 
L 641 3341 
Q 956 3463 1253 3523 
Q 1550 3584 1831 3584 
Q 2591 3584 2966 3190 
Q 3341 2797 3341 1997 
z
M 2291 5119 
L 2913 5119 
L 1894 3944 
L 1416 3944 
L 2291 5119 
z
" transform="scale(0.015625)"/>
      </defs>
      <use xlink:href="#DejaVuSans-4d"/>
      <use xlink:href="#DejaVuSans-e9" x="86.279297"/>
      <use xlink:href="#DejaVuSans-74" x="147.802734"/>
      <use xlink:href="#DejaVuSans-6f" x="187.011719"/>
      <use xlink:href="#DejaVuSans-64" x="248.193359"/>
      <use xlink:href="#DejaVuSans-6f" x="311.669922"/>
      <use xlink:href="#DejaVuSans-73" x="372.851562"/>
      <use xlink:href="#DejaVuSans-20" x="424.951172"/>
      <use xlink:href="#DejaVuSans-6e" x="456.738281"/>
      <use xlink:href="#DejaVuSans-75" x="520.117188"/>
      <use xlink:href="#DejaVuSans-6d" x="583.496094"/>
      <use xlink:href="#DejaVuSans-e9" x="680.908203"/>
      <use xlink:href="#DejaVuSans-72" x="742.431641"/>
      <use xlink:href="#DejaVuSans-69" x="783.544922"/>
      <use xlink:href="#DejaVuSans-63" x="811.328125"/>
      <use xlink:href="#DejaVuSans-6f" x="866.308594"/>
      <use xlink:href="#DejaVuSans-73" x="927.490234"/>
      <use xlink:href="#DejaVuSans-20" x="979.589844"/>
      <use xlink:href="#DejaVuSans-65" x="1011.376953"/>
      <use xlink:href="#DejaVuSans-73" x="1072.900391"/>
      <use xlink:href="#DejaVuSans-74" x="1125"/>
      <use xlink:href="#DejaVuSans-e1" x="1164.208984"/>
      <use xlink:href="#DejaVuSans-6e" x="1225.488281"/>
      <use xlink:href="#DejaVuSans-64" x="1288.867188"/>
      <use xlink:href="#DejaVuSans-61" x="1352.34375"/>
      <use xlink:href="#DejaVuSans-72" x="1413.623047"/>
     </g>
    </g>
    <g id="patch_51">
     <path d="M 48.2325 35.580625 
L 64.2325 35.580625 
L 64.2325 29.980625 
L 48.2325 29.980625 
z
" style="fill: #2255a0; fill-opacity: 0.501961"/>
    </g>
    <g id="text_17">
     <!-- Aprendizaje automático -->
     <g transform="translate(70.6325 35.580625) scale(0.08 -0.08)">
      <defs>
       <path id="DejaVuSans-7a" d="M 353 3500 
L 3084 3500 
L 3084 2975 
L 922 459 
L 3084 459 
L 3084 0 
L 275 0 
L 275 525 
L 2438 3041 
L 353 3041 
L 353 3500 
z
" transform="scale(0.015625)"/>
       <path id="DejaVuSans-6a" d="M 603 3500 
L 1178 3500 
L 1178 -63 
Q 1178 -731 923 -1031 
Q 669 -1331 103 -1331 
L -116 -1331 
L -116 -844 
L 38 -844 
Q 366 -844 484 -692 
Q 603 -541 603 -63 
L 603 3500 
z
M 603 4863 
L 1178 4863 
L 1178 4134 
L 603 4134 
L 603 4863 
z
" transform="scale(0.015625)"/>
      </defs>
      <use xlink:href="#DejaVuSans-41"/>
      <use xlink:href="#DejaVuSans-70" x="68.408203"/>
      <use xlink:href="#DejaVuSans-72" x="131.884766"/>
      <use xlink:href="#DejaVuSans-65" x="170.748047"/>
      <use xlink:href="#DejaVuSans-6e" x="232.271484"/>
      <use xlink:href="#DejaVuSans-64" x="295.650391"/>
      <use xlink:href="#DejaVuSans-69" x="359.126953"/>
      <use xlink:href="#DejaVuSans-7a" x="386.910156"/>
      <use xlink:href="#DejaVuSans-61" x="439.400391"/>
      <use xlink:href="#DejaVuSans-6a" x="500.679688"/>
      <use xlink:href="#DejaVuSans-65" x="528.462891"/>
      <use xlink:href="#DejaVuSans-20" x="589.986328"/>
      <use xlink:href="#DejaVuSans-61" x="621.773438"/>
      <use xlink:href="#DejaVuSans-75" x="683.052734"/>
      <use xlink:href="#DejaVuSans-74" x="746.431641"/>
      <use xlink:href="#DejaVuSans-6f" x="785.640625"/>
      <use xlink:href="#DejaVuSans-6d" x="846.822266"/>
      <use xlink:href="#DejaVuSans-e1" x="944.234375"/>
      <use xlink:href="#DejaVuSans-74" x="1005.513672"/>
      <use xlink:href="#DejaVuSans-69" x="1044.722656"/>
      <use xlink:href="#DejaVuSans-63" x="1072.505859"/>
      <use xlink:href="#DejaVuSans-6f" x="1127.486328"/>
     </g>
    </g>
    <g id="patch_52">
     <path d="M 48.2325 47.323125 
L 64.2325 47.323125 
L 64.2325 41.723125 
L 48.2325 41.723125 
z
" style="fill: #8e8e8e"/>
    </g>
    <g id="text_18">
     <!-- Ambos / Combinados -->
     <g transform="translate(70.6325 47.323125) scale(0.08 -0.08)">
      <defs>
       <path id="DejaVuSans-2f" d="M 1625 4666 
L 2156 4666 
L 531 -594 
L 0 -594 
L 1625 4666 
z
" transform="scale(0.015625)"/>
       <path id="DejaVuSans-43" d="M 4122 4306 
L 4122 3641 
Q 3803 3938 3442 4084 
Q 3081 4231 2675 4231 
Q 1875 4231 1450 3742 
Q 1025 3253 1025 2328 
Q 1025 1406 1450 917 
Q 1875 428 2675 428 
Q 3081 428 3442 575 
Q 3803 722 4122 1019 
L 4122 359 
Q 3791 134 3420 21 
Q 3050 -91 2638 -91 
Q 1578 -91 968 557 
Q 359 1206 359 2328 
Q 359 3453 968 4101 
Q 1578 4750 2638 4750 
Q 3056 4750 3426 4639 
Q 3797 4528 4122 4306 
z
" transform="scale(0.015625)"/>
      </defs>
      <use xlink:href="#DejaVuSans-41"/>
      <use xlink:href="#DejaVuSans-6d" x="68.408203"/>
      <use xlink:href="#DejaVuSans-62" x="165.820312"/>
      <use xlink:href="#DejaVuSans-6f" x="229.296875"/>
      <use xlink:href="#DejaVuSans-73" x="290.478516"/>
      <use xlink:href="#DejaVuSans-20" x="342.578125"/>
      <use xlink:href="#DejaVuSans-2f" x="374.365234"/>
      <use xlink:href="#DejaVuSans-20" x="408.056641"/>
      <use xlink:href="#DejaVuSans-43" x="439.84375"/>
      <use xlink:href="#DejaVuSans-6f" x="509.667969"/>
      <use xlink:href="#DejaVuSans-6d" x="570.849609"/>
      <use xlink:href="#DejaVuSans-62" x="668.261719"/>
      <use xlink:href="#DejaVuSans-69" x="731.738281"/>
      <use xlink:href="#DejaVuSans-6e" x="759.521484"/>
      <use xlink:href="#DejaVuSans-61" x="822.900391"/>
      <use xlink:href="#DejaVuSans-64" x="884.179688"/>
      <use xlink:href="#DejaVuSans-6f" x="947.65625"/>
      <use xlink:href="#DejaVuSans-73" x="1008.837891"/>
     </g>
    </g>
   </g>
  </g>
  <g id="axes_2">
   <g id="patch_53">
    <path d="M 275.158247 125.20625 
L 453.453191 125.20625 
L 453.453191 10.239375 
L 275.158247 10.239375 
z
" style="fill: #ffffff"/>
   </g>
   <g id="patch_54">
    <path d="M 443.944127 125.20625 
L 451.075925 125.20625 
L 451.075925 20.690909 
L 443.944127 20.690909 
z
" clip-path="url(#pa49967ee79)" style="fill: #8e8e8e"/>
   </g>
   <g id="patch_55">
    <path d="M 432.057798 125.20625 
L 439.189596 125.20625 
L 439.189596 36.017476 
L 432.057798 36.017476 
z
" clip-path="url(#pa49967ee79)" style="fill: #8e8e8e"/>
   </g>
   <g id="patch_56">
    <path d="M 420.171468 125.20625 
L 427.303266 125.20625 
L 427.303266 54.005867 
L 420.171468 54.005867 
z
" clip-path="url(#pa49967ee79)" style="fill: #8e8e8e"/>
   </g>
   <g id="patch_57">
    <path d="M 408.285139 125.20625 
L 415.416936 125.20625 
L 415.416936 67.320226 
L 408.285139 67.320226 
z
" clip-path="url(#pa49967ee79)" style="fill: #8e8e8e"/>
   </g>
   <g id="patch_58">
    <path d="M 396.398809 125.20625 
L 403.530607 125.20625 
L 403.530607 84.660948 
L 396.398809 84.660948 
z
" clip-path="url(#pa49967ee79)" style="fill: #8e8e8e"/>
   </g>
   <g id="patch_59">
    <path d="M 384.512479 125.20625 
L 391.644277 125.20625 
L 391.644277 92.348908 
L 384.512479 92.348908 
z
" clip-path="url(#pa49967ee79)" style="fill: #8e8e8e"/>
   </g>
   <g id="patch_60">
    <path d="M 372.62615 125.20625 
L 379.757947 125.20625 
L 379.757947 102.93584 
L 372.62615 102.93584 
z
" clip-path="url(#pa49967ee79)" style="fill: #8e8e8e"/>
   </g>
   <g id="patch_61">
    <path d="M 360.73982 125.20625 
L 367.871618 125.20625 
L 367.871618 109.345141 
L 360.73982 109.345141 
z
" clip-path="url(#pa49967ee79)" style="fill: #8e8e8e"/>
   </g>
   <g id="patch_62">
    <path d="M 348.85349 125.20625 
L 355.985288 125.20625 
L 355.985288 115.400345 
L 348.85349 115.400345 
z
" clip-path="url(#pa49967ee79)" style="fill: #8e8e8e"/>
   </g>
   <g id="patch_63">
    <path d="M 336.967161 125.20625 
L 344.098958 125.20625 
L 344.098958 115.61875 
L 336.967161 115.61875 
z
" clip-path="url(#pa49967ee79)" style="fill: #8e8e8e"/>
   </g>
   <g id="patch_64">
    <path d="M 325.080831 125.20625 
L 332.212629 125.20625 
L 332.212629 114.643776 
L 325.080831 114.643776 
z
" clip-path="url(#pa49967ee79)" style="fill: #8e8e8e"/>
   </g>
   <g id="patch_65">
    <path d="M 313.194501 125.20625 
L 320.326299 125.20625 
L 320.326299 118.211834 
L 313.194501 118.211834 
z
" clip-path="url(#pa49967ee79)" style="fill: #8e8e8e"/>
   </g>
   <g id="patch_66">
    <path d="M 301.308172 125.20625 
L 308.43997 125.20625 
L 308.43997 121.020431 
L 301.308172 121.020431 
z
" clip-path="url(#pa49967ee79)" style="fill: #8e8e8e"/>
   </g>
   <g id="patch_67">
    <path d="M 289.421842 125.20625 
L 296.55364 125.20625 
L 296.55364 115.372962 
L 289.421842 115.372962 
z
" clip-path="url(#pa49967ee79)" style="fill: #8e8e8e"/>
   </g>
   <g id="patch_68">
    <path d="M 277.535512 125.20625 
L 284.66731 125.20625 
L 284.66731 115.44832 
L 277.535512 115.44832 
z
" clip-path="url(#pa49967ee79)" style="fill: #8e8e8e"/>
   </g>
   <g id="matplotlib.axis_3">
    <g id="xtick_9">
     <g id="line2d_14">
      <g>
       <use xlink:href="#me109a2466c" x="281.101411" y="125.20625" style="stroke: #000000; stroke-width: 0.8"/>
      </g>
     </g>
     <g id="text_19">
      <!-- 2010 -->
      <g transform="translate(270.921411 137.785) scale(0.08 -0.08)">
       <use xlink:href="#DejaVuSans-32"/>
       <use xlink:href="#DejaVuSans-30" x="63.623047"/>
       <use xlink:href="#DejaVuSans-31" x="127.246094"/>
       <use xlink:href="#DejaVuSans-30" x="190.869141"/>
      </g>
     </g>
    </g>
    <g id="xtick_10">
     <g id="line2d_15">
      <g>
       <use xlink:href="#me109a2466c" x="304.874071" y="125.20625" style="stroke: #000000; stroke-width: 0.8"/>
      </g>
     </g>
     <g id="text_20">
      <!-- 2012 -->
      <g transform="translate(294.694071 137.785) scale(0.08 -0.08)">
       <use xlink:href="#DejaVuSans-32"/>
       <use xlink:href="#DejaVuSans-30" x="63.623047"/>
       <use xlink:href="#DejaVuSans-31" x="127.246094"/>
       <use xlink:href="#DejaVuSans-32" x="190.869141"/>
      </g>
     </g>
    </g>
    <g id="xtick_11">
     <g id="line2d_16">
      <g>
       <use xlink:href="#me109a2466c" x="328.64673" y="125.20625" style="stroke: #000000; stroke-width: 0.8"/>
      </g>
     </g>
     <g id="text_21">
      <!-- 2014 -->
      <g transform="translate(318.46673 137.785) scale(0.08 -0.08)">
       <use xlink:href="#DejaVuSans-32"/>
       <use xlink:href="#DejaVuSans-30" x="63.623047"/>
       <use xlink:href="#DejaVuSans-31" x="127.246094"/>
       <use xlink:href="#DejaVuSans-34" x="190.869141"/>
      </g>
     </g>
    </g>
    <g id="xtick_12">
     <g id="line2d_17">
      <g>
       <use xlink:href="#me109a2466c" x="352.419389" y="125.20625" style="stroke: #000000; stroke-width: 0.8"/>
      </g>
     </g>
     <g id="text_22">
      <!-- 2016 -->
      <g transform="translate(342.239389 137.785) scale(0.08 -0.08)">
       <use xlink:href="#DejaVuSans-32"/>
       <use xlink:href="#DejaVuSans-30" x="63.623047"/>
       <use xlink:href="#DejaVuSans-31" x="127.246094"/>
       <use xlink:href="#DejaVuSans-36" x="190.869141"/>
      </g>
     </g>
    </g>
    <g id="xtick_13">
     <g id="line2d_18">
      <g>
       <use xlink:href="#me109a2466c" x="376.192048" y="125.20625" style="stroke: #000000; stroke-width: 0.8"/>
      </g>
     </g>
     <g id="text_23">
      <!-- 2018 -->
      <g transform="translate(366.012048 137.785) scale(0.08 -0.08)">
       <use xlink:href="#DejaVuSans-32"/>
       <use xlink:href="#DejaVuSans-30" x="63.623047"/>
       <use xlink:href="#DejaVuSans-31" x="127.246094"/>
       <use xlink:href="#DejaVuSans-38" x="190.869141"/>
      </g>
     </g>
    </g>
    <g id="xtick_14">
     <g id="line2d_19">
      <g>
       <use xlink:href="#me109a2466c" x="399.964708" y="125.20625" style="stroke: #000000; stroke-width: 0.8"/>
      </g>
     </g>
     <g id="text_24">
      <!-- 2020 -->
      <g transform="translate(389.784708 137.785) scale(0.08 -0.08)">
       <use xlink:href="#DejaVuSans-32"/>
       <use xlink:href="#DejaVuSans-30" x="63.623047"/>
       <use xlink:href="#DejaVuSans-32" x="127.246094"/>
       <use xlink:href="#DejaVuSans-30" x="190.869141"/>
      </g>
     </g>
    </g>
    <g id="xtick_15">
     <g id="line2d_20">
      <g>
       <use xlink:href="#me109a2466c" x="423.737367" y="125.20625" style="stroke: #000000; stroke-width: 0.8"/>
      </g>
     </g>
     <g id="text_25">
      <!-- 2022 -->
      <g transform="translate(413.557367 137.785) scale(0.08 -0.08)">
       <use xlink:href="#DejaVuSans-32"/>
       <use xlink:href="#DejaVuSans-30" x="63.623047"/>
       <use xlink:href="#DejaVuSans-32" x="127.246094"/>
       <use xlink:href="#DejaVuSans-32" x="190.869141"/>
      </g>
     </g>
    </g>
    <g id="xtick_16">
     <g id="line2d_21">
      <g>
       <use xlink:href="#me109a2466c" x="447.510026" y="125.20625" style="stroke: #000000; stroke-width: 0.8"/>
      </g>
     </g>
     <g id="text_26">
      <!-- 2024 -->
      <g transform="translate(437.330026 137.785) scale(0.08 -0.08)">
       <use xlink:href="#DejaVuSans-32"/>
       <use xlink:href="#DejaVuSans-30" x="63.623047"/>
       <use xlink:href="#DejaVuSans-32" x="127.246094"/>
       <use xlink:href="#DejaVuSans-34" x="190.869141"/>
      </g>
     </g>
    </g>
    <g id="text_27">
     <!-- Año -->
     <g transform="translate(356.586969 149.5275) scale(0.08 -0.08)">
      <use xlink:href="#DejaVuSans-41"/>
      <use xlink:href="#DejaVuSans-f1" x="68.408203"/>
      <use xlink:href="#DejaVuSans-6f" x="131.787109"/>
     </g>
    </g>
   </g>
   <g id="matplotlib.axis_4">
    <g id="ytick_6">
     <g id="line2d_22">
      <g>
       <use xlink:href="#m6a01a4095c" x="275.158247" y="125.20625" style="stroke: #000000; stroke-width: 0.8"/>
      </g>
     </g>
     <g id="text_28">
      <!-- 0.00 -->
      <g transform="translate(250.845747 128.245625) scale(0.08 -0.08)">
       <use xlink:href="#DejaVuSans-30"/>
       <use xlink:href="#DejaVuSans-2e" x="63.623047"/>
       <use xlink:href="#DejaVuSans-30" x="95.410156"/>
       <use xlink:href="#DejaVuSans-30" x="159.033203"/>
      </g>
     </g>
    </g>
    <g id="ytick_7">
     <g id="line2d_23">
      <g>
       <use xlink:href="#m6a01a4095c" x="275.158247" y="96.464531" style="stroke: #000000; stroke-width: 0.8"/>
      </g>
     </g>
     <g id="text_29">
      <!-- 0.32 -->
      <g transform="translate(250.845747 99.503906) scale(0.08 -0.08)">
       <defs>
        <path id="DejaVuSans-33" d="M 2597 2516 
Q 3050 2419 3304 2112 
Q 3559 1806 3559 1356 
Q 3559 666 3084 287 
Q 2609 -91 1734 -91 
Q 1441 -91 1130 -33 
Q 819 25 488 141 
L 488 750 
Q 750 597 1062 519 
Q 1375 441 1716 441 
Q 2309 441 2620 675 
Q 2931 909 2931 1356 
Q 2931 1769 2642 2001 
Q 2353 2234 1838 2234 
L 1294 2234 
L 1294 2753 
L 1863 2753 
Q 2328 2753 2575 2939 
Q 2822 3125 2822 3475 
Q 2822 3834 2567 4026 
Q 2313 4219 1838 4219 
Q 1578 4219 1281 4162 
Q 984 4106 628 3988 
L 628 4550 
Q 988 4650 1302 4700 
Q 1616 4750 1894 4750 
Q 2613 4750 3031 4423 
Q 3450 4097 3450 3541 
Q 3450 3153 3228 2886 
Q 3006 2619 2597 2516 
z
" transform="scale(0.015625)"/>
       </defs>
       <use xlink:href="#DejaVuSans-30"/>
       <use xlink:href="#DejaVuSans-2e" x="63.623047"/>
       <use xlink:href="#DejaVuSans-33" x="95.410156"/>
       <use xlink:href="#DejaVuSans-32" x="159.033203"/>
      </g>
     </g>
    </g>
    <g id="ytick_8">
     <g id="line2d_24">
      <g>
       <use xlink:href="#m6a01a4095c" x="275.158247" y="67.722812" style="stroke: #000000; stroke-width: 0.8"/>
      </g>
     </g>
     <g id="text_30">
      <!-- 0.63 -->
      <g transform="translate(250.845747 70.762187) scale(0.08 -0.08)">
       <use xlink:href="#DejaVuSans-30"/>
       <use xlink:href="#DejaVuSans-2e" x="63.623047"/>
       <use xlink:href="#DejaVuSans-36" x="95.410156"/>
       <use xlink:href="#DejaVuSans-33" x="159.033203"/>
      </g>
     </g>
    </g>
    <g id="ytick_9">
     <g id="line2d_25">
      <g>
       <use xlink:href="#m6a01a4095c" x="275.158247" y="38.981094" style="stroke: #000000; stroke-width: 0.8"/>
      </g>
     </g>
     <g id="text_31">
      <!-- 0.95 -->
      <g transform="translate(250.845747 42.020469) scale(0.08 -0.08)">
       <defs>
        <path id="DejaVuSans-39" d="M 703 97 
L 703 672 
Q 941 559 1184 500 
Q 1428 441 1663 441 
Q 2288 441 2617 861 
Q 2947 1281 2994 2138 
Q 2813 1869 2534 1725 
Q 2256 1581 1919 1581 
Q 1219 1581 811 2004 
Q 403 2428 403 3163 
Q 403 3881 828 4315 
Q 1253 4750 1959 4750 
Q 2769 4750 3195 4129 
Q 3622 3509 3622 2328 
Q 3622 1225 3098 567 
Q 2575 -91 1691 -91 
Q 1453 -91 1209 -44 
Q 966 3 703 97 
z
M 1959 2075 
Q 2384 2075 2632 2365 
Q 2881 2656 2881 3163 
Q 2881 3666 2632 3958 
Q 2384 4250 1959 4250 
Q 1534 4250 1286 3958 
Q 1038 3666 1038 3163 
Q 1038 2656 1286 2365 
Q 1534 2075 1959 2075 
z
" transform="scale(0.015625)"/>
        <path id="DejaVuSans-35" d="M 691 4666 
L 3169 4666 
L 3169 4134 
L 1269 4134 
L 1269 2991 
Q 1406 3038 1543 3061 
Q 1681 3084 1819 3084 
Q 2600 3084 3056 2656 
Q 3513 2228 3513 1497 
Q 3513 744 3044 326 
Q 2575 -91 1722 -91 
Q 1428 -91 1123 -41 
Q 819 9 494 109 
L 494 744 
Q 775 591 1075 516 
Q 1375 441 1709 441 
Q 2250 441 2565 725 
Q 2881 1009 2881 1497 
Q 2881 1984 2565 2268 
Q 2250 2553 1709 2553 
Q 1456 2553 1204 2497 
Q 953 2441 691 2322 
L 691 4666 
z
" transform="scale(0.015625)"/>
       </defs>
       <use xlink:href="#DejaVuSans-30"/>
       <use xlink:href="#DejaVuSans-2e" x="63.623047"/>
       <use xlink:href="#DejaVuSans-39" x="95.410156"/>
       <use xlink:href="#DejaVuSans-35" x="159.033203"/>
      </g>
     </g>
    </g>
    <g id="ytick_10">
     <g id="line2d_26">
      <g>
       <use xlink:href="#m6a01a4095c" x="275.158247" y="10.239375" style="stroke: #000000; stroke-width: 0.8"/>
      </g>
     </g>
     <g id="text_32">
      <!-- 1.26 -->
      <g transform="translate(250.845747 13.27875) scale(0.08 -0.08)">
       <use xlink:href="#DejaVuSans-31"/>
       <use xlink:href="#DejaVuSans-2e" x="63.623047"/>
       <use xlink:href="#DejaVuSans-32" x="95.410156"/>
       <use xlink:href="#DejaVuSans-36" x="159.033203"/>
      </g>
     </g>
    </g>
    <g id="text_33">
     <!-- Fracción de publicaciones ($\times 10^{-4}$) -->
     <g transform="translate(245.165747 136.602812) rotate(-90) scale(0.08 -0.08)">
      <use xlink:href="#DejaVuSans-46" transform="translate(0 0.684375)"/>
      <use xlink:href="#DejaVuSans-72" transform="translate(57.519531 0.684375)"/>
      <use xlink:href="#DejaVuSans-61" transform="translate(98.632812 0.684375)"/>
      <use xlink:href="#DejaVuSans-63" transform="translate(159.912109 0.684375)"/>
      <use xlink:href="#DejaVuSans-63" transform="translate(214.892578 0.684375)"/>
      <use xlink:href="#DejaVuSans-69" transform="translate(269.873047 0.684375)"/>
      <use xlink:href="#DejaVuSans-f3" transform="translate(297.65625 0.684375)"/>
      <use xlink:href="#DejaVuSans-6e" transform="translate(358.837891 0.684375)"/>
      <use xlink:href="#DejaVuSans-20" transform="translate(422.216797 0.684375)"/>
      <use xlink:href="#DejaVuSans-64" transform="translate(454.003906 0.684375)"/>
      <use xlink:href="#DejaVuSans-65" transform="translate(517.480469 0.684375)"/>
      <use xlink:href="#DejaVuSans-20" transform="translate(579.003906 0.684375)"/>
      <use xlink:href="#DejaVuSans-70" transform="translate(610.791016 0.684375)"/>
      <use xlink:href="#DejaVuSans-75" transform="translate(674.267578 0.684375)"/>
      <use xlink:href="#DejaVuSans-62" transform="translate(737.646484 0.684375)"/>
      <use xlink:href="#DejaVuSans-6c" transform="translate(801.123047 0.684375)"/>
      <use xlink:href="#DejaVuSans-69" transform="translate(828.90625 0.684375)"/>
      <use xlink:href="#DejaVuSans-63" transform="translate(856.689453 0.684375)"/>
      <use xlink:href="#DejaVuSans-61" transform="translate(911.669922 0.684375)"/>
      <use xlink:href="#DejaVuSans-63" transform="translate(972.949219 0.684375)"/>
      <use xlink:href="#DejaVuSans-69" transform="translate(1027.929688 0.684375)"/>
      <use xlink:href="#DejaVuSans-6f" transform="translate(1055.712891 0.684375)"/>
      <use xlink:href="#DejaVuSans-6e" transform="translate(1116.894531 0.684375)"/>
      <use xlink:href="#DejaVuSans-65" transform="translate(1180.273438 0.684375)"/>
      <use xlink:href="#DejaVuSans-73" transform="translate(1241.796875 0.684375)"/>
      <use xlink:href="#DejaVuSans-20" transform="translate(1293.896484 0.684375)"/>
      <use xlink:href="#DejaVuSans-28" transform="translate(1325.683594 0.684375)"/>
      <use xlink:href="#DejaVuSans-d7" transform="translate(1364.697266 0.684375)"/>
      <use xlink:href="#DejaVuSans-31" transform="translate(1448.486328 0.684375)"/>
      <use xlink:href="#DejaVuSans-30" transform="translate(1512.109375 0.684375)"/>
      <use xlink:href="#DejaVuSans-2212" transform="translate(1576.689453 38.965625) scale(0.7)"/>
      <use xlink:href="#DejaVuSans-34" transform="translate(1635.341797 38.965625) scale(0.7)"/>
      <use xlink:href="#DejaVuSans-29" transform="translate(1682.612305 0.684375)"/>
     </g>
    </g>
   </g>
   <g id="patch_69">
    <path d="M 275.158247 125.20625 
L 275.158247 10.239375 
" style="fill: none; stroke: #000000; stroke-width: 0.8; stroke-linejoin: miter; stroke-linecap: square"/>
   </g>
   <g id="patch_70">
    <path d="M 275.158247 125.20625 
L 453.453191 125.20625 
" style="fill: none; stroke: #000000; stroke-width: 0.8; stroke-linejoin: miter; stroke-linecap: square"/>
   </g>
   <g id="legend_2">
    <g id="patch_71">
     <path d="M 282.358247 23.838125 
L 298.358247 23.838125 
L 298.358247 18.238125 
L 282.358247 18.238125 
z
" style="fill: #8e8e8e"/>
    </g>
    <g id="text_34">
     <!-- Propagación de ondas -->
     <g transform="translate(304.758247 23.838125) scale(0.08 -0.08)">
      <defs>
       <path id="DejaVuSans-50" d="M 1259 4147 
L 1259 2394 
L 2053 2394 
Q 2494 2394 2734 2622 
Q 2975 2850 2975 3272 
Q 2975 3691 2734 3919 
Q 2494 4147 2053 4147 
L 1259 4147 
z
M 628 4666 
L 2053 4666 
Q 2838 4666 3239 4311 
Q 3641 3956 3641 3272 
Q 3641 2581 3239 2228 
Q 2838 1875 2053 1875 
L 1259 1875 
L 1259 0 
L 628 0 
L 628 4666 
z
" transform="scale(0.015625)"/>
       <path id="DejaVuSans-67" d="M 2906 1791 
Q 2906 2416 2648 2759 
Q 2391 3103 1925 3103 
Q 1463 3103 1205 2759 
Q 947 2416 947 1791 
Q 947 1169 1205 825 
Q 1463 481 1925 481 
Q 2391 481 2648 825 
Q 2906 1169 2906 1791 
z
M 3481 434 
Q 3481 -459 3084 -895 
Q 2688 -1331 1869 -1331 
Q 1566 -1331 1297 -1286 
Q 1028 -1241 775 -1147 
L 775 -588 
Q 1028 -725 1275 -790 
Q 1522 -856 1778 -856 
Q 2344 -856 2625 -561 
Q 2906 -266 2906 331 
L 2906 616 
Q 2728 306 2450 153 
Q 2172 0 1784 0 
Q 1141 0 747 490 
Q 353 981 353 1791 
Q 353 2603 747 3093 
Q 1141 3584 1784 3584 
Q 2172 3584 2450 3431 
Q 2728 3278 2906 2969 
L 2906 3500 
L 3481 3500 
L 3481 434 
z
" transform="scale(0.015625)"/>
      </defs>
      <use xlink:href="#DejaVuSans-50"/>
      <use xlink:href="#DejaVuSans-72" x="58.552734"/>
      <use xlink:href="#DejaVuSans-6f" x="97.416016"/>
      <use xlink:href="#DejaVuSans-70" x="158.597656"/>
      <use xlink:href="#DejaVuSans-61" x="222.074219"/>
      <use xlink:href="#DejaVuSans-67" x="283.353516"/>
      <use xlink:href="#DejaVuSans-61" x="346.830078"/>
      <use xlink:href="#DejaVuSans-63" x="408.109375"/>
      <use xlink:href="#DejaVuSans-69" x="463.089844"/>
      <use xlink:href="#DejaVuSans-f3" x="490.873047"/>
      <use xlink:href="#DejaVuSans-6e" x="552.054688"/>
      <use xlink:href="#DejaVuSans-20" x="615.433594"/>
      <use xlink:href="#DejaVuSans-64" x="647.220703"/>
      <use xlink:href="#DejaVuSans-65" x="710.697266"/>
      <use xlink:href="#DejaVuSans-20" x="772.220703"/>
      <use xlink:href="#DejaVuSans-6f" x="804.007812"/>
      <use xlink:href="#DejaVuSans-6e" x="865.189453"/>
      <use xlink:href="#DejaVuSans-64" x="928.568359"/>
      <use xlink:href="#DejaVuSans-61" x="992.044922"/>
      <use xlink:href="#DejaVuSans-73" x="1053.324219"/>
     </g>
    </g>
   </g>
  </g>
  <g id="axes_3">
   <g id="patch_72">
    <path d="M 41.0325 283.5975 
L 219.327445 283.5975 
L 219.327445 168.630625 
L 41.0325 168.630625 
z
" style="fill: #ffffff"/>
   </g>
   <g id="patch_73">
    <path d="M 49.136816 283.5975 
L 95.447191 283.5975 
L 95.447191 234.736578 
L 49.136816 234.736578 
z
" clip-path="url(#pae362f4640)"/>
   </g>
   <g id="patch_74">
    <path d="M 107.024785 283.5975 
L 153.33516 283.5975 
L 153.33516 245.09498 
L 107.024785 245.09498 
z
" clip-path="url(#pae362f4640)" style="fill: #2255a0; fill-opacity: 0.501961"/>
   </g>
   <g id="patch_75">
    <path d="M 164.912754 283.5975 
L 211.223129 283.5975 
L 211.223129 283.047328 
L 164.912754 283.047328 
z
" clip-path="url(#pae362f4640)" style="fill: #8e8e8e"/>
   </g>
   <g id="matplotlib.axis_5">
    <g id="xtick_17">
     <g id="line2d_27">
      <g>
       <use xlink:href="#me109a2466c" x="72.292003" y="283.5975" style="stroke: #000000; stroke-width: 0.8"/>
      </g>
     </g>
     <g id="text_35">
      <!-- TensorFlow -->
      <g transform="translate(50.226378 296.17625) scale(0.08 -0.08)">
       <defs>
        <path id="DejaVuSans-54" d="M -19 4666 
L 3928 4666 
L 3928 4134 
L 2272 4134 
L 2272 0 
L 1638 0 
L 1638 4134 
L -19 4134 
L -19 4666 
z
" transform="scale(0.015625)"/>
        <path id="DejaVuSans-77" d="M 269 3500 
L 844 3500 
L 1563 769 
L 2278 3500 
L 2956 3500 
L 3675 769 
L 4391 3500 
L 4966 3500 
L 4050 0 
L 3372 0 
L 2619 2869 
L 1863 0 
L 1184 0 
L 269 3500 
z
" transform="scale(0.015625)"/>
       </defs>
       <use xlink:href="#DejaVuSans-54"/>
       <use xlink:href="#DejaVuSans-65" x="44.083984"/>
       <use xlink:href="#DejaVuSans-6e" x="105.607422"/>
       <use xlink:href="#DejaVuSans-73" x="168.986328"/>
       <use xlink:href="#DejaVuSans-6f" x="221.085938"/>
       <use xlink:href="#DejaVuSans-72" x="282.267578"/>
       <use xlink:href="#DejaVuSans-46" x="323.380859"/>
       <use xlink:href="#DejaVuSans-6c" x="380.900391"/>
       <use xlink:href="#DejaVuSans-6f" x="408.683594"/>
       <use xlink:href="#DejaVuSans-77" x="469.865234"/>
      </g>
     </g>
    </g>
    <g id="xtick_18">
     <g id="line2d_28">
      <g>
       <use xlink:href="#me109a2466c" x="130.179972" y="283.5975" style="stroke: #000000; stroke-width: 0.8"/>
      </g>
     </g>
     <g id="text_36">
      <!-- PyTorch -->
      <g transform="translate(114.901222 296.17625) scale(0.08 -0.08)">
       <defs>
        <path id="DejaVuSans-79" d="M 2059 -325 
Q 1816 -950 1584 -1140 
Q 1353 -1331 966 -1331 
L 506 -1331 
L 506 -850 
L 844 -850 
Q 1081 -850 1212 -737 
Q 1344 -625 1503 -206 
L 1606 56 
L 191 3500 
L 800 3500 
L 1894 763 
L 2988 3500 
L 3597 3500 
L 2059 -325 
z
" transform="scale(0.015625)"/>
        <path id="DejaVuSans-68" d="M 3513 2113 
L 3513 0 
L 2938 0 
L 2938 2094 
Q 2938 2591 2744 2837 
Q 2550 3084 2163 3084 
Q 1697 3084 1428 2787 
Q 1159 2491 1159 1978 
L 1159 0 
L 581 0 
L 581 4863 
L 1159 4863 
L 1159 2956 
Q 1366 3272 1645 3428 
Q 1925 3584 2291 3584 
Q 2894 3584 3203 3211 
Q 3513 2838 3513 2113 
z
" transform="scale(0.015625)"/>
       </defs>
       <use xlink:href="#DejaVuSans-50"/>
       <use xlink:href="#DejaVuSans-79" x="60.302734"/>
       <use xlink:href="#DejaVuSans-54" x="119.482422"/>
       <use xlink:href="#DejaVuSans-6f" x="163.566406"/>
       <use xlink:href="#DejaVuSans-72" x="224.748047"/>
       <use xlink:href="#DejaVuSans-63" x="263.611328"/>
       <use xlink:href="#DejaVuSans-68" x="318.591797"/>
      </g>
     </g>
    </g>
    <g id="xtick_19">
     <g id="line2d_29">
      <g>
       <use xlink:href="#me109a2466c" x="188.067941" y="283.5975" style="stroke: #000000; stroke-width: 0.8"/>
      </g>
     </g>
     <g id="text_37">
      <!-- JAX -->
      <g transform="translate(181.481691 296.17625) scale(0.08 -0.08)">
       <defs>
        <path id="DejaVuSans-4a" d="M 628 4666 
L 1259 4666 
L 1259 325 
Q 1259 -519 939 -900 
Q 619 -1281 -91 -1281 
L -331 -1281 
L -331 -750 
L -134 -750 
Q 284 -750 456 -515 
Q 628 -281 628 325 
L 628 4666 
z
" transform="scale(0.015625)"/>
        <path id="DejaVuSans-58" d="M 403 4666 
L 1081 4666 
L 2241 2931 
L 3406 4666 
L 4084 4666 
L 2584 2425 
L 4184 0 
L 3506 0 
L 2194 1984 
L 872 0 
L 191 0 
L 1856 2491 
L 403 4666 
z
" transform="scale(0.015625)"/>
       </defs>
       <use xlink:href="#DejaVuSans-4a"/>
       <use xlink:href="#DejaVuSans-41" x="27.742188"/>
       <use xlink:href="#DejaVuSans-58" x="96.150391"/>
      </g>
     </g>
    </g>
    <g id="text_38">
     <!-- $Framework$ de Python -->
     <g transform="translate(86.299972 307.92) scale(0.08 -0.08)">
      <defs>
       <path id="DejaVuSans-Oblique-46" d="M 1081 4666 
L 3756 4666 
L 3653 4134 
L 1606 4134 
L 1338 2759 
L 3188 2759 
L 3084 2228 
L 1234 2228 
L 800 0 
L 172 0 
L 1081 4666 
z
" transform="scale(0.015625)"/>
       <path id="DejaVuSans-Oblique-72" d="M 2853 2969 
Q 2766 3016 2653 3041 
Q 2541 3066 2413 3066 
Q 1953 3066 1609 2717 
Q 1266 2369 1153 1784 
L 800 0 
L 225 0 
L 909 3500 
L 1484 3500 
L 1375 2956 
Q 1603 3259 1920 3421 
Q 2238 3584 2597 3584 
Q 2691 3584 2781 3573 
Q 2872 3563 2963 3538 
L 2853 2969 
z
" transform="scale(0.015625)"/>
       <path id="DejaVuSans-Oblique-61" d="M 3438 1997 
L 3047 0 
L 2472 0 
L 2578 531 
Q 2325 219 2001 64 
Q 1678 -91 1281 -91 
Q 834 -91 548 182 
Q 263 456 263 884 
Q 263 1497 752 1853 
Q 1241 2209 2100 2209 
L 2900 2209 
L 2931 2363 
Q 2938 2388 2941 2417 
Q 2944 2447 2944 2509 
Q 2944 2788 2717 2942 
Q 2491 3097 2081 3097 
Q 1800 3097 1504 3025 
Q 1209 2953 897 2809 
L 997 3341 
Q 1322 3463 1633 3523 
Q 1944 3584 2234 3584 
Q 2853 3584 3176 3315 
Q 3500 3047 3500 2534 
Q 3500 2431 3484 2292 
Q 3469 2153 3438 1997 
z
M 2816 1759 
L 2241 1759 
Q 1534 1759 1195 1570 
Q 856 1381 856 984 
Q 856 709 1029 553 
Q 1203 397 1509 397 
Q 1978 397 2328 733 
Q 2678 1069 2791 1631 
L 2816 1759 
z
" transform="scale(0.015625)"/>
       <path id="DejaVuSans-Oblique-6d" d="M 5747 2113 
L 5338 0 
L 4763 0 
L 5166 2094 
Q 5191 2228 5203 2325 
Q 5216 2422 5216 2491 
Q 5216 2772 5059 2928 
Q 4903 3084 4622 3084 
Q 4203 3084 3875 2770 
Q 3547 2456 3450 1953 
L 3066 0 
L 2491 0 
L 2900 2094 
Q 2925 2209 2937 2307 
Q 2950 2406 2950 2484 
Q 2950 2769 2794 2926 
Q 2638 3084 2363 3084 
Q 1938 3084 1609 2770 
Q 1281 2456 1184 1953 
L 800 0 
L 225 0 
L 909 3500 
L 1484 3500 
L 1375 2956 
Q 1609 3263 1923 3423 
Q 2238 3584 2597 3584 
Q 2978 3584 3223 3384 
Q 3469 3184 3519 2828 
Q 3781 3197 4126 3390 
Q 4472 3584 4856 3584 
Q 5306 3584 5551 3325 
Q 5797 3066 5797 2591 
Q 5797 2488 5784 2364 
Q 5772 2241 5747 2113 
z
" transform="scale(0.015625)"/>
       <path id="DejaVuSans-Oblique-65" d="M 3078 2063 
Q 3088 2113 3092 2166 
Q 3097 2219 3097 2272 
Q 3097 2653 2873 2875 
Q 2650 3097 2266 3097 
Q 1838 3097 1509 2826 
Q 1181 2556 1013 2059 
L 3078 2063 
z
M 3578 1613 
L 903 1613 
Q 884 1494 878 1425 
Q 872 1356 872 1306 
Q 872 872 1139 634 
Q 1406 397 1894 397 
Q 2269 397 2603 481 
Q 2938 566 3225 728 
L 3116 159 
Q 2806 34 2476 -28 
Q 2147 -91 1806 -91 
Q 1078 -91 686 257 
Q 294 606 294 1247 
Q 294 1794 489 2264 
Q 684 2734 1063 3103 
Q 1306 3334 1642 3459 
Q 1978 3584 2356 3584 
Q 2950 3584 3301 3228 
Q 3653 2872 3653 2272 
Q 3653 2128 3634 1964 
Q 3616 1800 3578 1613 
z
" transform="scale(0.015625)"/>
       <path id="DejaVuSans-Oblique-77" d="M 544 3500 
L 1113 3500 
L 1259 684 
L 2566 3500 
L 3231 3500 
L 3425 684 
L 4666 3500 
L 5241 3500 
L 3641 0 
L 2969 0 
L 2797 2900 
L 1459 0 
L 781 0 
L 544 3500 
z
" transform="scale(0.015625)"/>
       <path id="DejaVuSans-Oblique-6f" d="M 1625 -91 
Q 1009 -91 651 289 
Q 294 669 294 1325 
Q 294 1706 417 2101 
Q 541 2497 738 2766 
Q 1047 3184 1428 3384 
Q 1809 3584 2291 3584 
Q 2888 3584 3255 3212 
Q 3622 2841 3622 2241 
Q 3622 1825 3500 1412 
Q 3378 1000 3181 728 
Q 2875 309 2494 109 
Q 2113 -91 1625 -91 
z
M 891 1344 
Q 891 869 1089 633 
Q 1288 397 1691 397 
Q 2269 397 2648 901 
Q 3028 1406 3028 2181 
Q 3028 2634 2825 2865 
Q 2622 3097 2228 3097 
Q 1903 3097 1650 2945 
Q 1397 2794 1197 2484 
Q 1050 2253 970 1956 
Q 891 1659 891 1344 
z
" transform="scale(0.015625)"/>
       <path id="DejaVuSans-Oblique-6b" d="M 1172 4863 
L 1747 4863 
L 1197 2028 
L 3169 3500 
L 3916 3500 
L 1716 1825 
L 3322 0 
L 2625 0 
L 1131 1709 
L 800 0 
L 225 0 
L 1172 4863 
z
" transform="scale(0.015625)"/>
      </defs>
      <use xlink:href="#DejaVuSans-Oblique-46" transform="translate(0 0.015625)"/>
      <use xlink:href="#DejaVuSans-Oblique-72" transform="translate(57.519531 0.015625)"/>
      <use xlink:href="#DejaVuSans-Oblique-61" transform="translate(98.632812 0.015625)"/>
      <use xlink:href="#DejaVuSans-Oblique-6d" transform="translate(159.912109 0.015625)"/>
      <use xlink:href="#DejaVuSans-Oblique-65" transform="translate(257.324219 0.015625)"/>
      <use xlink:href="#DejaVuSans-Oblique-77" transform="translate(318.847656 0.015625)"/>
      <use xlink:href="#DejaVuSans-Oblique-6f" transform="translate(400.634766 0.015625)"/>
      <use xlink:href="#DejaVuSans-Oblique-72" transform="translate(461.816406 0.015625)"/>
      <use xlink:href="#DejaVuSans-Oblique-6b" transform="translate(502.929688 0.015625)"/>
      <use xlink:href="#DejaVuSans-20" transform="translate(560.839844 0.015625)"/>
      <use xlink:href="#DejaVuSans-64" transform="translate(592.626953 0.015625)"/>
      <use xlink:href="#DejaVuSans-65" transform="translate(656.103516 0.015625)"/>
      <use xlink:href="#DejaVuSans-20" transform="translate(717.626953 0.015625)"/>
      <use xlink:href="#DejaVuSans-50" transform="translate(749.414062 0.015625)"/>
      <use xlink:href="#DejaVuSans-79" transform="translate(809.716797 0.015625)"/>
      <use xlink:href="#DejaVuSans-74" transform="translate(868.896484 0.015625)"/>
      <use xlink:href="#DejaVuSans-68" transform="translate(908.105469 0.015625)"/>
      <use xlink:href="#DejaVuSans-6f" transform="translate(971.484375 0.015625)"/>
      <use xlink:href="#DejaVuSans-6e" transform="translate(1032.666016 0.015625)"/>
     </g>
    </g>
   </g>
   <g id="matplotlib.axis_6">
    <g id="ytick_11">
     <g id="line2d_30">
      <g>
       <use xlink:href="#m6a01a4095c" x="41.0325" y="283.5975" style="stroke: #000000; stroke-width: 0.8"/>
      </g>
     </g>
     <g id="text_39">
      <!-- 0 -->
      <g transform="translate(29.4425 286.636875) scale(0.08 -0.08)">
       <use xlink:href="#DejaVuSans-30"/>
      </g>
     </g>
    </g>
    <g id="ytick_12">
     <g id="line2d_31">
      <g>
       <use xlink:href="#m6a01a4095c" x="41.0325" y="260.831782" style="stroke: #000000; stroke-width: 0.8"/>
      </g>
     </g>
     <g id="text_40">
      <!-- 20 -->
      <g transform="translate(24.3525 263.871157) scale(0.08 -0.08)">
       <use xlink:href="#DejaVuSans-32"/>
       <use xlink:href="#DejaVuSans-30" x="63.623047"/>
      </g>
     </g>
    </g>
    <g id="ytick_13">
     <g id="line2d_32">
      <g>
       <use xlink:href="#m6a01a4095c" x="41.0325" y="238.066064" style="stroke: #000000; stroke-width: 0.8"/>
      </g>
     </g>
     <g id="text_41">
      <!-- 40 -->
      <g transform="translate(24.3525 241.105439) scale(0.08 -0.08)">
       <use xlink:href="#DejaVuSans-34"/>
       <use xlink:href="#DejaVuSans-30" x="63.623047"/>
      </g>
     </g>
    </g>
    <g id="ytick_14">
     <g id="line2d_33">
      <g>
       <use xlink:href="#m6a01a4095c" x="41.0325" y="215.300347" style="stroke: #000000; stroke-width: 0.8"/>
      </g>
     </g>
     <g id="text_42">
      <!-- 60 -->
      <g transform="translate(24.3525 218.339722) scale(0.08 -0.08)">
       <use xlink:href="#DejaVuSans-36"/>
       <use xlink:href="#DejaVuSans-30" x="63.623047"/>
      </g>
     </g>
    </g>
    <g id="ytick_15">
     <g id="line2d_34">
      <g>
       <use xlink:href="#m6a01a4095c" x="41.0325" y="192.534629" style="stroke: #000000; stroke-width: 0.8"/>
      </g>
     </g>
     <g id="text_43">
      <!-- 80 -->
      <g transform="translate(24.3525 195.574004) scale(0.08 -0.08)">
       <use xlink:href="#DejaVuSans-38"/>
       <use xlink:href="#DejaVuSans-30" x="63.623047"/>
      </g>
     </g>
    </g>
    <g id="ytick_16">
     <g id="line2d_35">
      <g>
       <use xlink:href="#m6a01a4095c" x="41.0325" y="169.768911" style="stroke: #000000; stroke-width: 0.8"/>
      </g>
     </g>
     <g id="text_44">
      <!-- 100 -->
      <g transform="translate(19.2625 172.808286) scale(0.08 -0.08)">
       <use xlink:href="#DejaVuSans-31"/>
       <use xlink:href="#DejaVuSans-30" x="63.623047"/>
       <use xlink:href="#DejaVuSans-30" x="127.246094"/>
      </g>
     </g>
    </g>
    <g id="text_45">
     <!-- Interés promedio (%) -->
     <g transform="translate(13.59875 268.419062) rotate(-90) scale(0.08 -0.08)">
      <defs>
       <path id="DejaVuSans-49" d="M 628 4666 
L 1259 4666 
L 1259 0 
L 628 0 
L 628 4666 
z
" transform="scale(0.015625)"/>
       <path id="DejaVuSans-25" d="M 4653 2053 
Q 4381 2053 4226 1822 
Q 4072 1591 4072 1178 
Q 4072 772 4226 539 
Q 4381 306 4653 306 
Q 4919 306 5073 539 
Q 5228 772 5228 1178 
Q 5228 1588 5073 1820 
Q 4919 2053 4653 2053 
z
M 4653 2450 
Q 5147 2450 5437 2106 
Q 5728 1763 5728 1178 
Q 5728 594 5436 251 
Q 5144 -91 4653 -91 
Q 4153 -91 3862 251 
Q 3572 594 3572 1178 
Q 3572 1766 3864 2108 
Q 4156 2450 4653 2450 
z
M 1428 4353 
Q 1159 4353 1004 4120 
Q 850 3888 850 3481 
Q 850 3069 1003 2837 
Q 1156 2606 1428 2606 
Q 1700 2606 1854 2837 
Q 2009 3069 2009 3481 
Q 2009 3884 1853 4118 
Q 1697 4353 1428 4353 
z
M 4250 4750 
L 4750 4750 
L 1831 -91 
L 1331 -91 
L 4250 4750 
z
M 1428 4750 
Q 1922 4750 2215 4408 
Q 2509 4066 2509 3481 
Q 2509 2891 2217 2550 
Q 1925 2209 1428 2209 
Q 931 2209 642 2551 
Q 353 2894 353 3481 
Q 353 4063 643 4406 
Q 934 4750 1428 4750 
z
" transform="scale(0.015625)"/>
      </defs>
      <use xlink:href="#DejaVuSans-49"/>
      <use xlink:href="#DejaVuSans-6e" x="29.492188"/>
      <use xlink:href="#DejaVuSans-74" x="92.871094"/>
      <use xlink:href="#DejaVuSans-65" x="132.080078"/>
      <use xlink:href="#DejaVuSans-72" x="193.603516"/>
      <use xlink:href="#DejaVuSans-e9" x="232.466797"/>
      <use xlink:href="#DejaVuSans-73" x="293.990234"/>
      <use xlink:href="#DejaVuSans-20" x="346.089844"/>
      <use xlink:href="#DejaVuSans-70" x="377.876953"/>
      <use xlink:href="#DejaVuSans-72" x="441.353516"/>
      <use xlink:href="#DejaVuSans-6f" x="480.216797"/>
      <use xlink:href="#DejaVuSans-6d" x="541.398438"/>
      <use xlink:href="#DejaVuSans-65" x="638.810547"/>
      <use xlink:href="#DejaVuSans-64" x="700.333984"/>
      <use xlink:href="#DejaVuSans-69" x="763.810547"/>
      <use xlink:href="#DejaVuSans-6f" x="791.59375"/>
      <use xlink:href="#DejaVuSans-20" x="852.775391"/>
      <use xlink:href="#DejaVuSans-28" x="884.5625"/>
      <use xlink:href="#DejaVuSans-25" x="923.576172"/>
      <use xlink:href="#DejaVuSans-29" x="1018.595703"/>
     </g>
    </g>
   </g>
   <g id="patch_76">
    <path d="M 41.0325 283.5975 
L 41.0325 168.630625 
" style="fill: none; stroke: #000000; stroke-width: 0.8; stroke-linejoin: miter; stroke-linecap: square"/>
   </g>
   <g id="patch_77">
    <path d="M 41.0325 283.5975 
L 219.327445 283.5975 
" style="fill: none; stroke: #000000; stroke-width: 0.8; stroke-linejoin: miter; stroke-linecap: square"/>
   </g>
   <g id="text_46">
    <!-- 42.9% -->
    <g transform="translate(59.585128 233.050062) scale(0.08 -0.08)">
     <use xlink:href="#DejaVuSans-34"/>
     <use xlink:href="#DejaVuSans-32" x="63.623047"/>
     <use xlink:href="#DejaVuSans-2e" x="127.246094"/>
     <use xlink:href="#DejaVuSans-39" x="159.033203"/>
     <use xlink:href="#DejaVuSans-25" x="222.65625"/>
    </g>
   </g>
   <g id="text_47">
    <!-- 33.8% -->
    <g transform="translate(117.473097 243.408464) scale(0.08 -0.08)">
     <use xlink:href="#DejaVuSans-33"/>
     <use xlink:href="#DejaVuSans-33" x="63.623047"/>
     <use xlink:href="#DejaVuSans-2e" x="127.246094"/>
     <use xlink:href="#DejaVuSans-38" x="159.033203"/>
     <use xlink:href="#DejaVuSans-25" x="222.65625"/>
    </g>
   </g>
   <g id="text_48">
    <!-- 0.5% -->
    <g transform="translate(177.906066 281.360813) scale(0.08 -0.08)">
     <use xlink:href="#DejaVuSans-30"/>
     <use xlink:href="#DejaVuSans-2e" x="63.623047"/>
     <use xlink:href="#DejaVuSans-35" x="95.410156"/>
     <use xlink:href="#DejaVuSans-25" x="159.033203"/>
    </g>
   </g>
  </g>
  <g id="axes_4">
   <g id="patch_78">
    <path d="M 275.158247 283.5975 
L 453.453191 283.5975 
L 453.453191 168.630625 
L 275.158247 168.630625 
z
" style="fill: #ffffff"/>
   </g>
   <g id="matplotlib.axis_7">
    <g id="xtick_20">
     <g id="line2d_36">
      <g>
       <use xlink:href="#me109a2466c" x="275.158247" y="283.5975" style="stroke: #000000; stroke-width: 0.8"/>
      </g>
     </g>
     <g id="text_49">
      <!-- 2015 -->
      <g transform="translate(264.978247 296.17625) scale(0.08 -0.08)">
       <use xlink:href="#DejaVuSans-32"/>
       <use xlink:href="#DejaVuSans-30" x="63.623047"/>
       <use xlink:href="#DejaVuSans-31" x="127.246094"/>
       <use xlink:href="#DejaVuSans-35" x="190.869141"/>
      </g>
     </g>
    </g>
    <g id="xtick_21">
     <g id="line2d_37">
      <g>
       <use xlink:href="#me109a2466c" x="310.26967" y="283.5975" style="stroke: #000000; stroke-width: 0.8"/>
      </g>
     </g>
     <g id="text_50">
      <!-- 2017 -->
      <g transform="translate(300.08967 296.17625) scale(0.08 -0.08)">
       <defs>
        <path id="DejaVuSans-37" d="M 525 4666 
L 3525 4666 
L 3525 4397 
L 1831 0 
L 1172 0 
L 2766 4134 
L 525 4134 
L 525 4666 
z
" transform="scale(0.015625)"/>
       </defs>
       <use xlink:href="#DejaVuSans-32"/>
       <use xlink:href="#DejaVuSans-30" x="63.623047"/>
       <use xlink:href="#DejaVuSans-31" x="127.246094"/>
       <use xlink:href="#DejaVuSans-37" x="190.869141"/>
      </g>
     </g>
    </g>
    <g id="xtick_22">
     <g id="line2d_38">
      <g>
       <use xlink:href="#me109a2466c" x="345.333062" y="283.5975" style="stroke: #000000; stroke-width: 0.8"/>
      </g>
     </g>
     <g id="text_51">
      <!-- 2019 -->
      <g transform="translate(335.153062 296.17625) scale(0.08 -0.08)">
       <use xlink:href="#DejaVuSans-32"/>
       <use xlink:href="#DejaVuSans-30" x="63.623047"/>
       <use xlink:href="#DejaVuSans-31" x="127.246094"/>
       <use xlink:href="#DejaVuSans-39" x="190.869141"/>
      </g>
     </g>
    </g>
    <g id="xtick_23">
     <g id="line2d_39">
      <g>
       <use xlink:href="#me109a2466c" x="380.444485" y="283.5975" style="stroke: #000000; stroke-width: 0.8"/>
      </g>
     </g>
     <g id="text_52">
      <!-- 2021 -->
      <g transform="translate(370.264485 296.17625) scale(0.08 -0.08)">
       <use xlink:href="#DejaVuSans-32"/>
       <use xlink:href="#DejaVuSans-30" x="63.623047"/>
       <use xlink:href="#DejaVuSans-32" x="127.246094"/>
       <use xlink:href="#DejaVuSans-31" x="190.869141"/>
      </g>
     </g>
    </g>
    <g id="xtick_24">
     <g id="line2d_40">
      <g>
       <use xlink:href="#me109a2466c" x="415.507877" y="283.5975" style="stroke: #000000; stroke-width: 0.8"/>
      </g>
     </g>
     <g id="text_53">
      <!-- 2023 -->
      <g transform="translate(405.327877 296.17625) scale(0.08 -0.08)">
       <use xlink:href="#DejaVuSans-32"/>
       <use xlink:href="#DejaVuSans-30" x="63.623047"/>
       <use xlink:href="#DejaVuSans-32" x="127.246094"/>
       <use xlink:href="#DejaVuSans-33" x="190.869141"/>
      </g>
     </g>
    </g>
    <g id="xtick_25">
     <g id="line2d_41">
      <g>
       <use xlink:href="#me109a2466c" x="450.619301" y="283.5975" style="stroke: #000000; stroke-width: 0.8"/>
      </g>
     </g>
     <g id="text_54">
      <!-- 2025 -->
      <g transform="translate(440.439301 296.17625) scale(0.08 -0.08)">
       <use xlink:href="#DejaVuSans-32"/>
       <use xlink:href="#DejaVuSans-30" x="63.623047"/>
       <use xlink:href="#DejaVuSans-32" x="127.246094"/>
       <use xlink:href="#DejaVuSans-35" x="190.869141"/>
      </g>
     </g>
    </g>
    <g id="text_55">
     <!-- Año -->
     <g transform="translate(356.586969 307.91875) scale(0.08 -0.08)">
      <use xlink:href="#DejaVuSans-41"/>
      <use xlink:href="#DejaVuSans-f1" x="68.408203"/>
      <use xlink:href="#DejaVuSans-6f" x="131.787109"/>
     </g>
    </g>
   </g>
   <g id="matplotlib.axis_8">
    <g id="ytick_17">
     <g id="line2d_42">
      <g>
       <use xlink:href="#m6a01a4095c" x="275.158247" y="278.122887" style="stroke: #000000; stroke-width: 0.8"/>
      </g>
     </g>
     <g id="text_56">
      <!-- 0 -->
      <g transform="translate(263.568247 281.162262) scale(0.08 -0.08)">
       <use xlink:href="#DejaVuSans-30"/>
      </g>
     </g>
    </g>
    <g id="ytick_18">
     <g id="line2d_43">
      <g>
       <use xlink:href="#m6a01a4095c" x="275.158247" y="256.224435" style="stroke: #000000; stroke-width: 0.8"/>
      </g>
     </g>
     <g id="text_57">
      <!-- 20 -->
      <g transform="translate(258.478247 259.26381) scale(0.08 -0.08)">
       <use xlink:href="#DejaVuSans-32"/>
       <use xlink:href="#DejaVuSans-30" x="63.623047"/>
      </g>
     </g>
    </g>
    <g id="ytick_19">
     <g id="line2d_44">
      <g>
       <use xlink:href="#m6a01a4095c" x="275.158247" y="234.325982" style="stroke: #000000; stroke-width: 0.8"/>
      </g>
     </g>
     <g id="text_58">
      <!-- 40 -->
      <g transform="translate(258.478247 237.365357) scale(0.08 -0.08)">
       <use xlink:href="#DejaVuSans-34"/>
       <use xlink:href="#DejaVuSans-30" x="63.623047"/>
      </g>
     </g>
    </g>
    <g id="ytick_20">
     <g id="line2d_45">
      <g>
       <use xlink:href="#m6a01a4095c" x="275.158247" y="212.42753" style="stroke: #000000; stroke-width: 0.8"/>
      </g>
     </g>
     <g id="text_59">
      <!-- 60 -->
      <g transform="translate(258.478247 215.466905) scale(0.08 -0.08)">
       <use xlink:href="#DejaVuSans-36"/>
       <use xlink:href="#DejaVuSans-30" x="63.623047"/>
      </g>
     </g>
    </g>
    <g id="ytick_21">
     <g id="line2d_46">
      <g>
       <use xlink:href="#m6a01a4095c" x="275.158247" y="190.529077" style="stroke: #000000; stroke-width: 0.8"/>
      </g>
     </g>
     <g id="text_60">
      <!-- 80 -->
      <g transform="translate(258.478247 193.568452) scale(0.08 -0.08)">
       <use xlink:href="#DejaVuSans-38"/>
       <use xlink:href="#DejaVuSans-30" x="63.623047"/>
      </g>
     </g>
    </g>
    <g id="ytick_22">
     <g id="line2d_47">
      <g>
       <use xlink:href="#m6a01a4095c" x="275.158247" y="168.630625" style="stroke: #000000; stroke-width: 0.8"/>
      </g>
     </g>
     <g id="text_61">
      <!-- 100 -->
      <g transform="translate(253.388247 171.67) scale(0.08 -0.08)">
       <use xlink:href="#DejaVuSans-31"/>
       <use xlink:href="#DejaVuSans-30" x="63.623047"/>
       <use xlink:href="#DejaVuSans-30" x="127.246094"/>
      </g>
     </g>
    </g>
    <g id="text_62">
     <!-- Interés a lo largo del tiempo (%) -->
     <g transform="translate(247.724497 290.776562) rotate(-90) scale(0.08 -0.08)">
      <use xlink:href="#DejaVuSans-49"/>
      <use xlink:href="#DejaVuSans-6e" x="29.492188"/>
      <use xlink:href="#DejaVuSans-74" x="92.871094"/>
      <use xlink:href="#DejaVuSans-65" x="132.080078"/>
      <use xlink:href="#DejaVuSans-72" x="193.603516"/>
      <use xlink:href="#DejaVuSans-e9" x="232.466797"/>
      <use xlink:href="#DejaVuSans-73" x="293.990234"/>
      <use xlink:href="#DejaVuSans-20" x="346.089844"/>
      <use xlink:href="#DejaVuSans-61" x="377.876953"/>
      <use xlink:href="#DejaVuSans-20" x="439.15625"/>
      <use xlink:href="#DejaVuSans-6c" x="470.943359"/>
      <use xlink:href="#DejaVuSans-6f" x="498.726562"/>
      <use xlink:href="#DejaVuSans-20" x="559.908203"/>
      <use xlink:href="#DejaVuSans-6c" x="591.695312"/>
      <use xlink:href="#DejaVuSans-61" x="619.478516"/>
      <use xlink:href="#DejaVuSans-72" x="680.757812"/>
      <use xlink:href="#DejaVuSans-67" x="720.121094"/>
      <use xlink:href="#DejaVuSans-6f" x="783.597656"/>
      <use xlink:href="#DejaVuSans-20" x="844.779297"/>
      <use xlink:href="#DejaVuSans-64" x="876.566406"/>
      <use xlink:href="#DejaVuSans-65" x="940.042969"/>
      <use xlink:href="#DejaVuSans-6c" x="1001.566406"/>
      <use xlink:href="#DejaVuSans-20" x="1029.349609"/>
      <use xlink:href="#DejaVuSans-74" x="1061.136719"/>
      <use xlink:href="#DejaVuSans-69" x="1100.345703"/>
      <use xlink:href="#DejaVuSans-65" x="1128.128906"/>
      <use xlink:href="#DejaVuSans-6d" x="1189.652344"/>
      <use xlink:href="#DejaVuSans-70" x="1287.064453"/>
      <use xlink:href="#DejaVuSans-6f" x="1350.541016"/>
      <use xlink:href="#DejaVuSans-20" x="1411.722656"/>
      <use xlink:href="#DejaVuSans-28" x="1443.509766"/>
      <use xlink:href="#DejaVuSans-25" x="1482.523438"/>
      <use xlink:href="#DejaVuSans-29" x="1577.542969"/>
     </g>
    </g>
   </g>
   <g id="line2d_48">
    <path d="M 275.158247 278.122887 
L 276.64724 278.122887 
L 277.992137 278.122887 
L 279.48113 278.122887 
L 280.922092 278.122887 
L 282.411085 278.122887 
L 283.852046 278.122887 
L 285.34104 278.122887 
L 286.830033 278.122887 
L 288.270994 278.122887 
L 289.759988 260.604125 
L 291.200949 271.553351 
L 292.689942 271.553351 
L 294.178936 270.458429 
L 295.571865 268.268583 
L 297.060858 267.173661 
L 298.50182 261.699048 
L 299.990813 261.699048 
L 301.431774 262.79397 
L 302.920768 262.79397 
L 304.409761 258.41428 
L 305.850722 254.034589 
L 307.339716 248.559976 
L 308.780677 245.275208 
L 310.26967 243.085363 
L 311.758664 227.756446 
L 313.103561 222.281833 
L 314.592554 220.091988 
L 316.033515 217.902143 
L 317.522509 213.522452 
L 318.96347 216.80722 
L 320.452463 218.997065 
L 321.941457 216.80722 
L 323.382418 211.332607 
L 324.871411 208.047839 
L 326.312373 209.142762 
L 327.801366 209.142762 
L 329.290359 209.142762 
L 330.635257 198.193536 
L 332.12425 200.383381 
L 333.565211 199.288458 
L 335.054205 205.857994 
L 336.495166 206.952917 
L 337.984159 206.952917 
L 339.473152 208.047839 
L 340.914114 202.573226 
L 342.403107 203.668149 
L 343.844068 215.712298 
L 345.333062 213.522452 
L 346.822055 210.237685 
L 348.166952 203.668149 
L 349.655946 204.763071 
L 351.096907 211.332607 
L 352.5859 211.332607 
L 354.026862 208.047839 
L 355.515855 216.80722 
L 357.004848 213.522452 
L 358.44581 210.237685 
L 359.934803 212.42753 
L 361.375764 220.091988 
L 362.864758 222.281833 
L 364.353751 215.712298 
L 365.74668 218.997065 
L 367.235673 217.902143 
L 368.676635 216.80722 
L 370.165628 216.80722 
L 371.606589 213.522452 
L 373.095583 223.376756 
L 374.584576 224.471679 
L 376.025537 233.23106 
L 377.514531 234.325982 
L 378.955492 235.420905 
L 380.444485 238.705673 
L 381.933479 237.61075 
L 383.278376 236.515827 
L 384.767369 236.515827 
L 386.208331 236.515827 
L 387.697324 236.515827 
L 389.138285 238.705673 
L 390.627279 241.99044 
L 392.116272 239.800595 
L 393.557233 238.705673 
L 395.046227 236.515827 
L 396.487188 238.705673 
L 397.976181 228.851369 
L 399.465175 218.997065 
L 400.810072 204.763071 
L 402.299065 208.047839 
L 403.740026 209.142762 
L 405.22902 212.42753 
L 406.669981 223.376756 
L 408.158974 225.566601 
L 409.647968 222.281833 
L 411.088929 222.281833 
L 412.577922 220.091988 
L 414.018884 225.566601 
L 415.507877 225.566601 
L 416.99687 216.80722 
L 418.341768 217.902143 
L 419.830761 218.997065 
L 421.271722 220.091988 
L 422.760715 224.471679 
L 424.201677 227.756446 
L 425.69067 229.946292 
L 427.179663 232.136137 
L 428.620625 229.946292 
L 430.109618 226.661524 
L 431.550579 233.23106 
L 433.039573 233.23106 
L 434.528566 228.851369 
L 435.921495 222.281833 
L 437.410489 226.661524 
L 438.85145 225.566601 
L 440.340443 234.325982 
L 441.781405 236.515827 
L 443.270398 239.800595 
L 444.759391 240.895518 
L 446.200353 238.705673 
L 447.689346 237.61075 
L 449.130307 241.99044 
" clip-path="url(#p48b988b57d)" style="fill: none; stroke: #000000; stroke-width: 2; stroke-linecap: square"/>
   </g>
   <g id="line2d_49">
    <path d="M 275.158247 278.122887 
L 276.64724 278.122887 
L 277.992137 278.122887 
L 279.48113 278.122887 
L 280.922092 278.122887 
L 282.411085 278.122887 
L 283.852046 278.122887 
L 285.34104 278.122887 
L 286.830033 278.122887 
L 288.270994 278.122887 
L 289.759988 278.122887 
L 291.200949 278.122887 
L 292.689942 278.122887 
L 294.178936 278.122887 
L 295.571865 278.122887 
L 297.060858 278.122887 
L 298.50182 278.122887 
L 299.990813 278.122887 
L 301.431774 278.122887 
L 302.920768 278.122887 
L 304.409761 278.122887 
L 305.850722 278.122887 
L 307.339716 278.122887 
L 308.780677 278.122887 
L 310.26967 278.122887 
L 311.758664 278.122887 
L 313.103561 278.122887 
L 314.592554 278.122887 
L 316.033515 278.122887 
L 317.522509 278.122887 
L 318.96347 278.122887 
L 320.452463 278.122887 
L 321.941457 278.122887 
L 323.382418 278.122887 
L 324.871411 275.933042 
L 326.312373 269.363506 
L 327.801366 266.078738 
L 329.290359 264.983815 
L 330.635257 261.699048 
L 332.12425 260.604125 
L 333.565211 258.41428 
L 335.054205 259.509202 
L 336.495166 258.41428 
L 337.984159 257.319357 
L 339.473152 257.319357 
L 340.914114 251.844744 
L 342.403107 249.654899 
L 343.844068 251.844744 
L 345.333062 252.939667 
L 346.822055 249.654899 
L 348.166952 246.370131 
L 349.655946 244.180286 
L 351.096907 247.465054 
L 352.5859 245.275208 
L 354.026862 241.99044 
L 355.515855 243.085363 
L 357.004848 244.180286 
L 358.44581 241.99044 
L 359.934803 236.515827 
L 361.375764 241.99044 
L 362.864758 245.275208 
L 364.353751 237.61075 
L 365.74668 237.61075 
L 367.235673 235.420905 
L 368.676635 234.325982 
L 370.165628 233.23106 
L 371.606589 229.946292 
L 373.095583 233.23106 
L 374.584576 236.515827 
L 376.025537 244.180286 
L 377.514531 239.800595 
L 378.955492 244.180286 
L 380.444485 246.370131 
L 381.933479 245.275208 
L 383.278376 239.800595 
L 384.767369 236.515827 
L 386.208331 238.705673 
L 387.697324 239.800595 
L 389.138285 240.895518 
L 390.627279 243.085363 
L 392.116272 240.895518 
L 393.557233 236.515827 
L 395.046227 232.136137 
L 396.487188 235.420905 
L 397.976181 226.661524 
L 399.465175 215.712298 
L 400.810072 206.952917 
L 402.299065 201.478304 
L 403.740026 211.332607 
L 405.22902 213.522452 
L 406.669981 217.902143 
L 408.158974 221.186911 
L 409.647968 220.091988 
L 411.088929 216.80722 
L 412.577922 215.712298 
L 414.018884 216.80722 
L 415.507877 218.997065 
L 416.99687 205.857994 
L 418.341768 200.383381 
L 419.830761 204.763071 
L 421.271722 209.142762 
L 422.760715 205.857994 
L 424.201677 191.624 
L 425.69067 181.769696 
L 427.179663 188.339232 
L 428.620625 179.579851 
L 430.109618 177.390006 
L 431.550579 191.624 
L 433.039573 189.434155 
L 434.528566 180.674774 
L 435.921495 175.200161 
L 437.410489 168.630625 
L 438.85145 179.579851 
L 440.340443 190.529077 
L 441.781405 185.054464 
L 443.270398 193.813845 
L 444.759391 194.908768 
L 446.200353 191.624 
L 447.689346 186.149387 
L 449.130307 193.813845 
" clip-path="url(#p48b988b57d)" style="fill: none; stroke: #2255a0; stroke-opacity: 0.501961; stroke-width: 2; stroke-linecap: square"/>
   </g>
   <g id="line2d_50">
    <path d="M 275.158247 278.122887 
L 276.64724 278.122887 
L 277.992137 278.122887 
L 279.48113 278.122887 
L 280.922092 278.122887 
L 282.411085 278.122887 
L 283.852046 278.122887 
L 285.34104 278.122887 
L 286.830033 278.122887 
L 288.270994 278.122887 
L 289.759988 278.122887 
L 291.200949 278.122887 
L 292.689942 278.122887 
L 294.178936 278.122887 
L 295.571865 278.122887 
L 297.060858 278.122887 
L 298.50182 278.122887 
L 299.990813 278.122887 
L 301.431774 278.122887 
L 302.920768 278.122887 
L 304.409761 278.122887 
L 305.850722 278.122887 
L 307.339716 278.122887 
L 308.780677 278.122887 
L 310.26967 278.122887 
L 311.758664 278.122887 
L 313.103561 278.122887 
L 314.592554 278.122887 
L 316.033515 278.122887 
L 317.522509 278.122887 
L 318.96347 278.122887 
L 320.452463 278.122887 
L 321.941457 278.122887 
L 323.382418 278.122887 
L 324.871411 278.122887 
L 326.312373 278.122887 
L 327.801366 278.122887 
L 329.290359 278.122887 
L 330.635257 278.122887 
L 332.12425 278.122887 
L 333.565211 278.122887 
L 335.054205 278.122887 
L 336.495166 278.122887 
L 337.984159 278.122887 
L 339.473152 278.122887 
L 340.914114 278.122887 
L 342.403107 278.122887 
L 343.844068 278.122887 
L 345.333062 278.122887 
L 346.822055 278.122887 
L 348.166952 278.122887 
L 349.655946 278.122887 
L 351.096907 278.122887 
L 352.5859 278.122887 
L 354.026862 278.122887 
L 355.515855 278.122887 
L 357.004848 278.122887 
L 358.44581 278.122887 
L 359.934803 278.122887 
L 361.375764 278.122887 
L 362.864758 278.122887 
L 364.353751 278.122887 
L 365.74668 278.122887 
L 367.235673 278.122887 
L 368.676635 278.122887 
L 370.165628 278.122887 
L 371.606589 278.122887 
L 373.095583 278.122887 
L 374.584576 278.122887 
L 376.025537 278.122887 
L 377.514531 278.122887 
L 378.955492 278.122887 
L 380.444485 278.122887 
L 381.933479 278.122887 
L 383.278376 278.122887 
L 384.767369 278.122887 
L 386.208331 278.122887 
L 387.697324 278.122887 
L 389.138285 278.122887 
L 390.627279 278.122887 
L 392.116272 278.122887 
L 393.557233 278.122887 
L 395.046227 278.122887 
L 396.487188 278.122887 
L 397.976181 278.122887 
L 399.465175 278.122887 
L 400.810072 278.122887 
L 402.299065 278.122887 
L 403.740026 278.122887 
L 405.22902 278.122887 
L 406.669981 278.122887 
L 408.158974 278.122887 
L 409.647968 278.122887 
L 411.088929 277.027964 
L 412.577922 277.027964 
L 414.018884 277.027964 
L 415.507877 277.027964 
L 416.99687 277.027964 
L 418.341768 277.027964 
L 419.830761 278.122887 
L 421.271722 278.122887 
L 422.760715 278.122887 
L 424.201677 278.122887 
L 425.69067 278.122887 
L 427.179663 278.122887 
L 428.620625 278.122887 
L 430.109618 278.122887 
L 431.550579 277.027964 
L 433.039573 277.027964 
L 434.528566 275.933042 
L 435.921495 272.648274 
L 437.410489 272.648274 
L 438.85145 273.743196 
L 440.340443 272.648274 
L 441.781405 273.743196 
L 443.270398 272.648274 
L 444.759391 272.648274 
L 446.200353 271.553351 
L 447.689346 272.648274 
L 449.130307 273.743196 
" clip-path="url(#p48b988b57d)" style="fill: none; stroke: #8e8e8e; stroke-width: 2; stroke-linecap: square"/>
   </g>
   <g id="patch_79">
    <path d="M 275.158247 283.5975 
L 275.158247 168.630625 
" style="fill: none; stroke: #000000; stroke-width: 0.8; stroke-linejoin: miter; stroke-linecap: square"/>
   </g>
   <g id="patch_80">
    <path d="M 275.158247 283.5975 
L 453.453191 283.5975 
" style="fill: none; stroke: #000000; stroke-width: 0.8; stroke-linejoin: miter; stroke-linecap: square"/>
   </g>
   <g id="legend_3">
    <g id="line2d_51">
     <path d="M 282.358247 179.109375 
L 290.358247 179.109375 
L 298.358247 179.109375 
" style="fill: none; stroke: #000000; stroke-width: 2; stroke-linecap: square"/>
    </g>
    <g id="text_63">
     <!-- TensorFlow -->
     <g transform="translate(304.758247 181.909375) scale(0.08 -0.08)">
      <use xlink:href="#DejaVuSans-54"/>
      <use xlink:href="#DejaVuSans-65" x="44.083984"/>
      <use xlink:href="#DejaVuSans-6e" x="105.607422"/>
      <use xlink:href="#DejaVuSans-73" x="168.986328"/>
      <use xlink:href="#DejaVuSans-6f" x="221.085938"/>
      <use xlink:href="#DejaVuSans-72" x="282.267578"/>
      <use xlink:href="#DejaVuSans-46" x="323.380859"/>
      <use xlink:href="#DejaVuSans-6c" x="380.900391"/>
      <use xlink:href="#DejaVuSans-6f" x="408.683594"/>
      <use xlink:href="#DejaVuSans-77" x="469.865234"/>
     </g>
    </g>
    <g id="line2d_52">
     <path d="M 282.358247 190.851875 
L 290.358247 190.851875 
L 298.358247 190.851875 
" style="fill: none; stroke: #2255a0; stroke-opacity: 0.501961; stroke-width: 2; stroke-linecap: square"/>
    </g>
    <g id="text_64">
     <!-- PyTorch -->
     <g transform="translate(304.758247 193.651875) scale(0.08 -0.08)">
      <use xlink:href="#DejaVuSans-50"/>
      <use xlink:href="#DejaVuSans-79" x="60.302734"/>
      <use xlink:href="#DejaVuSans-54" x="119.482422"/>
      <use xlink:href="#DejaVuSans-6f" x="163.566406"/>
      <use xlink:href="#DejaVuSans-72" x="224.748047"/>
      <use xlink:href="#DejaVuSans-63" x="263.611328"/>
      <use xlink:href="#DejaVuSans-68" x="318.591797"/>
     </g>
    </g>
    <g id="line2d_53">
     <path d="M 282.358247 202.594375 
L 290.358247 202.594375 
L 298.358247 202.594375 
" style="fill: none; stroke: #8e8e8e; stroke-width: 2; stroke-linecap: square"/>
    </g>
    <g id="text_65">
     <!-- JAX -->
     <g transform="translate(304.758247 205.394375) scale(0.08 -0.08)">
      <use xlink:href="#DejaVuSans-4a"/>
      <use xlink:href="#DejaVuSans-41" x="27.742188"/>
      <use xlink:href="#DejaVuSans-58" x="96.150391"/>
     </g>
    </g>
   </g>
  </g>
 </g>
 <defs>
  <clipPath id="p9b678e3ca2">
   <rect x="41.0325" y="10.239375" width="178.294945" height="114.966875"/>
  </clipPath>
  <clipPath id="pa49967ee79">
   <rect x="275.158247" y="10.239375" width="178.294945" height="114.966875"/>
  </clipPath>
  <clipPath id="pae362f4640">
   <rect x="41.0325" y="168.630625" width="178.294945" height="114.966875"/>
  </clipPath>
  <clipPath id="p48b988b57d">
   <rect x="275.158247" y="168.630625" width="178.294945" height="114.966875"/>
  </clipPath>
 </defs>
</svg>
