<?xml version="1.0" encoding="utf-8" standalone="no"?>
<!DOCTYPE svg PUBLIC "-//W3C//DTD SVG 1.1//EN"
  "http://www.w3.org/Graphics/SVG/1.1/DTD/svg11.dtd">
<svg xmlns:xlink="http://www.w3.org/1999/xlink" width="494.4pt" height="422.4pt" viewBox="0 0 494.4 422.4" xmlns="http://www.w3.org/2000/svg" version="1.1">
 <metadata>
  <rdf:RDF xmlns:dc="http://purl.org/dc/elements/1.1/" xmlns:cc="http://creativecommons.org/ns#" xmlns:rdf="http://www.w3.org/1999/02/22-rdf-syntax-ns#">
   <cc:Work>
    <dc:type rdf:resource="http://purl.org/dc/dcmitype/StillImage"/>
    <dc:date>2026-05-22T16:58:01.492426</dc:date>
    <dc:format>image/svg+xml</dc:format>
    <dc:creator>
     <cc:Agent>
      <dc:title>Matplotlib v3.8.4, https://matplotlib.org/</dc:title>
     </cc:Agent>
    </dc:creator>
   </cc:Work>
  </rdf:RDF>
 </metadata>
 <defs>
  <style type="text/css">*{stroke-linejoin: round; stroke-linecap: butt}</style>
 </defs>
 <g id="figure_1">
  <g id="patch_1">
   <path d="M 0 422.4 
L 494.4 422.4 
L 494.4 0 
L 0 0 
z
" style="fill: #ffffff"/>
  </g>
  <g id="axes_1">
   <g id="PathCollection_1">
    <defs>
     <path id="m7b36f9862e" d="M 0 2.738613 
C 0.726289 2.738613 1.422928 2.450055 1.936492 1.936492 
C 2.450055 1.422928 2.738613 0.726289 2.738613 0 
C 2.738613 -0.726289 2.450055 -1.422928 1.936492 -1.936492 
C 1.422928 -2.450055 0.726289 -2.738613 0 -2.738613 
C -0.726289 -2.738613 -1.422928 -2.450055 -1.936492 -1.936492 
C -2.450055 -1.422928 -2.738613 -0.726289 -2.738613 0 
C -2.738613 0.726289 -2.450055 1.422928 -1.936492 1.936492 
C -1.422928 2.450055 -0.726289 2.738613 0 2.738613 
z
" style="stroke: #000000; stroke-width: 0.4"/>
    </defs>
    <g clip-path="url(#p183ac684ef)">
     <use xlink:href="#m7b36f9862e" x="413.500934" y="170.964583" style="fill: #2166ac; stroke: #000000; stroke-width: 0.4"/>
     <use xlink:href="#m7b36f9862e" x="393.576908" y="64.974556" style="fill: #2166ac; stroke: #000000; stroke-width: 0.4"/>
     <use xlink:href="#m7b36f9862e" x="318.892087" y="235.584309" style="fill: #2166ac; stroke: #000000; stroke-width: 0.4"/>
     <use xlink:href="#m7b36f9862e" x="326.761984" y="300.68528" style="fill: #2166ac; stroke: #000000; stroke-width: 0.4"/>
     <use xlink:href="#m7b36f9862e" x="278.987664" y="290.768726" style="fill: #2166ac; stroke: #000000; stroke-width: 0.4"/>
     <use xlink:href="#m7b36f9862e" x="229.417539" y="59.383229" style="fill: #2166ac; stroke: #000000; stroke-width: 0.4"/>
     <use xlink:href="#m7b36f9862e" x="156.129195" y="251.98099" style="fill: #2166ac; stroke: #000000; stroke-width: 0.4"/>
     <use xlink:href="#m7b36f9862e" x="309.905409" y="338.679147" style="fill: #2166ac; stroke: #000000; stroke-width: 0.4"/>
     <use xlink:href="#m7b36f9862e" x="345.445399" y="132.438407" style="fill: #2166ac; stroke: #000000; stroke-width: 0.4"/>
     <use xlink:href="#m7b36f9862e" x="436.160083" y="131.494989" style="fill: #2166ac; stroke: #000000; stroke-width: 0.4"/>
     <use xlink:href="#m7b36f9862e" x="251.380112" y="353.252106" style="fill: #2166ac; stroke: #000000; stroke-width: 0.4"/>
     <use xlink:href="#m7b36f9862e" x="260.281465" y="79.061501" style="fill: #2166ac; stroke: #000000; stroke-width: 0.4"/>
     <use xlink:href="#m7b36f9862e" x="388.908227" y="185.74249" style="fill: #2166ac; stroke: #000000; stroke-width: 0.4"/>
     <use xlink:href="#m7b36f9862e" x="360.14477" y="328.432977" style="fill: #2166ac; stroke: #000000; stroke-width: 0.4"/>
     <use xlink:href="#m7b36f9862e" x="246.885751" y="387.437969" style="fill: #2166ac; stroke: #000000; stroke-width: 0.4"/>
     <use xlink:href="#m7b36f9862e" x="64.69149" y="262.685085" style="fill: #2166ac; stroke: #000000; stroke-width: 0.4"/>
     <use xlink:href="#m7b36f9862e" x="29.018182" y="283.835616" style="fill: #2166ac; stroke: #000000; stroke-width: 0.4"/>
     <use xlink:href="#m7b36f9862e" x="147.417919" y="355.126458" style="fill: #2166ac; stroke: #000000; stroke-width: 0.4"/>
     <use xlink:href="#m7b36f9862e" x="465.381818" y="180.75699" style="fill: #2166ac; stroke: #000000; stroke-width: 0.4"/>
     <use xlink:href="#m7b36f9862e" x="79.62489" y="344.898928" style="fill: #2166ac; stroke: #000000; stroke-width: 0.4"/>
     <use xlink:href="#m7b36f9862e" x="131.443754" y="394.904254" style="fill: #2166ac; stroke: #000000; stroke-width: 0.4"/>
     <use xlink:href="#m7b36f9862e" x="175.23084" y="385.922188" style="fill: #2166ac; stroke: #000000; stroke-width: 0.4"/>
     <use xlink:href="#m7b36f9862e" x="104.103912" y="396.654545" style="fill: #2166ac; stroke: #000000; stroke-width: 0.4"/>
     <use xlink:href="#m7b36f9862e" x="64.055461" y="296.223941" style="fill: #2166ac; stroke: #000000; stroke-width: 0.4"/>
     <use xlink:href="#m7b36f9862e" x="357.301862" y="218.102376" style="fill: #2166ac; stroke: #000000; stroke-width: 0.4"/>
     <use xlink:href="#m7b36f9862e" x="47.455652" y="312.22009" style="fill: #2166ac; stroke: #000000; stroke-width: 0.4"/>
    </g>
   </g>
   <g id="PathCollection_2">
    <defs>
     <path id="m04b58461ca" d="M 0 2.738613 
C 0.726289 2.738613 1.422928 2.450055 1.936492 1.936492 
C 2.450055 1.422928 2.738613 0.726289 2.738613 0 
C 2.738613 -0.726289 2.450055 -1.422928 1.936492 -1.936492 
C 1.422928 -2.450055 0.726289 -2.738613 0 -2.738613 
C -0.726289 -2.738613 -1.422928 -2.450055 -1.936492 -1.936492 
C -2.450055 -1.422928 -2.738613 -0.726289 -2.738613 0 
C -2.738613 0.726289 -2.450055 1.422928 -1.936492 1.936492 
C -1.422928 2.450055 -0.726289 2.738613 0 2.738613 
z
" style="stroke: #000000; stroke-width: 0.4"/>
    </defs>
    <g clip-path="url(#p183ac684ef)">
     <use xlink:href="#m04b58461ca" x="320.959437" y="147.402536" style="fill: #1b9e75; stroke: #000000; stroke-width: 0.4"/>
     <use xlink:href="#m04b58461ca" x="253.460007" y="155.15639" style="fill: #1b9e75; stroke: #000000; stroke-width: 0.4"/>
     <use xlink:href="#m04b58461ca" x="311.28058" y="72.583108" style="fill: #1b9e75; stroke: #000000; stroke-width: 0.4"/>
     <use xlink:href="#m04b58461ca" x="276.722282" y="162.135708" style="fill: #1b9e75; stroke: #000000; stroke-width: 0.4"/>
     <use xlink:href="#m04b58461ca" x="176.032473" y="174.647226" style="fill: #1b9e75; stroke: #000000; stroke-width: 0.4"/>
     <use xlink:href="#m04b58461ca" x="204.26283" y="102.440621" style="fill: #1b9e75; stroke: #000000; stroke-width: 0.4"/>
     <use xlink:href="#m04b58461ca" x="141.835867" y="210.265468" style="fill: #1b9e75; stroke: #000000; stroke-width: 0.4"/>
     <use xlink:href="#m04b58461ca" x="335.679806" y="250.224197" style="fill: #1b9e75; stroke: #000000; stroke-width: 0.4"/>
     <use xlink:href="#m04b58461ca" x="414.728983" y="228.199777" style="fill: #1b9e75; stroke: #000000; stroke-width: 0.4"/>
     <use xlink:href="#m04b58461ca" x="365.759557" y="264.844838" style="fill: #1b9e75; stroke: #000000; stroke-width: 0.4"/>
    </g>
   </g>
   <g id="PathCollection_3">
    <defs>
     <path id="m9d28238cc7" d="M 0 2.738613 
C 0.726289 2.738613 1.422928 2.450055 1.936492 1.936492 
C 2.450055 1.422928 2.738613 0.726289 2.738613 0 
C 2.738613 -0.726289 2.450055 -1.422928 1.936492 -1.936492 
C 1.422928 -2.450055 0.726289 -2.738613 0 -2.738613 
C -0.726289 -2.738613 -1.422928 -2.450055 -1.936492 -1.936492 
C -2.450055 -1.422928 -2.738613 -0.726289 -2.738613 0 
C -2.738613 0.726289 -2.450055 1.422928 -1.936492 1.936492 
C -1.422928 2.450055 -0.726289 2.738613 0 2.738613 
z
" style="stroke: #000000; stroke-width: 0.4"/>
    </defs>
    <g clip-path="url(#p183ac684ef)">
     <use xlink:href="#m9d28238cc7" x="348.801545" y="75.11201" style="fill: #d95f02; stroke: #000000; stroke-width: 0.4"/>
     <use xlink:href="#m9d28238cc7" x="388.054931" y="131.518917" style="fill: #d95f02; stroke: #000000; stroke-width: 0.4"/>
     <use xlink:href="#m9d28238cc7" x="332.798575" y="27.712744" style="fill: #d95f02; stroke: #000000; stroke-width: 0.4"/>
     <use xlink:href="#m9d28238cc7" x="110.855793" y="227.997257" style="fill: #d95f02; stroke: #000000; stroke-width: 0.4"/>
    </g>
   </g>
   <g id="PathCollection_4">
    <defs>
     <path id="mf507cf6870" d="M 0 2.738613 
C 0.726289 2.738613 1.422928 2.450055 1.936492 1.936492 
C 2.450055 1.422928 2.738613 0.726289 2.738613 0 
C 2.738613 -0.726289 2.450055 -1.422928 1.936492 -1.936492 
C 1.422928 -2.450055 0.726289 -2.738613 0 -2.738613 
C -0.726289 -2.738613 -1.422928 -2.450055 -1.936492 -1.936492 
C -2.450055 -1.422928 -2.738613 -0.726289 -2.738613 0 
C -2.738613 0.726289 -2.450055 1.422928 -1.936492 1.936492 
C -1.422928 2.450055 -0.726289 2.738613 0 2.738613 
z
" style="stroke: #000000; stroke-width: 0.4"/>
    </defs>
    <g clip-path="url(#p183ac684ef)">
     <use xlink:href="#mf507cf6870" x="441.395897" y="222.584523" style="fill: #7570b3; stroke: #000000; stroke-width: 0.4"/>
    </g>
   </g>
   <g id="PathCollection_5">
    <defs>
     <path id="m76a391d83a" d="M 0 2.738613 
C 0.726289 2.738613 1.422928 2.450055 1.936492 1.936492 
C 2.450055 1.422928 2.738613 0.726289 2.738613 0 
C 2.738613 -0.726289 2.450055 -1.422928 1.936492 -1.936492 
C 1.422928 -2.450055 0.726289 -2.738613 0 -2.738613 
C -0.726289 -2.738613 -1.422928 -2.450055 -1.936492 -1.936492 
C -2.450055 -1.422928 -2.738613 -0.726289 -2.738613 0 
C -2.738613 0.726289 -2.450055 1.422928 -1.936492 1.936492 
C -1.422928 2.450055 -0.726289 2.738613 0 2.738613 
z
" style="stroke: #000000; stroke-width: 0.4"/>
    </defs>
    <g clip-path="url(#p183ac684ef)">
     <use xlink:href="#m76a391d83a" x="305.695488" y="25.745455" style="fill: #e7298a; stroke: #000000; stroke-width: 0.4"/>
    </g>
   </g>
   <g id="text_1">
    <g id="text_2">
     <g id="text_3">
      <g id="text_4">
       <g id="text_5">
        <g id="text_6">
         <g id="text_7">
          <g id="text_8">
           <g id="text_9">
            <g id="text_10">
             <g id="text_11">
              <g id="text_12">
               <g id="text_13">
                <g id="text_14">
                 <g id="text_15">
                  <g id="text_16">
                   <g id="text_17">
                    <g id="text_18">
                     <g id="text_19">
                      <g id="text_20">
                       <g id="text_21">
                        <g id="text_22">
                         <g id="text_23">
                          <g id="text_24">
                           <g id="text_25">
                            <g id="text_26">
                             <g id="text_27">
                              <g id="text_28">
                               <g id="text_29">
                                <g id="text_30">
                                 <g id="text_31">
                                  <g id="text_32">
                                   <g id="text_33">
                                    <g id="text_34">
                                     <g id="text_35">
                                      <g id="text_36">
                                       <g id="text_37">
                                        <g id="text_38">
                                         <g id="text_39">
                                          <g id="text_40">
                                           <g id="text_41">
                                            <g id="text_42">
                                             <g id="text_43">
                                              <g id="text_44">
                                               <g id="legend_1">
                                                <g id="patch_2">
                                                 <path d="M 419.7 75.415938 
L 482.3 75.415938 
Q 483.7 75.415938 483.7 74.015938 
L 483.7 12.1 
Q 483.7 10.7 482.3 10.7 
L 419.7 10.7 
Q 418.3 10.7 418.3 12.1 
L 418.3 74.015938 
Q 418.3 75.415938 419.7 75.415938 
z
" style="fill: #ffffff; opacity: 0.8; stroke: #cccccc; stroke-linejoin: miter"/>
                                                </g>
                                                <g id="text_45">
                                                 <!-- Wave equation -->
                                                 <g transform="translate(421.1 19.57875) scale(0.08 -0.08)">
                                                  <defs>
                                                   <path id="DejaVuSans-57" d="M 213 4666 
L 850 4666 
L 1831 722 
L 2809 4666 
L 3519 4666 
L 4500 722 
L 5478 4666 
L 6119 4666 
L 4947 0 
L 4153 0 
L 3169 4050 
L 2175 0 
L 1381 0 
L 213 4666 
z
" transform="scale(0.015625)"/>
                                                   <path id="DejaVuSans-61" d="M 2194 1759 
Q 1497 1759 1228 1600 
Q 959 1441 959 1056 
Q 959 750 1161 570 
Q 1363 391 1709 391 
Q 2188 391 2477 730 
Q 2766 1069 2766 1631 
L 2766 1759 
L 2194 1759 
z
M 3341 1997 
L 3341 0 
L 2766 0 
L 2766 531 
Q 2569 213 2275 61 
Q 1981 -91 1556 -91 
Q 1019 -91 701 211 
Q 384 513 384 1019 
Q 384 1609 779 1909 
Q 1175 2209 1959 2209 
L 2766 2209 
L 2766 2266 
Q 2766 2663 2505 2880 
Q 2244 3097 1772 3097 
Q 1472 3097 1187 3025 
Q 903 2953 641 2809 
L 641 3341 
Q 956 3463 1253 3523 
Q 1550 3584 1831 3584 
Q 2591 3584 2966 3190 
Q 3341 2797 3341 1997 
z
" transform="scale(0.015625)"/>
                                                   <path id="DejaVuSans-76" d="M 191 3500 
L 800 3500 
L 1894 563 
L 2988 3500 
L 3597 3500 
L 2284 0 
L 1503 0 
L 191 3500 
z
" transform="scale(0.015625)"/>
                                                   <path id="DejaVuSans-65" d="M 3597 1894 
L 3597 1613 
L 953 1613 
Q 991 1019 1311 708 
Q 1631 397 2203 397 
Q 2534 397 2845 478 
Q 3156 559 3463 722 
L 3463 178 
Q 3153 47 2828 -22 
Q 2503 -91 2169 -91 
Q 1331 -91 842 396 
Q 353 884 353 1716 
Q 353 2575 817 3079 
Q 1281 3584 2069 3584 
Q 2775 3584 3186 3129 
Q 3597 2675 3597 1894 
z
M 3022 2063 
Q 3016 2534 2758 2815 
Q 2500 3097 2075 3097 
Q 1594 3097 1305 2825 
Q 1016 2553 972 2059 
L 3022 2063 
z
" transform="scale(0.015625)"/>
                                                   <path id="DejaVuSans-20" transform="scale(0.015625)"/>
                                                   <path id="DejaVuSans-71" d="M 947 1747 
Q 947 1113 1208 752 
Q 1469 391 1925 391 
Q 2381 391 2643 752 
Q 2906 1113 2906 1747 
Q 2906 2381 2643 2742 
Q 2381 3103 1925 3103 
Q 1469 3103 1208 2742 
Q 947 2381 947 1747 
z
M 2906 525 
Q 2725 213 2448 61 
Q 2172 -91 1784 -91 
Q 1150 -91 751 415 
Q 353 922 353 1747 
Q 353 2572 751 3078 
Q 1150 3584 1784 3584 
Q 2172 3584 2448 3432 
Q 2725 3281 2906 2969 
L 2906 3500 
L 3481 3500 
L 3481 -1331 
L 2906 -1331 
L 2906 525 
z
" transform="scale(0.015625)"/>
                                                   <path id="DejaVuSans-75" d="M 544 1381 
L 544 3500 
L 1119 3500 
L 1119 1403 
Q 1119 906 1312 657 
Q 1506 409 1894 409 
Q 2359 409 2629 706 
Q 2900 1003 2900 1516 
L 2900 3500 
L 3475 3500 
L 3475 0 
L 2900 0 
L 2900 538 
Q 2691 219 2414 64 
Q 2138 -91 1772 -91 
Q 1169 -91 856 284 
Q 544 659 544 1381 
z
M 1991 3584 
L 1991 3584 
z
" transform="scale(0.015625)"/>
                                                   <path id="DejaVuSans-74" d="M 1172 4494 
L 1172 3500 
L 2356 3500 
L 2356 3053 
L 1172 3053 
L 1172 1153 
Q 1172 725 1289 603 
Q 1406 481 1766 481 
L 2356 481 
L 2356 0 
L 1766 0 
Q 1100 0 847 248 
Q 594 497 594 1153 
L 594 3053 
L 172 3053 
L 172 3500 
L 594 3500 
L 594 4494 
L 1172 4494 
z
" transform="scale(0.015625)"/>
                                                   <path id="DejaVuSans-69" d="M 603 3500 
L 1178 3500 
L 1178 0 
L 603 0 
L 603 3500 
z
M 603 4863 
L 1178 4863 
L 1178 4134 
L 603 4134 
L 603 4863 
z
" transform="scale(0.015625)"/>
                                                   <path id="DejaVuSans-6f" d="M 1959 3097 
Q 1497 3097 1228 2736 
Q 959 2375 959 1747 
Q 959 1119 1226 758 
Q 1494 397 1959 397 
Q 2419 397 2687 759 
Q 2956 1122 2956 1747 
Q 2956 2369 2687 2733 
Q 2419 3097 1959 3097 
z
M 1959 3584 
Q 2709 3584 3137 3096 
Q 3566 2609 3566 1747 
Q 3566 888 3137 398 
Q 2709 -91 1959 -91 
Q 1206 -91 779 398 
Q 353 888 353 1747 
Q 353 2609 779 3096 
Q 1206 3584 1959 3584 
z
" transform="scale(0.015625)"/>
                                                   <path id="DejaVuSans-6e" d="M 3513 2113 
L 3513 0 
L 2938 0 
L 2938 2094 
Q 2938 2591 2744 2837 
Q 2550 3084 2163 3084 
Q 1697 3084 1428 2787 
Q 1159 2491 1159 1978 
L 1159 0 
L 581 0 
L 581 3500 
L 1159 3500 
L 1159 2956 
Q 1366 3272 1645 3428 
Q 1925 3584 2291 3584 
Q 2894 3584 3203 3211 
Q 3513 2838 3513 2113 
z
" transform="scale(0.015625)"/>
                                                  </defs>
                                                  <use xlink:href="#DejaVuSans-57"/>
                                                  <use xlink:href="#DejaVuSans-61" x="92.501953"/>
                                                  <use xlink:href="#DejaVuSans-76" x="153.78125"/>
                                                  <use xlink:href="#DejaVuSans-65" x="212.960938"/>
                                                  <use xlink:href="#DejaVuSans-20" x="274.484375"/>
                                                  <use xlink:href="#DejaVuSans-65" x="306.271484"/>
                                                  <use xlink:href="#DejaVuSans-71" x="367.794922"/>
                                                  <use xlink:href="#DejaVuSans-75" x="431.271484"/>
                                                  <use xlink:href="#DejaVuSans-61" x="494.650391"/>
                                                  <use xlink:href="#DejaVuSans-74" x="555.929688"/>
                                                  <use xlink:href="#DejaVuSans-69" x="595.138672"/>
                                                  <use xlink:href="#DejaVuSans-6f" x="622.921875"/>
                                                  <use xlink:href="#DejaVuSans-6e" x="684.103516"/>
                                                 </g>
                                                </g>
                                                <g id="PathCollection_6">
                                                 <defs>
                                                  <path id="m91ac47d1ab" d="M 0 3.286335 
C 0.871546 3.286335 1.707514 2.940066 2.32379 2.32379 
C 2.940066 1.707514 3.286335 0.871546 3.286335 0 
C 3.286335 -0.871546 2.940066 -1.707514 2.32379 -2.32379 
C 1.707514 -2.940066 0.871546 -3.286335 0 -3.286335 
C -0.871546 -3.286335 -1.707514 -2.940066 -2.32379 -2.32379 
C -2.940066 -1.707514 -3.286335 -0.871546 -3.286335 0 
C -3.286335 0.871546 -2.940066 1.707514 -2.32379 2.32379 
C -1.707514 2.940066 -0.871546 3.286335 0 3.286335 
z
" style="stroke: #000000; stroke-width: 0.4"/>
                                                 </defs>
                                                 <g>
                                                  <use xlink:href="#m91ac47d1ab" x="428.105625" y="28.223906" style="fill: #2166ac; stroke: #000000; stroke-width: 0.4"/>
                                                 </g>
                                                </g>
                                                <g id="text_46">
                                                 <!-- Acoustic -->
                                                 <g transform="translate(440.705625 30.061406) scale(0.07 -0.07)">
                                                  <defs>
                                                   <path id="DejaVuSans-41" d="M 2188 4044 
L 1331 1722 
L 3047 1722 
L 2188 4044 
z
M 1831 4666 
L 2547 4666 
L 4325 0 
L 3669 0 
L 3244 1197 
L 1141 1197 
L 716 0 
L 50 0 
L 1831 4666 
z
" transform="scale(0.015625)"/>
                                                   <path id="DejaVuSans-63" d="M 3122 3366 
L 3122 2828 
Q 2878 2963 2633 3030 
Q 2388 3097 2138 3097 
Q 1578 3097 1268 2742 
Q 959 2388 959 1747 
Q 959 1106 1268 751 
Q 1578 397 2138 397 
Q 2388 397 2633 464 
Q 2878 531 3122 666 
L 3122 134 
Q 2881 22 2623 -34 
Q 2366 -91 2075 -91 
Q 1284 -91 818 406 
Q 353 903 353 1747 
Q 353 2603 823 3093 
Q 1294 3584 2113 3584 
Q 2378 3584 2631 3529 
Q 2884 3475 3122 3366 
z
" transform="scale(0.015625)"/>
                                                   <path id="DejaVuSans-73" d="M 2834 3397 
L 2834 2853 
Q 2591 2978 2328 3040 
Q 2066 3103 1784 3103 
Q 1356 3103 1142 2972 
Q 928 2841 928 2578 
Q 928 2378 1081 2264 
Q 1234 2150 1697 2047 
L 1894 2003 
Q 2506 1872 2764 1633 
Q 3022 1394 3022 966 
Q 3022 478 2636 193 
Q 2250 -91 1575 -91 
Q 1294 -91 989 -36 
Q 684 19 347 128 
L 347 722 
Q 666 556 975 473 
Q 1284 391 1588 391 
Q 1994 391 2212 530 
Q 2431 669 2431 922 
Q 2431 1156 2273 1281 
Q 2116 1406 1581 1522 
L 1381 1569 
Q 847 1681 609 1914 
Q 372 2147 372 2553 
Q 372 3047 722 3315 
Q 1072 3584 1716 3584 
Q 2034 3584 2315 3537 
Q 2597 3491 2834 3397 
z
" transform="scale(0.015625)"/>
                                                  </defs>
                                                  <use xlink:href="#DejaVuSans-41"/>
                                                  <use xlink:href="#DejaVuSans-63" x="66.658203"/>
                                                  <use xlink:href="#DejaVuSans-6f" x="121.638672"/>
                                                  <use xlink:href="#DejaVuSans-75" x="182.820312"/>
                                                  <use xlink:href="#DejaVuSans-73" x="246.199219"/>
                                                  <use xlink:href="#DejaVuSans-74" x="298.298828"/>
                                                  <use xlink:href="#DejaVuSans-69" x="337.507812"/>
                                                  <use xlink:href="#DejaVuSans-63" x="365.291016"/>
                                                 </g>
                                                </g>
                                                <g id="PathCollection_7">
                                                 <defs>
                                                  <path id="mddc17805b5" d="M 0 3.286335 
C 0.871546 3.286335 1.707514 2.940066 2.32379 2.32379 
C 2.940066 1.707514 3.286335 0.871546 3.286335 0 
C 3.286335 -0.871546 2.940066 -1.707514 2.32379 -2.32379 
C 1.707514 -2.940066 0.871546 -3.286335 0 -3.286335 
C -0.871546 -3.286335 -1.707514 -2.940066 -2.32379 -2.32379 
C -2.940066 -1.707514 -3.286335 -0.871546 -3.286335 0 
C -3.286335 0.871546 -2.940066 1.707514 -2.32379 2.32379 
C -1.707514 2.940066 -0.871546 3.286335 0 3.286335 
z
" style="stroke: #000000; stroke-width: 0.4"/>
                                                 </defs>
                                                 <g>
                                                  <use xlink:href="#mddc17805b5" x="428.105625" y="38.498594" style="fill: #1b9e75; stroke: #000000; stroke-width: 0.4"/>
                                                 </g>
                                                </g>
                                                <g id="text_47">
                                                 <!-- Elastic -->
                                                 <g transform="translate(440.705625 40.336094) scale(0.07 -0.07)">
                                                  <defs>
                                                   <path id="DejaVuSans-45" d="M 628 4666 
L 3578 4666 
L 3578 4134 
L 1259 4134 
L 1259 2753 
L 3481 2753 
L 3481 2222 
L 1259 2222 
L 1259 531 
L 3634 531 
L 3634 0 
L 628 0 
L 628 4666 
z
" transform="scale(0.015625)"/>
                                                   <path id="DejaVuSans-6c" d="M 603 4863 
L 1178 4863 
L 1178 0 
L 603 0 
L 603 4863 
z
" transform="scale(0.015625)"/>
                                                  </defs>
                                                  <use xlink:href="#DejaVuSans-45"/>
                                                  <use xlink:href="#DejaVuSans-6c" x="63.183594"/>
                                                  <use xlink:href="#DejaVuSans-61" x="90.966797"/>
                                                  <use xlink:href="#DejaVuSans-73" x="152.246094"/>
                                                  <use xlink:href="#DejaVuSans-74" x="204.345703"/>
                                                  <use xlink:href="#DejaVuSans-69" x="243.554688"/>
                                                  <use xlink:href="#DejaVuSans-63" x="271.337891"/>
                                                 </g>
                                                </g>
                                                <g id="PathCollection_8">
                                                 <defs>
                                                  <path id="m082ed37cda" d="M 0 3.286335 
C 0.871546 3.286335 1.707514 2.940066 2.32379 2.32379 
C 2.940066 1.707514 3.286335 0.871546 3.286335 0 
C 3.286335 -0.871546 2.940066 -1.707514 2.32379 -2.32379 
C 1.707514 -2.940066 0.871546 -3.286335 0 -3.286335 
C -0.871546 -3.286335 -1.707514 -2.940066 -2.32379 -2.32379 
C -2.940066 -1.707514 -3.286335 -0.871546 -3.286335 0 
C -3.286335 0.871546 -2.940066 1.707514 -2.32379 2.32379 
C -1.707514 2.940066 -0.871546 3.286335 0 3.286335 
z
" style="stroke: #000000; stroke-width: 0.4"/>
                                                 </defs>
                                                 <g>
                                                  <use xlink:href="#m082ed37cda" x="428.105625" y="48.773281" style="fill: #d95f02; stroke: #000000; stroke-width: 0.4"/>
                                                 </g>
                                                </g>
                                                <g id="text_48">
                                                 <!-- Helmholtz -->
                                                 <g transform="translate(440.705625 50.610781) scale(0.07 -0.07)">
                                                  <defs>
                                                   <path id="DejaVuSans-48" d="M 628 4666 
L 1259 4666 
L 1259 2753 
L 3553 2753 
L 3553 4666 
L 4184 4666 
L 4184 0 
L 3553 0 
L 3553 2222 
L 1259 2222 
L 1259 0 
L 628 0 
L 628 4666 
z
" transform="scale(0.015625)"/>
                                                   <path id="DejaVuSans-6d" d="M 3328 2828 
Q 3544 3216 3844 3400 
Q 4144 3584 4550 3584 
Q 5097 3584 5394 3201 
Q 5691 2819 5691 2113 
L 5691 0 
L 5113 0 
L 5113 2094 
Q 5113 2597 4934 2840 
Q 4756 3084 4391 3084 
Q 3944 3084 3684 2787 
Q 3425 2491 3425 1978 
L 3425 0 
L 2847 0 
L 2847 2094 
Q 2847 2600 2669 2842 
Q 2491 3084 2119 3084 
Q 1678 3084 1418 2786 
Q 1159 2488 1159 1978 
L 1159 0 
L 581 0 
L 581 3500 
L 1159 3500 
L 1159 2956 
Q 1356 3278 1631 3431 
Q 1906 3584 2284 3584 
Q 2666 3584 2933 3390 
Q 3200 3197 3328 2828 
z
" transform="scale(0.015625)"/>
                                                   <path id="DejaVuSans-68" d="M 3513 2113 
L 3513 0 
L 2938 0 
L 2938 2094 
Q 2938 2591 2744 2837 
Q 2550 3084 2163 3084 
Q 1697 3084 1428 2787 
Q 1159 2491 1159 1978 
L 1159 0 
L 581 0 
L 581 4863 
L 1159 4863 
L 1159 2956 
Q 1366 3272 1645 3428 
Q 1925 3584 2291 3584 
Q 2894 3584 3203 3211 
Q 3513 2838 3513 2113 
z
" transform="scale(0.015625)"/>
                                                   <path id="DejaVuSans-7a" d="M 353 3500 
L 3084 3500 
L 3084 2975 
L 922 459 
L 3084 459 
L 3084 0 
L 275 0 
L 275 525 
L 2438 3041 
L 353 3041 
L 353 3500 
z
" transform="scale(0.015625)"/>
                                                  </defs>
                                                  <use xlink:href="#DejaVuSans-48"/>
                                                  <use xlink:href="#DejaVuSans-65" x="75.195312"/>
                                                  <use xlink:href="#DejaVuSans-6c" x="136.71875"/>
                                                  <use xlink:href="#DejaVuSans-6d" x="164.501953"/>
                                                  <use xlink:href="#DejaVuSans-68" x="261.914062"/>
                                                  <use xlink:href="#DejaVuSans-6f" x="325.292969"/>
                                                  <use xlink:href="#DejaVuSans-6c" x="386.474609"/>
                                                  <use xlink:href="#DejaVuSans-74" x="414.257812"/>
                                                  <use xlink:href="#DejaVuSans-7a" x="453.466797"/>
                                                 </g>
                                                </g>
                                                <g id="PathCollection_9">
                                                 <defs>
                                                  <path id="m844fac1813" d="M 0 3.286335 
C 0.871546 3.286335 1.707514 2.940066 2.32379 2.32379 
C 2.940066 1.707514 3.286335 0.871546 3.286335 0 
C 3.286335 -0.871546 2.940066 -1.707514 2.32379 -2.32379 
C 1.707514 -2.940066 0.871546 -3.286335 0 -3.286335 
C -0.871546 -3.286335 -1.707514 -2.940066 -2.32379 -2.32379 
C -2.940066 -1.707514 -3.286335 -0.871546 -3.286335 0 
C -3.286335 0.871546 -2.940066 1.707514 -2.32379 2.32379 
C -1.707514 2.940066 -0.871546 3.286335 0 3.286335 
z
" style="stroke: #000000; stroke-width: 0.4"/>
                                                 </defs>
                                                 <g>
                                                  <use xlink:href="#m844fac1813" x="428.105625" y="59.047969" style="fill: #7570b3; stroke: #000000; stroke-width: 0.4"/>
                                                 </g>
                                                </g>
                                                <g id="text_49">
                                                 <!-- Plane-wave -->
                                                 <g transform="translate(440.705625 60.885469) scale(0.07 -0.07)">
                                                  <defs>
                                                   <path id="DejaVuSans-50" d="M 1259 4147 
L 1259 2394 
L 2053 2394 
Q 2494 2394 2734 2622 
Q 2975 2850 2975 3272 
Q 2975 3691 2734 3919 
Q 2494 4147 2053 4147 
L 1259 4147 
z
M 628 4666 
L 2053 4666 
Q 2838 4666 3239 4311 
Q 3641 3956 3641 3272 
Q 3641 2581 3239 2228 
Q 2838 1875 2053 1875 
L 1259 1875 
L 1259 0 
L 628 0 
L 628 4666 
z
" transform="scale(0.015625)"/>
                                                   <path id="DejaVuSans-2d" d="M 313 2009 
L 1997 2009 
L 1997 1497 
L 313 1497 
L 313 2009 
z
" transform="scale(0.015625)"/>
                                                   <path id="DejaVuSans-77" d="M 269 3500 
L 844 3500 
L 1563 769 
L 2278 3500 
L 2956 3500 
L 3675 769 
L 4391 3500 
L 4966 3500 
L 4050 0 
L 3372 0 
L 2619 2869 
L 1863 0 
L 1184 0 
L 269 3500 
z
" transform="scale(0.015625)"/>
                                                  </defs>
                                                  <use xlink:href="#DejaVuSans-50"/>
                                                  <use xlink:href="#DejaVuSans-6c" x="60.302734"/>
                                                  <use xlink:href="#DejaVuSans-61" x="88.085938"/>
                                                  <use xlink:href="#DejaVuSans-6e" x="149.365234"/>
                                                  <use xlink:href="#DejaVuSans-65" x="212.744141"/>
                                                  <use xlink:href="#DejaVuSans-2d" x="274.267578"/>
                                                  <use xlink:href="#DejaVuSans-77" x="310.351562"/>
                                                  <use xlink:href="#DejaVuSans-61" x="392.138672"/>
                                                  <use xlink:href="#DejaVuSans-76" x="453.417969"/>
                                                  <use xlink:href="#DejaVuSans-65" x="512.597656"/>
                                                 </g>
                                                </g>
                                                <g id="PathCollection_10">
                                                 <defs>
                                                  <path id="mee9e85a699" d="M 0 3.286335 
C 0.871546 3.286335 1.707514 2.940066 2.32379 2.32379 
C 2.940066 1.707514 3.286335 0.871546 3.286335 0 
C 3.286335 -0.871546 2.940066 -1.707514 2.32379 -2.32379 
C 1.707514 -2.940066 0.871546 -3.286335 0 -3.286335 
C -0.871546 -3.286335 -1.707514 -2.940066 -2.32379 -2.32379 
C -2.940066 -1.707514 -3.286335 -0.871546 -3.286335 0 
C -3.286335 0.871546 -2.940066 1.707514 -2.32379 2.32379 
C -1.707514 2.940066 -0.871546 3.286335 0 3.286335 
z
" style="stroke: #000000; stroke-width: 0.4"/>
                                                 </defs>
                                                 <g>
                                                  <use xlink:href="#mee9e85a699" x="428.105625" y="69.322656" style="fill: #e7298a; stroke: #000000; stroke-width: 0.4"/>
                                                 </g>
                                                </g>
                                                <g id="text_50">
                                                 <!-- Poroelastic -->
                                                 <g transform="translate(440.705625 71.160156) scale(0.07 -0.07)">
                                                  <defs>
                                                   <path id="DejaVuSans-72" d="M 2631 2963 
Q 2534 3019 2420 3045 
Q 2306 3072 2169 3072 
Q 1681 3072 1420 2755 
Q 1159 2438 1159 1844 
L 1159 0 
L 581 0 
L 581 3500 
L 1159 3500 
L 1159 2956 
Q 1341 3275 1631 3429 
Q 1922 3584 2338 3584 
Q 2397 3584 2469 3576 
Q 2541 3569 2628 3553 
L 2631 2963 
z
" transform="scale(0.015625)"/>
                                                  </defs>
                                                  <use xlink:href="#DejaVuSans-50"/>
                                                  <use xlink:href="#DejaVuSans-6f" x="56.677734"/>
                                                  <use xlink:href="#DejaVuSans-72" x="117.859375"/>
                                                  <use xlink:href="#DejaVuSans-6f" x="156.722656"/>
                                                  <use xlink:href="#DejaVuSans-65" x="217.904297"/>
                                                  <use xlink:href="#DejaVuSans-6c" x="279.427734"/>
                                                  <use xlink:href="#DejaVuSans-61" x="307.210938"/>
                                                  <use xlink:href="#DejaVuSans-73" x="368.490234"/>
                                                  <use xlink:href="#DejaVuSans-74" x="420.589844"/>
                                                  <use xlink:href="#DejaVuSans-69" x="459.798828"/>
                                                  <use xlink:href="#DejaVuSans-63" x="487.582031"/>
                                                 </g>
                                                </g>
                                               </g>
                                              </g>
                                             </g>
                                             <defs>
                                              <clipPath id="p183ac684ef">
                                               <rect x="7.2" y="7.2" width="480" height="408"/>
                                              </clipPath>
                                             </defs>
                                            </g>
                                           </g>
                                          </g>
                                         </g>
                                        </g>
                                       </g>
                                      </g>
                                     </g>
                                    </g>
                                   </g>
                                  </g>
                                 </g>
                                </g>
                               </g>
                              </g>
                             </g>
                            </g>
                           </g>
                          </g>
                         </g>
                        </g>
                       </g>
                      </g>
                     </g>
                    </g>
                   </g>
                  </g>
                 </g>
                </g>
               </g>
              </g>
             </g>
            </g>
           </g>
          </g>
         </g>
        </g>
       </g>
      </g>
     </g>
    </g>
   </g>
  </g>
 </g>
</svg>
